%TF.GenerationSoftware,KiCad,Pcbnew,(7.0.0)*%
%TF.CreationDate,2023-04-20T13:01:05-06:00*%
%TF.ProjectId,Phase_B_ATMEGA_v3,50686173-655f-4425-9f41-544d4547415f,rev?*%
%TF.SameCoordinates,Original*%
%TF.FileFunction,Soldermask,Top*%
%TF.FilePolarity,Negative*%
%FSLAX46Y46*%
G04 Gerber Fmt 4.6, Leading zero omitted, Abs format (unit mm)*
G04 Created by KiCad (PCBNEW (7.0.0)) date 2023-04-20 13:01:05*
%MOMM*%
%LPD*%
G01*
G04 APERTURE LIST*
G04 Aperture macros list*
%AMRoundRect*
0 Rectangle with rounded corners*
0 $1 Rounding radius*
0 $2 $3 $4 $5 $6 $7 $8 $9 X,Y pos of 4 corners*
0 Add a 4 corners polygon primitive as box body*
4,1,4,$2,$3,$4,$5,$6,$7,$8,$9,$2,$3,0*
0 Add four circle primitives for the rounded corners*
1,1,$1+$1,$2,$3*
1,1,$1+$1,$4,$5*
1,1,$1+$1,$6,$7*
1,1,$1+$1,$8,$9*
0 Add four rect primitives between the rounded corners*
20,1,$1+$1,$2,$3,$4,$5,0*
20,1,$1+$1,$4,$5,$6,$7,0*
20,1,$1+$1,$6,$7,$8,$9,0*
20,1,$1+$1,$8,$9,$2,$3,0*%
G04 Aperture macros list end*
%ADD10C,5.600000*%
%ADD11RoundRect,0.250000X0.450000X-0.262500X0.450000X0.262500X-0.450000X0.262500X-0.450000X-0.262500X0*%
%ADD12RoundRect,0.200000X0.275000X-0.200000X0.275000X0.200000X-0.275000X0.200000X-0.275000X-0.200000X0*%
%ADD13RoundRect,0.225000X-0.225000X-0.250000X0.225000X-0.250000X0.225000X0.250000X-0.225000X0.250000X0*%
%ADD14RoundRect,0.243750X-0.456250X0.243750X-0.456250X-0.243750X0.456250X-0.243750X0.456250X0.243750X0*%
%ADD15C,1.000000*%
%ADD16R,2.000000X0.500000*%
%ADD17R,1.700000X2.000000*%
%ADD18RoundRect,0.225000X0.250000X-0.225000X0.250000X0.225000X-0.250000X0.225000X-0.250000X-0.225000X0*%
%ADD19RoundRect,0.200000X-0.200000X-0.275000X0.200000X-0.275000X0.200000X0.275000X-0.200000X0.275000X0*%
%ADD20RoundRect,0.225000X-0.250000X0.225000X-0.250000X-0.225000X0.250000X-0.225000X0.250000X0.225000X0*%
%ADD21R,1.400000X1.200000*%
%ADD22RoundRect,0.250000X-0.262500X-0.450000X0.262500X-0.450000X0.262500X0.450000X-0.262500X0.450000X0*%
%ADD23RoundRect,0.100000X-0.100000X0.637500X-0.100000X-0.637500X0.100000X-0.637500X0.100000X0.637500X0*%
%ADD24RoundRect,0.225000X0.225000X0.250000X-0.225000X0.250000X-0.225000X-0.250000X0.225000X-0.250000X0*%
%ADD25RoundRect,0.200000X-0.275000X0.200000X-0.275000X-0.200000X0.275000X-0.200000X0.275000X0.200000X0*%
%ADD26RoundRect,0.200000X0.200000X0.275000X-0.200000X0.275000X-0.200000X-0.275000X0.200000X-0.275000X0*%
%ADD27R,0.550000X1.500000*%
%ADD28R,1.500000X0.550000*%
%ADD29R,1.000000X0.700000*%
%ADD30R,2.000000X1.500000*%
%ADD31R,1.700000X1.700000*%
%ADD32O,1.700000X1.700000*%
%ADD33RoundRect,0.250000X0.312500X1.450000X-0.312500X1.450000X-0.312500X-1.450000X0.312500X-1.450000X0*%
%ADD34R,2.000000X2.000000*%
%ADD35C,2.000000*%
%ADD36RoundRect,0.250000X0.262500X0.450000X-0.262500X0.450000X-0.262500X-0.450000X0.262500X-0.450000X0*%
%ADD37RoundRect,0.250000X0.475000X-0.250000X0.475000X0.250000X-0.475000X0.250000X-0.475000X-0.250000X0*%
%ADD38R,1.500000X1.500000*%
%ADD39C,1.500000*%
%ADD40RoundRect,0.150000X0.512500X0.150000X-0.512500X0.150000X-0.512500X-0.150000X0.512500X-0.150000X0*%
%ADD41RoundRect,0.150000X-0.512500X-0.150000X0.512500X-0.150000X0.512500X0.150000X-0.512500X0.150000X0*%
G04 APERTURE END LIST*
D10*
%TO.C,REF\u002A\u002A*%
X177018978Y-148038539D03*
%TD*%
%TO.C,REF\u002A\u002A*%
X132984544Y-147747431D03*
%TD*%
%TO.C,REF\u002A\u002A*%
X176800761Y-79162679D03*
%TD*%
D11*
%TO.C,R5*%
X146114167Y-80088318D03*
X146114167Y-78263318D03*
%TD*%
D12*
%TO.C,R17*%
X127000000Y-97345000D03*
X127000000Y-95695000D03*
%TD*%
D11*
%TO.C,R8*%
X134684167Y-80088318D03*
X134684167Y-78263318D03*
%TD*%
D13*
%TO.C,C13*%
X110860000Y-90200000D03*
X112410000Y-90200000D03*
%TD*%
D14*
%TO.C,D3*%
X160845000Y-94065000D03*
X160845000Y-95940000D03*
%TD*%
D15*
%TO.C,J2*%
X179070000Y-110150000D03*
X179070000Y-105750000D03*
D16*
X176369999Y-109549999D03*
X176369999Y-108749999D03*
X176369999Y-107949999D03*
X176369999Y-107149999D03*
X176369999Y-106349999D03*
D17*
X176469999Y-112399999D03*
X181919999Y-112399999D03*
X176469999Y-103499999D03*
X181919999Y-103499999D03*
%TD*%
D11*
%TO.C,R7*%
X138494167Y-80088318D03*
X138494167Y-78263318D03*
%TD*%
D18*
%TO.C,C5*%
X144085597Y-95917361D03*
X144085597Y-94367361D03*
%TD*%
D14*
%TO.C,D2*%
X113030000Y-62895000D03*
X113030000Y-64770000D03*
%TD*%
D11*
%TO.C,R3*%
X110490000Y-69492500D03*
X110490000Y-67667500D03*
%TD*%
%TO.C,R6*%
X142304167Y-80088318D03*
X142304167Y-78263318D03*
%TD*%
D19*
%TO.C,R13*%
X148386135Y-95870623D03*
X150036135Y-95870623D03*
%TD*%
D20*
%TO.C,C2*%
X140488764Y-94349911D03*
X140488764Y-95899911D03*
%TD*%
D21*
%TO.C,Y1*%
X137690469Y-94091469D03*
X135490469Y-94091469D03*
X135490469Y-95791469D03*
X137690469Y-95791469D03*
%TD*%
D20*
%TO.C,C12*%
X145625107Y-115266761D03*
X145625107Y-116816761D03*
%TD*%
D22*
%TO.C,R1*%
X133707500Y-128270000D03*
X135532500Y-128270000D03*
%TD*%
D23*
%TO.C,U2*%
X137082297Y-83805077D03*
X136432297Y-83805077D03*
X135782297Y-83805077D03*
X135132297Y-83805077D03*
X134482297Y-83805077D03*
X133832297Y-83805077D03*
X133182297Y-83805077D03*
X132532297Y-83805077D03*
X132532297Y-89530077D03*
X133182297Y-89530077D03*
X133832297Y-89530077D03*
X134482297Y-89530077D03*
X135132297Y-89530077D03*
X135782297Y-89530077D03*
X136432297Y-89530077D03*
X137082297Y-89530077D03*
%TD*%
D24*
%TO.C,C15*%
X116500000Y-93980000D03*
X114950000Y-93980000D03*
%TD*%
D13*
%TO.C,C9*%
X151871806Y-106893264D03*
X153421806Y-106893264D03*
%TD*%
D14*
%TO.C,D1*%
X110490000Y-62895000D03*
X110490000Y-64770000D03*
%TD*%
D25*
%TO.C,R16*%
X164196361Y-94377674D03*
X164196361Y-96027674D03*
%TD*%
D13*
%TO.C,C7*%
X151894180Y-110009211D03*
X153444180Y-110009211D03*
%TD*%
D26*
%TO.C,R14*%
X171450000Y-107151492D03*
X169800000Y-107151492D03*
%TD*%
D27*
%TO.C,U3*%
X147184999Y-112379999D03*
X146384999Y-112379999D03*
X145584999Y-112379999D03*
X144784999Y-112379999D03*
X143984999Y-112379999D03*
X143184999Y-112379999D03*
X142384999Y-112379999D03*
X141584999Y-112379999D03*
X140784999Y-112379999D03*
X139984999Y-112379999D03*
X139184999Y-112379999D03*
D28*
X137484999Y-110679999D03*
X137484999Y-109879999D03*
X137484999Y-109079999D03*
X137484999Y-108279999D03*
X137484999Y-107479999D03*
X137484999Y-106679999D03*
X137484999Y-105879999D03*
X137484999Y-105079999D03*
X137484999Y-104279999D03*
X137484999Y-103479999D03*
X137484999Y-102679999D03*
D27*
X139184999Y-100979999D03*
X139984999Y-100979999D03*
X140784999Y-100979999D03*
X141584999Y-100979999D03*
X142384999Y-100979999D03*
X143184999Y-100979999D03*
X143984999Y-100979999D03*
X144784999Y-100979999D03*
X145584999Y-100979999D03*
X146384999Y-100979999D03*
X147184999Y-100979999D03*
D28*
X148884999Y-102679999D03*
X148884999Y-103479999D03*
X148884999Y-104279999D03*
X148884999Y-105079999D03*
X148884999Y-105879999D03*
X148884999Y-106679999D03*
X148884999Y-107479999D03*
X148884999Y-108279999D03*
X148884999Y-109079999D03*
X148884999Y-109879999D03*
X148884999Y-110679999D03*
%TD*%
D13*
%TO.C,C14*%
X110860000Y-92710000D03*
X112410000Y-92710000D03*
%TD*%
D29*
%TO.C,S3*%
X151939999Y-92129999D03*
X157939999Y-92129999D03*
X151939999Y-95829999D03*
X157939999Y-95829999D03*
%TD*%
D30*
%TO.C,S1*%
X113499999Y-128309999D03*
X127799999Y-128309999D03*
X113499999Y-133309999D03*
X127799999Y-133309999D03*
%TD*%
D18*
%TO.C,C1*%
X138430000Y-87910000D03*
X138430000Y-86360000D03*
%TD*%
D31*
%TO.C,J3*%
X123859999Y-90169999D03*
D32*
X121319999Y-90169999D03*
X123859999Y-92709999D03*
X121319999Y-92709999D03*
X123859999Y-95249999D03*
X121319999Y-95249999D03*
X123859999Y-97789999D03*
X121319999Y-97789999D03*
%TD*%
D13*
%TO.C,C6*%
X151857379Y-105257668D03*
X153407379Y-105257668D03*
%TD*%
D11*
%TO.C,R12*%
X119444167Y-80088318D03*
X119444167Y-78263318D03*
%TD*%
D33*
%TO.C,F1*%
X170180000Y-114300000D03*
X165905000Y-114300000D03*
%TD*%
D34*
%TO.C,LS1*%
X172729999Y-66039999D03*
D35*
X180330000Y-66040000D03*
%TD*%
D11*
%TO.C,R11*%
X123254167Y-80088318D03*
X123254167Y-78263318D03*
%TD*%
D36*
%TO.C,R2*%
X135532500Y-133350000D03*
X133707500Y-133350000D03*
%TD*%
D37*
%TO.C,C8*%
X146050000Y-95880000D03*
X146050000Y-93980000D03*
%TD*%
D38*
%TO.C,U1*%
X135889999Y-73659999D03*
D39*
X138430000Y-73660000D03*
X140970000Y-73660000D03*
X143510000Y-73660000D03*
X146050000Y-73660000D03*
X148590000Y-73660000D03*
X148590000Y-58420000D03*
X146050000Y-58420000D03*
X143510000Y-58420000D03*
X140970000Y-58420000D03*
X138430000Y-58420000D03*
X135890000Y-58420000D03*
%TD*%
D40*
%TO.C,U4*%
X164835000Y-108580000D03*
X164835000Y-107630000D03*
X164835000Y-106680000D03*
X162560000Y-106680000D03*
X162560000Y-107630000D03*
X162560000Y-108580000D03*
%TD*%
D18*
%TO.C,C3*%
X142324588Y-95908823D03*
X142324588Y-94358823D03*
%TD*%
D24*
%TO.C,C4*%
X133938599Y-103156691D03*
X132388599Y-103156691D03*
%TD*%
D41*
%TO.C,U5*%
X115077500Y-90220000D03*
X115077500Y-91170000D03*
X115077500Y-92120000D03*
X117352500Y-92120000D03*
X117352500Y-90220000D03*
%TD*%
D11*
%TO.C,R10*%
X127064167Y-80088318D03*
X127064167Y-78263318D03*
%TD*%
D20*
%TO.C,C10*%
X147339690Y-115255481D03*
X147339690Y-116805481D03*
%TD*%
D11*
%TO.C,R9*%
X130874167Y-80088318D03*
X130874167Y-78263318D03*
%TD*%
D26*
%TO.C,R15*%
X171485295Y-109009638D03*
X169835295Y-109009638D03*
%TD*%
D20*
%TO.C,C11*%
X139457130Y-115176623D03*
X139457130Y-116726623D03*
%TD*%
D11*
%TO.C,R4*%
X113030000Y-69492500D03*
X113030000Y-67667500D03*
%TD*%
D30*
%TO.C,S2*%
X155739999Y-133309999D03*
X141439999Y-133309999D03*
X155739999Y-128309999D03*
X141439999Y-128309999D03*
%TD*%
D31*
%TO.C,J1*%
X165099999Y-100329999D03*
D32*
X165099999Y-102869999D03*
X162559999Y-100329999D03*
X162559999Y-102869999D03*
X160019999Y-100329999D03*
X160019999Y-102869999D03*
%TD*%
M02*
