M48
; DRILL file {KiCad (7.0.0)} date Thu Apr 20 13:01:09 2023
; FORMAT={-:-/ absolute / inch / decimal}
; #@! TF.CreationDate,2023-04-20T13:01:09-06:00
; #@! TF.GenerationSoftware,Kicad,Pcbnew,(7.0.0)
; #@! TF.FileFunction,Plated,1,2,PTH
FMAT,2
INCH
; #@! TA.AperFunction,Plated,PTH,ViaDrill
T1C0.0157
; #@! TA.AperFunction,Plated,PTH,ComponentDrill
T2C0.0394
; #@! TA.AperFunction,Plated,PTH,ComponentDrill
T3C0.1260
%
G90
G05
T1
X4.3486Y-2.4263
X4.3644Y-3.4672
X4.4262Y-3.5976
X4.4311Y-3.6993
X4.45Y-3.15
X4.45Y-3.85
X4.4522Y-2.4269
X4.5235Y-3.7518
X4.8043Y-3.4785
X4.819Y-4.2727
X4.9454Y-3.4807
X4.9527Y-3.8933
X4.9561Y-3.0329
X4.9785Y-2.917
X5.0375Y-4.3263
X5.0513Y-3.0323
X5.125Y-4.2727
X5.1278Y-4.326
X5.1344Y-2.9235
X5.1633Y-4.0626
X5.1685Y-5.0036
X5.1778Y-3.8915
X5.2006Y-3.7597
X5.2161Y-5.2507
X5.2209Y-3.3604
X5.2333Y-4.1261
X5.2354Y-3.6656
X5.278Y-3.7038
X5.293Y-3.6054
X5.3197Y-3.4644
X5.3303Y-4.134
X5.3882Y-5.0521
X5.4226Y-3.8226
X5.446Y-3.3486
X5.4677Y-5.1909
X5.4752Y-4.0418
X5.4903Y-4.6487
X5.4963Y-4.3555
X5.5Y-2.45
X5.5317Y-3.6607
X5.55Y-3.55
X5.55Y-3.85
X5.5632Y-4.0461
X5.5939Y-3.4836
X5.6Y-2.4
X5.6037Y-3.6621
X5.6058Y-4.0427
X5.65Y-2.4
X5.65Y-3.85
X5.6712Y-3.6612
X5.6864Y-4.4855
X5.6997Y-4.035
X5.7307Y-4.6487
X5.7381Y-4.1486
X5.7479Y-3.6407
X5.7638Y-4.3678
X5.7642Y-4.4842
X5.7817Y-4.1621
X5.8005Y-4.6478
X5.8042Y-4.2334
X5.8493Y-3.8839
X5.85Y-2.8
X5.8591Y-3.0292
X5.9242Y-4.0412
X5.9262Y-4.1078
X5.9809Y-3.5843
X6.0Y-3.0
X6.0918Y-4.3297
X6.0929Y-4.2062
X6.0946Y-4.1442
X6.1031Y-3.0293
X6.1648Y-3.059
X6.2985Y-4.116
X6.3312Y-3.6544
X6.5378Y-4.2379
X6.8678Y-4.187
X7.1Y-2.7
T2
X4.7764Y-3.55
X4.7764Y-3.65
X4.7764Y-3.75
X4.7764Y-3.85
X4.8764Y-3.55
X4.8764Y-3.65
X4.8764Y-3.75
X4.8764Y-3.85
X5.35Y-2.3
X5.35Y-2.9
X5.45Y-2.3
X5.45Y-2.9
X5.55Y-2.3
X5.55Y-2.9
X5.65Y-2.3
X5.65Y-2.9
X5.75Y-2.3
X5.75Y-2.9
X5.85Y-2.3
X5.85Y-2.9
X6.3Y-3.95
X6.3Y-4.05
X6.4Y-3.95
X6.4Y-4.05
X6.5Y-3.95
X6.5Y-4.05
X6.8004Y-2.6
X7.0996Y-2.6
T3
X5.2356Y-5.8168
X6.9607Y-3.1166
X6.9693Y-5.8283
T0
M30
