%TF.GenerationSoftware,KiCad,Pcbnew,(7.0.0)*%
%TF.CreationDate,2023-04-20T13:01:05-06:00*%
%TF.ProjectId,Phase_B_ATMEGA_v3,50686173-655f-4425-9f41-544d4547415f,rev?*%
%TF.SameCoordinates,Original*%
%TF.FileFunction,Profile,NP*%
%FSLAX46Y46*%
G04 Gerber Fmt 4.6, Leading zero omitted, Abs format (unit mm)*
G04 Created by KiCad (PCBNEW (7.0.0)) date 2023-04-20 13:01:05*
%MOMM*%
%LPD*%
G01*
G04 APERTURE LIST*
%TA.AperFunction,Profile*%
%ADD10C,0.100000*%
%TD*%
%ADD11C,0.150000*%
G04 APERTURE END LIST*
D10*
X107950000Y-147320000D02*
G75*
G03*
X114300000Y-153670000I6350000J0D01*
G01*
X114300000Y-54610000D02*
G75*
G03*
X110490000Y-55880000I0J-6350000D01*
G01*
X114300000Y-54610000D02*
X181610000Y-54610000D01*
X186690000Y-146050000D02*
X186690000Y-59690000D01*
X186690000Y-59690000D02*
G75*
G03*
X181610000Y-54610000I-5080000J0D01*
G01*
X179070000Y-153670000D02*
G75*
G03*
X186690000Y-146050000I0J7620000D01*
G01*
X110490000Y-55880000D02*
G75*
G03*
X107950000Y-60960000I3810000J-5080000D01*
G01*
X107950000Y-60960000D02*
X107950000Y-147320000D01*
X114300000Y-153670000D02*
X179070000Y-153670000D01*
D11*
X142734286Y-156967379D02*
X143400952Y-156967379D01*
X143400952Y-156967379D02*
X142972381Y-157967379D01*
X143924762Y-157395951D02*
X143829524Y-157348332D01*
X143829524Y-157348332D02*
X143781905Y-157300713D01*
X143781905Y-157300713D02*
X143734286Y-157205475D01*
X143734286Y-157205475D02*
X143734286Y-157157856D01*
X143734286Y-157157856D02*
X143781905Y-157062618D01*
X143781905Y-157062618D02*
X143829524Y-157014999D01*
X143829524Y-157014999D02*
X143924762Y-156967379D01*
X143924762Y-156967379D02*
X144115238Y-156967379D01*
X144115238Y-156967379D02*
X144210476Y-157014999D01*
X144210476Y-157014999D02*
X144258095Y-157062618D01*
X144258095Y-157062618D02*
X144305714Y-157157856D01*
X144305714Y-157157856D02*
X144305714Y-157205475D01*
X144305714Y-157205475D02*
X144258095Y-157300713D01*
X144258095Y-157300713D02*
X144210476Y-157348332D01*
X144210476Y-157348332D02*
X144115238Y-157395951D01*
X144115238Y-157395951D02*
X143924762Y-157395951D01*
X143924762Y-157395951D02*
X143829524Y-157443570D01*
X143829524Y-157443570D02*
X143781905Y-157491189D01*
X143781905Y-157491189D02*
X143734286Y-157586427D01*
X143734286Y-157586427D02*
X143734286Y-157776903D01*
X143734286Y-157776903D02*
X143781905Y-157872141D01*
X143781905Y-157872141D02*
X143829524Y-157919760D01*
X143829524Y-157919760D02*
X143924762Y-157967379D01*
X143924762Y-157967379D02*
X144115238Y-157967379D01*
X144115238Y-157967379D02*
X144210476Y-157919760D01*
X144210476Y-157919760D02*
X144258095Y-157872141D01*
X144258095Y-157872141D02*
X144305714Y-157776903D01*
X144305714Y-157776903D02*
X144305714Y-157586427D01*
X144305714Y-157586427D02*
X144258095Y-157491189D01*
X144258095Y-157491189D02*
X144210476Y-157443570D01*
X144210476Y-157443570D02*
X144115238Y-157395951D01*
X144734286Y-157872141D02*
X144781905Y-157919760D01*
X144781905Y-157919760D02*
X144734286Y-157967379D01*
X144734286Y-157967379D02*
X144686667Y-157919760D01*
X144686667Y-157919760D02*
X144734286Y-157872141D01*
X144734286Y-157872141D02*
X144734286Y-157967379D01*
X145115238Y-156967379D02*
X145781904Y-156967379D01*
X145781904Y-156967379D02*
X145353333Y-157967379D01*
X146591428Y-157300713D02*
X146591428Y-157967379D01*
X146353333Y-156919760D02*
X146115238Y-157634046D01*
X146115238Y-157634046D02*
X146734285Y-157634046D01*
X147305714Y-156967379D02*
X147400952Y-156967379D01*
X147400952Y-156967379D02*
X147496190Y-157014999D01*
X147496190Y-157014999D02*
X147543809Y-157062618D01*
X147543809Y-157062618D02*
X147591428Y-157157856D01*
X147591428Y-157157856D02*
X147639047Y-157348332D01*
X147639047Y-157348332D02*
X147639047Y-157586427D01*
X147639047Y-157586427D02*
X147591428Y-157776903D01*
X147591428Y-157776903D02*
X147543809Y-157872141D01*
X147543809Y-157872141D02*
X147496190Y-157919760D01*
X147496190Y-157919760D02*
X147400952Y-157967379D01*
X147400952Y-157967379D02*
X147305714Y-157967379D01*
X147305714Y-157967379D02*
X147210476Y-157919760D01*
X147210476Y-157919760D02*
X147162857Y-157872141D01*
X147162857Y-157872141D02*
X147115238Y-157776903D01*
X147115238Y-157776903D02*
X147067619Y-157586427D01*
X147067619Y-157586427D02*
X147067619Y-157348332D01*
X147067619Y-157348332D02*
X147115238Y-157157856D01*
X147115238Y-157157856D02*
X147162857Y-157062618D01*
X147162857Y-157062618D02*
X147210476Y-157014999D01*
X147210476Y-157014999D02*
X147305714Y-156967379D01*
X148258095Y-156967379D02*
X148353333Y-156967379D01*
X148353333Y-156967379D02*
X148448571Y-157014999D01*
X148448571Y-157014999D02*
X148496190Y-157062618D01*
X148496190Y-157062618D02*
X148543809Y-157157856D01*
X148543809Y-157157856D02*
X148591428Y-157348332D01*
X148591428Y-157348332D02*
X148591428Y-157586427D01*
X148591428Y-157586427D02*
X148543809Y-157776903D01*
X148543809Y-157776903D02*
X148496190Y-157872141D01*
X148496190Y-157872141D02*
X148448571Y-157919760D01*
X148448571Y-157919760D02*
X148353333Y-157967379D01*
X148353333Y-157967379D02*
X148258095Y-157967379D01*
X148258095Y-157967379D02*
X148162857Y-157919760D01*
X148162857Y-157919760D02*
X148115238Y-157872141D01*
X148115238Y-157872141D02*
X148067619Y-157776903D01*
X148067619Y-157776903D02*
X148020000Y-157586427D01*
X148020000Y-157586427D02*
X148020000Y-157348332D01*
X148020000Y-157348332D02*
X148067619Y-157157856D01*
X148067619Y-157157856D02*
X148115238Y-157062618D01*
X148115238Y-157062618D02*
X148162857Y-157014999D01*
X148162857Y-157014999D02*
X148258095Y-156967379D01*
X149620000Y-157967379D02*
X149620000Y-157300713D01*
X149620000Y-157395951D02*
X149667619Y-157348332D01*
X149667619Y-157348332D02*
X149762857Y-157300713D01*
X149762857Y-157300713D02*
X149905714Y-157300713D01*
X149905714Y-157300713D02*
X150000952Y-157348332D01*
X150000952Y-157348332D02*
X150048571Y-157443570D01*
X150048571Y-157443570D02*
X150048571Y-157967379D01*
X150048571Y-157443570D02*
X150096190Y-157348332D01*
X150096190Y-157348332D02*
X150191428Y-157300713D01*
X150191428Y-157300713D02*
X150334285Y-157300713D01*
X150334285Y-157300713D02*
X150429524Y-157348332D01*
X150429524Y-157348332D02*
X150477143Y-157443570D01*
X150477143Y-157443570D02*
X150477143Y-157967379D01*
X150953333Y-157967379D02*
X150953333Y-157300713D01*
X150953333Y-157395951D02*
X151000952Y-157348332D01*
X151000952Y-157348332D02*
X151096190Y-157300713D01*
X151096190Y-157300713D02*
X151239047Y-157300713D01*
X151239047Y-157300713D02*
X151334285Y-157348332D01*
X151334285Y-157348332D02*
X151381904Y-157443570D01*
X151381904Y-157443570D02*
X151381904Y-157967379D01*
X151381904Y-157443570D02*
X151429523Y-157348332D01*
X151429523Y-157348332D02*
X151524761Y-157300713D01*
X151524761Y-157300713D02*
X151667618Y-157300713D01*
X151667618Y-157300713D02*
X151762857Y-157348332D01*
X151762857Y-157348332D02*
X151810476Y-157443570D01*
X151810476Y-157443570D02*
X151810476Y-157967379D01*
D10*
X107950000Y-155440000D02*
X107950000Y-159336419D01*
X186690000Y-155440000D02*
X186690000Y-159336419D01*
X107950000Y-158749999D02*
X186690000Y-158749999D01*
X107950000Y-158749999D02*
X186690000Y-158749999D01*
X107950000Y-158749999D02*
X109076504Y-158163578D01*
X107950000Y-158749999D02*
X109076504Y-159336420D01*
X186690000Y-158749999D02*
X185563496Y-159336420D01*
X186690000Y-158749999D02*
X185563496Y-158163578D01*
D11*
X102087380Y-108582856D02*
X102087380Y-108392380D01*
X102087380Y-108392380D02*
X102039761Y-108297142D01*
X102039761Y-108297142D02*
X101992142Y-108249523D01*
X101992142Y-108249523D02*
X101849285Y-108154285D01*
X101849285Y-108154285D02*
X101658809Y-108106666D01*
X101658809Y-108106666D02*
X101277857Y-108106666D01*
X101277857Y-108106666D02*
X101182619Y-108154285D01*
X101182619Y-108154285D02*
X101135000Y-108201904D01*
X101135000Y-108201904D02*
X101087380Y-108297142D01*
X101087380Y-108297142D02*
X101087380Y-108487618D01*
X101087380Y-108487618D02*
X101135000Y-108582856D01*
X101135000Y-108582856D02*
X101182619Y-108630475D01*
X101182619Y-108630475D02*
X101277857Y-108678094D01*
X101277857Y-108678094D02*
X101515952Y-108678094D01*
X101515952Y-108678094D02*
X101611190Y-108630475D01*
X101611190Y-108630475D02*
X101658809Y-108582856D01*
X101658809Y-108582856D02*
X101706428Y-108487618D01*
X101706428Y-108487618D02*
X101706428Y-108297142D01*
X101706428Y-108297142D02*
X101658809Y-108201904D01*
X101658809Y-108201904D02*
X101611190Y-108154285D01*
X101611190Y-108154285D02*
X101515952Y-108106666D01*
X102087380Y-107630475D02*
X102087380Y-107439999D01*
X102087380Y-107439999D02*
X102039761Y-107344761D01*
X102039761Y-107344761D02*
X101992142Y-107297142D01*
X101992142Y-107297142D02*
X101849285Y-107201904D01*
X101849285Y-107201904D02*
X101658809Y-107154285D01*
X101658809Y-107154285D02*
X101277857Y-107154285D01*
X101277857Y-107154285D02*
X101182619Y-107201904D01*
X101182619Y-107201904D02*
X101135000Y-107249523D01*
X101135000Y-107249523D02*
X101087380Y-107344761D01*
X101087380Y-107344761D02*
X101087380Y-107535237D01*
X101087380Y-107535237D02*
X101135000Y-107630475D01*
X101135000Y-107630475D02*
X101182619Y-107678094D01*
X101182619Y-107678094D02*
X101277857Y-107725713D01*
X101277857Y-107725713D02*
X101515952Y-107725713D01*
X101515952Y-107725713D02*
X101611190Y-107678094D01*
X101611190Y-107678094D02*
X101658809Y-107630475D01*
X101658809Y-107630475D02*
X101706428Y-107535237D01*
X101706428Y-107535237D02*
X101706428Y-107344761D01*
X101706428Y-107344761D02*
X101658809Y-107249523D01*
X101658809Y-107249523D02*
X101611190Y-107201904D01*
X101611190Y-107201904D02*
X101515952Y-107154285D01*
X101992142Y-106725713D02*
X102039761Y-106678094D01*
X102039761Y-106678094D02*
X102087380Y-106725713D01*
X102087380Y-106725713D02*
X102039761Y-106773332D01*
X102039761Y-106773332D02*
X101992142Y-106725713D01*
X101992142Y-106725713D02*
X102087380Y-106725713D01*
X101087380Y-106059047D02*
X101087380Y-105963809D01*
X101087380Y-105963809D02*
X101135000Y-105868571D01*
X101135000Y-105868571D02*
X101182619Y-105820952D01*
X101182619Y-105820952D02*
X101277857Y-105773333D01*
X101277857Y-105773333D02*
X101468333Y-105725714D01*
X101468333Y-105725714D02*
X101706428Y-105725714D01*
X101706428Y-105725714D02*
X101896904Y-105773333D01*
X101896904Y-105773333D02*
X101992142Y-105820952D01*
X101992142Y-105820952D02*
X102039761Y-105868571D01*
X102039761Y-105868571D02*
X102087380Y-105963809D01*
X102087380Y-105963809D02*
X102087380Y-106059047D01*
X102087380Y-106059047D02*
X102039761Y-106154285D01*
X102039761Y-106154285D02*
X101992142Y-106201904D01*
X101992142Y-106201904D02*
X101896904Y-106249523D01*
X101896904Y-106249523D02*
X101706428Y-106297142D01*
X101706428Y-106297142D02*
X101468333Y-106297142D01*
X101468333Y-106297142D02*
X101277857Y-106249523D01*
X101277857Y-106249523D02*
X101182619Y-106201904D01*
X101182619Y-106201904D02*
X101135000Y-106154285D01*
X101135000Y-106154285D02*
X101087380Y-106059047D01*
X101087380Y-104868571D02*
X101087380Y-105059047D01*
X101087380Y-105059047D02*
X101135000Y-105154285D01*
X101135000Y-105154285D02*
X101182619Y-105201904D01*
X101182619Y-105201904D02*
X101325476Y-105297142D01*
X101325476Y-105297142D02*
X101515952Y-105344761D01*
X101515952Y-105344761D02*
X101896904Y-105344761D01*
X101896904Y-105344761D02*
X101992142Y-105297142D01*
X101992142Y-105297142D02*
X102039761Y-105249523D01*
X102039761Y-105249523D02*
X102087380Y-105154285D01*
X102087380Y-105154285D02*
X102087380Y-104963809D01*
X102087380Y-104963809D02*
X102039761Y-104868571D01*
X102039761Y-104868571D02*
X101992142Y-104820952D01*
X101992142Y-104820952D02*
X101896904Y-104773333D01*
X101896904Y-104773333D02*
X101658809Y-104773333D01*
X101658809Y-104773333D02*
X101563571Y-104820952D01*
X101563571Y-104820952D02*
X101515952Y-104868571D01*
X101515952Y-104868571D02*
X101468333Y-104963809D01*
X101468333Y-104963809D02*
X101468333Y-105154285D01*
X101468333Y-105154285D02*
X101515952Y-105249523D01*
X101515952Y-105249523D02*
X101563571Y-105297142D01*
X101563571Y-105297142D02*
X101658809Y-105344761D01*
X101087380Y-104154285D02*
X101087380Y-104059047D01*
X101087380Y-104059047D02*
X101135000Y-103963809D01*
X101135000Y-103963809D02*
X101182619Y-103916190D01*
X101182619Y-103916190D02*
X101277857Y-103868571D01*
X101277857Y-103868571D02*
X101468333Y-103820952D01*
X101468333Y-103820952D02*
X101706428Y-103820952D01*
X101706428Y-103820952D02*
X101896904Y-103868571D01*
X101896904Y-103868571D02*
X101992142Y-103916190D01*
X101992142Y-103916190D02*
X102039761Y-103963809D01*
X102039761Y-103963809D02*
X102087380Y-104059047D01*
X102087380Y-104059047D02*
X102087380Y-104154285D01*
X102087380Y-104154285D02*
X102039761Y-104249523D01*
X102039761Y-104249523D02*
X101992142Y-104297142D01*
X101992142Y-104297142D02*
X101896904Y-104344761D01*
X101896904Y-104344761D02*
X101706428Y-104392380D01*
X101706428Y-104392380D02*
X101468333Y-104392380D01*
X101468333Y-104392380D02*
X101277857Y-104344761D01*
X101277857Y-104344761D02*
X101182619Y-104297142D01*
X101182619Y-104297142D02*
X101135000Y-104249523D01*
X101135000Y-104249523D02*
X101087380Y-104154285D01*
X101087380Y-103201904D02*
X101087380Y-103106666D01*
X101087380Y-103106666D02*
X101135000Y-103011428D01*
X101135000Y-103011428D02*
X101182619Y-102963809D01*
X101182619Y-102963809D02*
X101277857Y-102916190D01*
X101277857Y-102916190D02*
X101468333Y-102868571D01*
X101468333Y-102868571D02*
X101706428Y-102868571D01*
X101706428Y-102868571D02*
X101896904Y-102916190D01*
X101896904Y-102916190D02*
X101992142Y-102963809D01*
X101992142Y-102963809D02*
X102039761Y-103011428D01*
X102039761Y-103011428D02*
X102087380Y-103106666D01*
X102087380Y-103106666D02*
X102087380Y-103201904D01*
X102087380Y-103201904D02*
X102039761Y-103297142D01*
X102039761Y-103297142D02*
X101992142Y-103344761D01*
X101992142Y-103344761D02*
X101896904Y-103392380D01*
X101896904Y-103392380D02*
X101706428Y-103439999D01*
X101706428Y-103439999D02*
X101468333Y-103439999D01*
X101468333Y-103439999D02*
X101277857Y-103392380D01*
X101277857Y-103392380D02*
X101182619Y-103344761D01*
X101182619Y-103344761D02*
X101135000Y-103297142D01*
X101135000Y-103297142D02*
X101087380Y-103201904D01*
X102087380Y-101839999D02*
X101420714Y-101839999D01*
X101515952Y-101839999D02*
X101468333Y-101792380D01*
X101468333Y-101792380D02*
X101420714Y-101697142D01*
X101420714Y-101697142D02*
X101420714Y-101554285D01*
X101420714Y-101554285D02*
X101468333Y-101459047D01*
X101468333Y-101459047D02*
X101563571Y-101411428D01*
X101563571Y-101411428D02*
X102087380Y-101411428D01*
X101563571Y-101411428D02*
X101468333Y-101363809D01*
X101468333Y-101363809D02*
X101420714Y-101268571D01*
X101420714Y-101268571D02*
X101420714Y-101125714D01*
X101420714Y-101125714D02*
X101468333Y-101030475D01*
X101468333Y-101030475D02*
X101563571Y-100982856D01*
X101563571Y-100982856D02*
X102087380Y-100982856D01*
X102087380Y-100506666D02*
X101420714Y-100506666D01*
X101515952Y-100506666D02*
X101468333Y-100459047D01*
X101468333Y-100459047D02*
X101420714Y-100363809D01*
X101420714Y-100363809D02*
X101420714Y-100220952D01*
X101420714Y-100220952D02*
X101468333Y-100125714D01*
X101468333Y-100125714D02*
X101563571Y-100078095D01*
X101563571Y-100078095D02*
X102087380Y-100078095D01*
X101563571Y-100078095D02*
X101468333Y-100030476D01*
X101468333Y-100030476D02*
X101420714Y-99935238D01*
X101420714Y-99935238D02*
X101420714Y-99792381D01*
X101420714Y-99792381D02*
X101468333Y-99697142D01*
X101468333Y-99697142D02*
X101563571Y-99649523D01*
X101563571Y-99649523D02*
X102087380Y-99649523D01*
D10*
X106180000Y-153670000D02*
X102283580Y-153670000D01*
X106180000Y-54610000D02*
X102283580Y-54610000D01*
X102870000Y-153670000D02*
X102870000Y-54610000D01*
X102870000Y-153670000D02*
X102870000Y-54610000D01*
X102870000Y-153670000D02*
X102283579Y-152543496D01*
X102870000Y-153670000D02*
X103456421Y-152543496D01*
X102870000Y-54610000D02*
X103456421Y-55736504D01*
X102870000Y-54610000D02*
X102283579Y-55736504D01*
M02*
