%TF.GenerationSoftware,KiCad,Pcbnew,(7.0.0)*%
%TF.CreationDate,2023-04-20T13:01:05-06:00*%
%TF.ProjectId,Phase_B_ATMEGA_v3,50686173-655f-4425-9f41-544d4547415f,rev?*%
%TF.SameCoordinates,Original*%
%TF.FileFunction,Copper,L2,Bot*%
%TF.FilePolarity,Positive*%
%FSLAX46Y46*%
G04 Gerber Fmt 4.6, Leading zero omitted, Abs format (unit mm)*
G04 Created by KiCad (PCBNEW (7.0.0)) date 2023-04-20 13:01:05*
%MOMM*%
%LPD*%
G01*
G04 APERTURE LIST*
%TA.AperFunction,ComponentPad*%
%ADD10C,5.600000*%
%TD*%
%TA.AperFunction,ComponentPad*%
%ADD11R,1.700000X1.700000*%
%TD*%
%TA.AperFunction,ComponentPad*%
%ADD12O,1.700000X1.700000*%
%TD*%
%TA.AperFunction,ComponentPad*%
%ADD13R,2.000000X2.000000*%
%TD*%
%TA.AperFunction,ComponentPad*%
%ADD14C,2.000000*%
%TD*%
%TA.AperFunction,ComponentPad*%
%ADD15R,1.500000X1.500000*%
%TD*%
%TA.AperFunction,ComponentPad*%
%ADD16C,1.500000*%
%TD*%
%TA.AperFunction,ViaPad*%
%ADD17C,0.800000*%
%TD*%
%TA.AperFunction,Conductor*%
%ADD18C,0.203200*%
%TD*%
%TA.AperFunction,Conductor*%
%ADD19C,0.250000*%
%TD*%
G04 APERTURE END LIST*
D10*
%TO.P,REF\u002A\u002A,1*%
%TO.N,N/C*%
X177018978Y-148038539D03*
%TD*%
%TO.P,REF\u002A\u002A,1*%
%TO.N,N/C*%
X132984544Y-147747431D03*
%TD*%
%TO.P,REF\u002A\u002A,1*%
%TO.N,N/C*%
X176800761Y-79162679D03*
%TD*%
D11*
%TO.P,J3,1,Pin_1*%
%TO.N,GND*%
X123859999Y-90169999D03*
D12*
%TO.P,J3,2,Pin_2*%
%TO.N,TX*%
X121319999Y-90169999D03*
%TO.P,J3,3,Pin_3*%
%TO.N,unconnected-(J3-Pin_3-Pad3)*%
X123859999Y-92709999D03*
%TO.P,J3,4,Pin_4*%
%TO.N,+3.3V*%
X121319999Y-92709999D03*
%TO.P,J3,5,Pin_5*%
%TO.N,Net-(J3-Pin_5)*%
X123859999Y-95249999D03*
%TO.P,J3,6,Pin_6*%
%TO.N,+3.3V*%
X121319999Y-95249999D03*
%TO.P,J3,7,Pin_7*%
%TO.N,RX*%
X123859999Y-97789999D03*
%TO.P,J3,8,Pin_8*%
%TO.N,+3.3V*%
X121319999Y-97789999D03*
%TD*%
D13*
%TO.P,LS1,1,1*%
%TO.N,Buzzer*%
X172729999Y-66039999D03*
D14*
%TO.P,LS1,2,2*%
%TO.N,GND*%
X180330000Y-66040000D03*
%TD*%
D15*
%TO.P,U1,1,e*%
%TO.N,Net-(U1-e)*%
X135889999Y-73659999D03*
D16*
%TO.P,U1,2,d*%
%TO.N,Net-(U1-d)*%
X138430000Y-73660000D03*
%TO.P,U1,3,DPX*%
%TO.N,Net-(U1-DPX)*%
X140970000Y-73660000D03*
%TO.P,U1,4,c*%
%TO.N,Net-(U1-c)*%
X143510000Y-73660000D03*
%TO.P,U1,5,g*%
%TO.N,Net-(U1-g)*%
X146050000Y-73660000D03*
%TO.P,U1,6,CA4*%
%TO.N,Dig4*%
X148590000Y-73660000D03*
%TO.P,U1,7,b*%
%TO.N,Net-(U1-b)*%
X148590000Y-58420000D03*
%TO.P,U1,8,CA3*%
%TO.N,Dig3*%
X146050000Y-58420000D03*
%TO.P,U1,9,CA2*%
%TO.N,Dig2*%
X143510000Y-58420000D03*
%TO.P,U1,10,f*%
%TO.N,Net-(U1-f)*%
X140970000Y-58420000D03*
%TO.P,U1,11,a*%
%TO.N,Net-(U1-a)*%
X138430000Y-58420000D03*
%TO.P,U1,12,CA1*%
%TO.N,Dig1*%
X135890000Y-58420000D03*
%TD*%
D11*
%TO.P,J1,1,MISO*%
%TO.N,MISO*%
X165099999Y-100329999D03*
D12*
%TO.P,J1,2,VCC*%
%TO.N,+5V*%
X165099999Y-102869999D03*
%TO.P,J1,3,SCK*%
%TO.N,SCK*%
X162559999Y-100329999D03*
%TO.P,J1,4,MOSI*%
%TO.N,MOSI*%
X162559999Y-102869999D03*
%TO.P,J1,5,~{RST}*%
%TO.N,RST*%
X160019999Y-100329999D03*
%TO.P,J1,6,GND*%
%TO.N,GND*%
X160019999Y-102869999D03*
%TD*%
D17*
%TO.N,+5V*%
X146411428Y-113897881D03*
X144435060Y-113932104D03*
%TO.N,GND*%
X139606078Y-110628541D03*
X131147296Y-103191227D03*
X147426475Y-107528040D03*
X144772138Y-102488345D03*
X151914904Y-91041094D03*
X159982527Y-104545627D03*
X154731495Y-109974456D03*
X136860336Y-128322441D03*
X145560817Y-118077942D03*
X154758641Y-106836618D03*
X144047735Y-92993457D03*
X139453980Y-118076298D03*
X154803996Y-105261565D03*
X138327331Y-85054732D03*
X112425960Y-91378079D03*
X125613968Y-88408810D03*
X146401243Y-110943085D03*
X110455541Y-61628262D03*
X147332021Y-118053898D03*
X139070516Y-102661786D03*
X113085611Y-61642365D03*
X180340000Y-68580000D03*
X145996504Y-92473785D03*
X142335180Y-93017078D03*
X134061906Y-94077552D03*
X114896000Y-95295234D03*
X140504517Y-92981646D03*
X160813569Y-92820827D03*
X135119986Y-87995043D03*
X137732908Y-97092908D03*
X112551044Y-93961277D03*
X132612120Y-85354182D03*
X174441654Y-106349430D03*
X166059093Y-107642281D03*
X132487847Y-133368055D03*
%TO.N,XTAL2*%
X143510000Y-97790000D03*
X140970000Y-97790000D03*
%TO.N,MISO*%
X150474062Y-102647551D03*
%TO.N,SCK*%
X150525396Y-104337731D03*
%TO.N,TX*%
X122028372Y-88354383D03*
X132094922Y-95496971D03*
%TO.N,RX*%
X131516368Y-98845062D03*
X125798445Y-98888885D03*
%TO.N,Buzzer*%
X145748884Y-105374732D03*
X156586426Y-77697870D03*
%TO.N,Button_1*%
X141305513Y-102770994D03*
X131280663Y-127092446D03*
%TO.N,Button_2*%
X142388298Y-102683722D03*
X138878652Y-131848995D03*
%TO.N,RED_LED*%
X130174788Y-108526987D03*
X122403778Y-108526987D03*
%TO.N,GREEN_LED*%
X113030000Y-80010000D03*
X132926103Y-104804153D03*
%TO.N,a*%
X140970000Y-90170000D03*
X142085187Y-88483481D03*
%TO.N,Net-(U1-b)*%
X148821954Y-76941447D03*
X152400000Y-76200000D03*
%TO.N,Net-(U1-f)*%
X139700000Y-62230000D03*
X142240000Y-60960000D03*
%TO.N,Net-(U1-g)*%
X125883861Y-77036510D03*
X128302274Y-77019399D03*
%TO.N,Net-(U1-DPX)*%
X126454242Y-74091540D03*
X130412681Y-74256951D03*
%TO.N,Dig4*%
X148590000Y-71120000D03*
X146855280Y-105716960D03*
%TO.N,Dig3*%
X155017523Y-76943824D03*
X148572071Y-98652264D03*
%TO.N,Dig2*%
X135388968Y-105004500D03*
X143510000Y-60960000D03*
%TO.N,Dig1*%
X110855234Y-88068056D03*
X127952394Y-109887345D03*
X130246534Y-109880000D03*
X113030000Y-97790000D03*
%TO.N,ST_CP*%
X134441233Y-91576774D03*
X132979886Y-93105463D03*
%TD*%
D18*
%TO.N,+5V*%
X144435060Y-113932104D02*
X146377205Y-113932104D01*
X146377205Y-113932104D02*
X146411428Y-113897881D01*
D19*
%TO.N,XTAL2*%
X140970000Y-97790000D02*
X143510000Y-97790000D01*
%TO.N,MISO*%
X164009048Y-97420015D02*
X165100000Y-98510967D01*
X150474062Y-102647551D02*
X151352449Y-102647551D01*
X165100000Y-98510967D02*
X165100000Y-100330000D01*
X156579985Y-97420015D02*
X164009048Y-97420015D01*
X151352449Y-102647551D02*
X156579985Y-97420015D01*
%TO.N,SCK*%
X161861566Y-98113027D02*
X162560000Y-98811461D01*
X162560000Y-98811461D02*
X162560000Y-100330000D01*
X156750100Y-98113027D02*
X161861566Y-98113027D01*
X150525396Y-104337731D02*
X156750100Y-98113027D01*
%TO.N,TX*%
X127128194Y-86978721D02*
X129635157Y-89485684D01*
X129635157Y-93037206D02*
X132094922Y-95496971D01*
X123404034Y-86978721D02*
X127128194Y-86978721D01*
X129635157Y-89485684D02*
X129635157Y-93037206D01*
X122028372Y-88354383D02*
X123404034Y-86978721D01*
%TO.N,RX*%
X131516368Y-98845062D02*
X125842268Y-98845062D01*
X125842268Y-98845062D02*
X125798445Y-98888885D01*
%TO.N,Buzzer*%
X151130000Y-99060000D02*
X156586426Y-93603574D01*
X145748884Y-104441116D02*
X151130000Y-99060000D01*
X145748884Y-105374732D02*
X145748884Y-104441116D01*
X156586426Y-93603574D02*
X156586426Y-77697870D01*
%TO.N,Button_1*%
X139083466Y-124833740D02*
X132448516Y-124833740D01*
X141305513Y-102770994D02*
X141305513Y-122611693D01*
X131280663Y-126001593D02*
X131280663Y-127092446D01*
X141290838Y-122626368D02*
X139083466Y-124833740D01*
X132448516Y-124833740D02*
X131280663Y-126001593D01*
X141305513Y-122611693D02*
X141290838Y-122626368D01*
%TO.N,Button_2*%
X142357591Y-102714429D02*
X142357591Y-130146385D01*
X140654981Y-131848995D02*
X138878652Y-131848995D01*
X142357591Y-130146385D02*
X140654981Y-131848995D01*
X142388298Y-102683722D02*
X142357591Y-102714429D01*
%TO.N,RED_LED*%
X122400926Y-108524135D02*
X122403778Y-108526987D01*
X130174788Y-108526987D02*
X122403778Y-108526987D01*
%TO.N,GREEN_LED*%
X113030000Y-80010000D02*
X115621000Y-82601000D01*
X115621000Y-82601000D02*
X115621000Y-98144487D01*
X120374882Y-102898369D02*
X122280666Y-104804153D01*
X122280666Y-104804153D02*
X132926103Y-104804153D01*
X115621000Y-98144487D02*
X120374882Y-102898369D01*
%TO.N,a*%
X140970000Y-89598668D02*
X142085187Y-88483481D01*
X140970000Y-90170000D02*
X140970000Y-89598668D01*
%TO.N,Net-(U1-b)*%
X149563401Y-76200000D02*
X152400000Y-76200000D01*
X148821954Y-76941447D02*
X149563401Y-76200000D01*
%TO.N,Net-(U1-f)*%
X140970000Y-62230000D02*
X139700000Y-62230000D01*
X142240000Y-60960000D02*
X140970000Y-62230000D01*
%TO.N,Net-(U1-g)*%
X125900972Y-77019399D02*
X125883861Y-77036510D01*
X128302274Y-77019399D02*
X125900972Y-77019399D01*
%TO.N,Net-(U1-DPX)*%
X126619653Y-74256951D02*
X126454242Y-74091540D01*
X130412681Y-74256951D02*
X126619653Y-74256951D01*
%TO.N,Dig4*%
X148937551Y-70772449D02*
X148590000Y-71120000D01*
X152553480Y-70772449D02*
X148937551Y-70772449D01*
X146855280Y-104604720D02*
X149860000Y-101600000D01*
X157386882Y-75605851D02*
X152553480Y-70772449D01*
X157386882Y-93649610D02*
X157386882Y-75605851D01*
X149860000Y-101600000D02*
X157386882Y-94073118D01*
X157386882Y-94073118D02*
X157386882Y-93649610D01*
X146855280Y-105716960D02*
X146855280Y-104604720D01*
%TO.N,Dig3*%
X148572071Y-98652264D02*
X148572071Y-83389276D01*
X148572071Y-83389276D02*
X155017523Y-76943824D01*
%TO.N,Dig2*%
X135890000Y-77651018D02*
X135890000Y-104503468D01*
X132942608Y-74703626D02*
X135890000Y-77651018D01*
X132942608Y-72592650D02*
X132942608Y-74703626D01*
X143510000Y-60960000D02*
X142045000Y-62425000D01*
X142045000Y-62425000D02*
X142045000Y-63490258D01*
X135890000Y-104503468D02*
X135388968Y-105004500D01*
X142045000Y-63490258D02*
X132942608Y-72592650D01*
%TO.N,Dig1*%
X110855234Y-95615234D02*
X110855234Y-88068056D01*
X113030000Y-97790000D02*
X110855234Y-95615234D01*
X130246534Y-109880000D02*
X127959739Y-109880000D01*
X127959739Y-109880000D02*
X127952394Y-109887345D01*
%TO.N,ST_CP*%
X132979886Y-93038121D02*
X134441233Y-91576774D01*
X132979886Y-93105463D02*
X132979886Y-93038121D01*
%TD*%
%TA.AperFunction,Conductor*%
%TO.N,GND*%
G36*
X181606591Y-54619939D02*
G01*
X181646819Y-54646819D01*
X186653183Y-59653183D01*
X186680061Y-59693408D01*
X186689500Y-59740861D01*
X186689500Y-146047873D01*
X186689428Y-146052107D01*
X186678514Y-146371583D01*
X186678507Y-146371775D01*
X186671412Y-146570424D01*
X186670841Y-146578679D01*
X186641440Y-146864673D01*
X186641379Y-146865247D01*
X186616167Y-147099747D01*
X186615075Y-147107561D01*
X186567505Y-147383464D01*
X186567338Y-147384412D01*
X186561409Y-147417274D01*
X186549255Y-147452732D01*
X186527060Y-147482938D01*
X180502938Y-153507060D01*
X180472732Y-153529255D01*
X180437274Y-153541409D01*
X180404412Y-153547338D01*
X180403464Y-153547505D01*
X180127561Y-153595075D01*
X180119747Y-153596167D01*
X179885247Y-153621379D01*
X179884673Y-153621440D01*
X179598679Y-153650841D01*
X179590424Y-153651412D01*
X179391966Y-153658500D01*
X179391774Y-153658507D01*
X179072107Y-153669428D01*
X179067873Y-153669500D01*
X114342872Y-153669500D01*
X114301827Y-153662510D01*
X114265410Y-153642328D01*
X108143742Y-148744993D01*
X108115246Y-148712576D01*
X108099587Y-148672356D01*
X108072049Y-148533911D01*
X108071891Y-148533098D01*
X108025405Y-148287415D01*
X108024108Y-148278966D01*
X107997708Y-148055910D01*
X107969355Y-147804274D01*
X107968674Y-147795301D01*
X107966793Y-147747431D01*
X129679196Y-147747431D01*
X129679378Y-147750788D01*
X129698389Y-148101438D01*
X129698390Y-148101449D01*
X129698572Y-148104802D01*
X129699116Y-148108123D01*
X129699117Y-148108128D01*
X129755928Y-148454664D01*
X129755931Y-148454679D01*
X129756473Y-148457983D01*
X129852220Y-148802834D01*
X129984691Y-149135311D01*
X130152333Y-149451516D01*
X130353179Y-149747742D01*
X130584876Y-150020517D01*
X130587307Y-150022820D01*
X130587313Y-150022826D01*
X130606930Y-150041408D01*
X130844707Y-150266642D01*
X131129625Y-150483231D01*
X131436291Y-150667746D01*
X131761109Y-150818022D01*
X132100270Y-150932299D01*
X132449798Y-151009236D01*
X132805596Y-151047931D01*
X133160134Y-151047931D01*
X133163492Y-151047931D01*
X133519290Y-151009236D01*
X133868818Y-150932299D01*
X134207979Y-150818022D01*
X134532797Y-150667746D01*
X134839463Y-150483231D01*
X135124381Y-150266642D01*
X135384212Y-150020517D01*
X135615909Y-149747742D01*
X135816755Y-149451516D01*
X135984397Y-149135311D01*
X136116868Y-148802834D01*
X136212615Y-148457983D01*
X136270516Y-148104802D01*
X136274109Y-148038539D01*
X173713630Y-148038539D01*
X173713812Y-148041896D01*
X173732823Y-148392546D01*
X173732824Y-148392557D01*
X173733006Y-148395910D01*
X173733550Y-148399231D01*
X173733551Y-148399236D01*
X173790362Y-148745772D01*
X173790365Y-148745787D01*
X173790907Y-148749091D01*
X173791805Y-148752328D01*
X173791806Y-148752329D01*
X173884342Y-149085617D01*
X173886654Y-149093942D01*
X174019125Y-149426419D01*
X174186767Y-149742624D01*
X174387613Y-150038850D01*
X174389786Y-150041408D01*
X174582817Y-150268663D01*
X174619310Y-150311625D01*
X174621741Y-150313928D01*
X174621747Y-150313934D01*
X174759073Y-150444016D01*
X174879141Y-150557750D01*
X175164059Y-150774339D01*
X175470725Y-150958854D01*
X175795543Y-151109130D01*
X176134704Y-151223407D01*
X176484232Y-151300344D01*
X176840030Y-151339039D01*
X177194568Y-151339039D01*
X177197926Y-151339039D01*
X177553724Y-151300344D01*
X177903252Y-151223407D01*
X178242413Y-151109130D01*
X178567231Y-150958854D01*
X178873897Y-150774339D01*
X179158815Y-150557750D01*
X179418646Y-150311625D01*
X179650343Y-150038850D01*
X179851189Y-149742624D01*
X180018831Y-149426419D01*
X180151302Y-149093942D01*
X180247049Y-148749091D01*
X180304950Y-148395910D01*
X180324326Y-148038539D01*
X180304950Y-147681168D01*
X180247049Y-147327987D01*
X180151302Y-146983136D01*
X180018831Y-146650659D01*
X179851189Y-146334454D01*
X179650343Y-146038228D01*
X179418646Y-145765453D01*
X179416213Y-145763148D01*
X179416208Y-145763143D01*
X179161245Y-145521630D01*
X179158815Y-145519328D01*
X178873897Y-145302739D01*
X178871023Y-145301010D01*
X178871019Y-145301007D01*
X178570113Y-145119958D01*
X178570112Y-145119957D01*
X178567231Y-145118224D01*
X178564175Y-145116810D01*
X178245468Y-144969361D01*
X178245461Y-144969358D01*
X178242413Y-144967948D01*
X178153983Y-144938152D01*
X177906435Y-144854743D01*
X177906426Y-144854740D01*
X177903252Y-144853671D01*
X177899984Y-144852951D01*
X177899971Y-144852948D01*
X177557011Y-144777457D01*
X177557001Y-144777455D01*
X177553724Y-144776734D01*
X177197926Y-144738039D01*
X176840030Y-144738039D01*
X176836693Y-144738401D01*
X176836691Y-144738402D01*
X176487578Y-144776370D01*
X176487576Y-144776370D01*
X176484232Y-144776734D01*
X176480957Y-144777454D01*
X176480944Y-144777457D01*
X176137984Y-144852948D01*
X176137966Y-144852952D01*
X176134704Y-144853671D01*
X176131533Y-144854739D01*
X176131520Y-144854743D01*
X175798730Y-144966874D01*
X175798727Y-144966875D01*
X175795543Y-144967948D01*
X175792500Y-144969355D01*
X175792487Y-144969361D01*
X175473780Y-145116810D01*
X175473770Y-145116814D01*
X175470725Y-145118224D01*
X175467851Y-145119953D01*
X175467842Y-145119958D01*
X175166936Y-145301007D01*
X175166923Y-145301015D01*
X175164059Y-145302739D01*
X175161401Y-145304759D01*
X175161390Y-145304767D01*
X174881800Y-145517306D01*
X174881792Y-145517312D01*
X174879141Y-145519328D01*
X174876717Y-145521623D01*
X174876710Y-145521630D01*
X174621747Y-145763143D01*
X174621732Y-145763158D01*
X174619310Y-145765453D01*
X174617147Y-145767998D01*
X174617136Y-145768011D01*
X174389786Y-146035669D01*
X174389780Y-146035676D01*
X174387613Y-146038228D01*
X174385733Y-146041000D01*
X174385726Y-146041010D01*
X174188657Y-146331665D01*
X174188649Y-146331677D01*
X174186767Y-146334454D01*
X174185192Y-146337424D01*
X174185190Y-146337428D01*
X174020700Y-146647687D01*
X174020695Y-146647696D01*
X174019125Y-146650659D01*
X174017884Y-146653771D01*
X174017880Y-146653782D01*
X173947765Y-146829759D01*
X173886654Y-146983136D01*
X173885753Y-146986380D01*
X173885751Y-146986387D01*
X173792479Y-147322325D01*
X173790907Y-147327987D01*
X173790366Y-147331286D01*
X173790362Y-147331305D01*
X173733551Y-147677841D01*
X173733006Y-147681168D01*
X173732824Y-147684518D01*
X173732823Y-147684531D01*
X173726330Y-147804295D01*
X173713630Y-148038539D01*
X136274109Y-148038539D01*
X136289892Y-147747431D01*
X136270516Y-147390060D01*
X136212615Y-147036879D01*
X136116868Y-146692028D01*
X135984397Y-146359551D01*
X135816755Y-146043346D01*
X135615909Y-145747120D01*
X135422421Y-145519328D01*
X135386385Y-145476903D01*
X135386382Y-145476900D01*
X135384212Y-145474345D01*
X135381779Y-145472040D01*
X135381774Y-145472035D01*
X135126811Y-145230522D01*
X135124381Y-145228220D01*
X134839463Y-145011631D01*
X134836589Y-145009902D01*
X134836585Y-145009899D01*
X134535679Y-144828850D01*
X134535678Y-144828849D01*
X134532797Y-144827116D01*
X134529741Y-144825702D01*
X134211034Y-144678253D01*
X134211027Y-144678250D01*
X134207979Y-144676840D01*
X134119549Y-144647044D01*
X133872001Y-144563635D01*
X133871992Y-144563632D01*
X133868818Y-144562563D01*
X133865550Y-144561843D01*
X133865537Y-144561840D01*
X133522577Y-144486349D01*
X133522567Y-144486347D01*
X133519290Y-144485626D01*
X133163492Y-144446931D01*
X132805596Y-144446931D01*
X132802259Y-144447293D01*
X132802257Y-144447294D01*
X132453144Y-144485262D01*
X132453142Y-144485262D01*
X132449798Y-144485626D01*
X132446523Y-144486346D01*
X132446510Y-144486349D01*
X132103550Y-144561840D01*
X132103532Y-144561844D01*
X132100270Y-144562563D01*
X132097099Y-144563631D01*
X132097086Y-144563635D01*
X131764296Y-144675766D01*
X131764293Y-144675767D01*
X131761109Y-144676840D01*
X131758066Y-144678247D01*
X131758053Y-144678253D01*
X131439346Y-144825702D01*
X131439336Y-144825706D01*
X131436291Y-144827116D01*
X131433417Y-144828845D01*
X131433408Y-144828850D01*
X131132502Y-145009899D01*
X131132489Y-145009907D01*
X131129625Y-145011631D01*
X131126967Y-145013651D01*
X131126956Y-145013659D01*
X130847366Y-145226198D01*
X130847358Y-145226204D01*
X130844707Y-145228220D01*
X130842283Y-145230515D01*
X130842276Y-145230522D01*
X130587313Y-145472035D01*
X130587298Y-145472050D01*
X130584876Y-145474345D01*
X130582713Y-145476890D01*
X130582702Y-145476903D01*
X130355352Y-145744561D01*
X130355346Y-145744568D01*
X130353179Y-145747120D01*
X130351299Y-145749892D01*
X130351292Y-145749902D01*
X130154223Y-146040557D01*
X130154215Y-146040569D01*
X130152333Y-146043346D01*
X130150758Y-146046316D01*
X130150756Y-146046320D01*
X129986266Y-146356579D01*
X129986261Y-146356588D01*
X129984691Y-146359551D01*
X129983450Y-146362663D01*
X129983446Y-146362674D01*
X129853468Y-146688895D01*
X129852220Y-146692028D01*
X129851319Y-146695272D01*
X129851317Y-146695279D01*
X129770492Y-146986387D01*
X129756473Y-147036879D01*
X129755932Y-147040178D01*
X129755928Y-147040197D01*
X129699653Y-147383464D01*
X129698572Y-147390060D01*
X129698390Y-147393410D01*
X129698389Y-147393423D01*
X129693536Y-147482938D01*
X129679196Y-147747431D01*
X107966793Y-147747431D01*
X107960491Y-147587043D01*
X107950587Y-147322325D01*
X107950500Y-147317689D01*
X107950500Y-127092446D01*
X130375203Y-127092446D01*
X130375882Y-127098906D01*
X130394309Y-127274241D01*
X130394310Y-127274249D01*
X130394989Y-127280702D01*
X130396994Y-127286874D01*
X130396996Y-127286881D01*
X130451476Y-127454551D01*
X130453484Y-127460730D01*
X130548130Y-127624662D01*
X130674792Y-127765334D01*
X130827933Y-127876597D01*
X131000860Y-127953590D01*
X131186017Y-127992946D01*
X131368806Y-127992946D01*
X131375309Y-127992946D01*
X131560466Y-127953590D01*
X131733393Y-127876597D01*
X131886534Y-127765334D01*
X132013196Y-127624662D01*
X132107842Y-127460730D01*
X132166337Y-127280702D01*
X132186123Y-127092446D01*
X132166337Y-126904190D01*
X132107842Y-126724162D01*
X132013196Y-126560230D01*
X131938012Y-126476730D01*
X131914399Y-126438197D01*
X131906163Y-126393759D01*
X131906163Y-126312045D01*
X131915602Y-126264592D01*
X131942482Y-126224364D01*
X132671287Y-125495559D01*
X132711515Y-125468679D01*
X132758968Y-125459240D01*
X139005691Y-125459240D01*
X139016746Y-125459761D01*
X139024133Y-125461413D01*
X139091338Y-125459301D01*
X139095234Y-125459240D01*
X139118914Y-125459240D01*
X139122816Y-125459240D01*
X139126779Y-125458739D01*
X139138429Y-125457820D01*
X139182093Y-125456449D01*
X139201327Y-125450859D01*
X139220383Y-125446914D01*
X139240258Y-125444404D01*
X139280861Y-125428327D01*
X139291916Y-125424542D01*
X139333856Y-125412358D01*
X139351095Y-125402162D01*
X139368569Y-125393602D01*
X139379940Y-125389100D01*
X139379942Y-125389098D01*
X139387198Y-125386226D01*
X139422535Y-125360551D01*
X139432290Y-125354143D01*
X139469886Y-125331910D01*
X139484050Y-125317745D01*
X139498845Y-125305108D01*
X139515053Y-125293334D01*
X139542894Y-125259678D01*
X139550745Y-125251049D01*
X141520409Y-123281386D01*
X141569773Y-123251136D01*
X141627489Y-123246594D01*
X141680976Y-123268749D01*
X141718576Y-123312772D01*
X141732091Y-123369067D01*
X141732091Y-129835932D01*
X141722652Y-129883385D01*
X141695772Y-129923613D01*
X140432209Y-131187176D01*
X140391981Y-131214056D01*
X140344528Y-131223495D01*
X139582400Y-131223495D01*
X139531967Y-131212776D01*
X139493870Y-131185099D01*
X139493702Y-131185286D01*
X139491923Y-131183684D01*
X139490253Y-131182471D01*
X139484523Y-131176107D01*
X139479265Y-131172287D01*
X139479263Y-131172285D01*
X139336640Y-131068664D01*
X139336639Y-131068663D01*
X139331382Y-131064844D01*
X139325444Y-131062200D01*
X139164397Y-130990496D01*
X139164392Y-130990494D01*
X139158455Y-130987851D01*
X139152096Y-130986499D01*
X139152092Y-130986498D01*
X138979660Y-130949847D01*
X138979657Y-130949846D01*
X138973298Y-130948495D01*
X138784006Y-130948495D01*
X138777647Y-130949846D01*
X138777643Y-130949847D01*
X138605211Y-130986498D01*
X138605204Y-130986500D01*
X138598849Y-130987851D01*
X138592914Y-130990493D01*
X138592906Y-130990496D01*
X138431859Y-131062200D01*
X138431854Y-131062202D01*
X138425922Y-131064844D01*
X138420668Y-131068660D01*
X138420663Y-131068664D01*
X138278040Y-131172285D01*
X138278033Y-131172290D01*
X138272781Y-131176107D01*
X138268436Y-131180932D01*
X138268431Y-131180937D01*
X138150465Y-131311951D01*
X138150460Y-131311957D01*
X138146119Y-131316779D01*
X138142874Y-131322399D01*
X138142870Y-131322405D01*
X138054721Y-131475084D01*
X138054718Y-131475089D01*
X138051473Y-131480711D01*
X138049467Y-131486883D01*
X138049465Y-131486889D01*
X137994985Y-131654559D01*
X137994983Y-131654568D01*
X137992978Y-131660739D01*
X137992300Y-131667189D01*
X137992298Y-131667199D01*
X137974614Y-131835459D01*
X137973192Y-131848995D01*
X137973871Y-131855455D01*
X137992298Y-132030790D01*
X137992299Y-132030798D01*
X137992978Y-132037251D01*
X137994983Y-132043423D01*
X137994985Y-132043430D01*
X138049465Y-132211100D01*
X138051473Y-132217279D01*
X138054720Y-132222903D01*
X138054721Y-132222905D01*
X138126462Y-132347165D01*
X138146119Y-132381211D01*
X138150463Y-132386036D01*
X138150465Y-132386038D01*
X138232069Y-132476668D01*
X138272781Y-132521883D01*
X138425922Y-132633146D01*
X138598849Y-132710139D01*
X138784006Y-132749495D01*
X138966795Y-132749495D01*
X138973298Y-132749495D01*
X139158455Y-132710139D01*
X139331382Y-132633146D01*
X139484523Y-132521883D01*
X139490253Y-132515518D01*
X139491923Y-132514305D01*
X139493702Y-132512704D01*
X139493870Y-132512890D01*
X139531967Y-132485214D01*
X139582400Y-132474495D01*
X140577206Y-132474495D01*
X140588261Y-132475016D01*
X140595648Y-132476668D01*
X140662853Y-132474556D01*
X140666749Y-132474495D01*
X140690429Y-132474495D01*
X140694331Y-132474495D01*
X140698294Y-132473994D01*
X140709944Y-132473075D01*
X140753608Y-132471704D01*
X140772842Y-132466114D01*
X140791898Y-132462169D01*
X140811773Y-132459659D01*
X140852376Y-132443582D01*
X140863431Y-132439797D01*
X140905371Y-132427613D01*
X140922610Y-132417417D01*
X140940084Y-132408857D01*
X140951455Y-132404355D01*
X140951457Y-132404353D01*
X140958713Y-132401481D01*
X140994050Y-132375806D01*
X141003805Y-132369398D01*
X141041401Y-132347165D01*
X141055565Y-132333000D01*
X141070360Y-132320363D01*
X141086568Y-132308589D01*
X141114409Y-132274933D01*
X141122260Y-132266304D01*
X142744902Y-130643663D01*
X142753072Y-130636229D01*
X142759468Y-130632171D01*
X142805509Y-130583141D01*
X142808126Y-130580439D01*
X142827711Y-130560856D01*
X142830176Y-130557677D01*
X142837758Y-130548801D01*
X142867653Y-130516967D01*
X142877304Y-130499408D01*
X142887981Y-130483155D01*
X142900264Y-130467321D01*
X142917609Y-130427237D01*
X142922742Y-130416756D01*
X142943788Y-130378477D01*
X142948770Y-130359069D01*
X142955073Y-130340661D01*
X142963028Y-130322281D01*
X142969862Y-130279129D01*
X142972224Y-130267723D01*
X142983091Y-130225404D01*
X142983091Y-130205368D01*
X142984618Y-130185970D01*
X142986530Y-130173898D01*
X142986529Y-130173898D01*
X142987751Y-130166189D01*
X142983641Y-130122709D01*
X142983091Y-130111040D01*
X142983091Y-113932104D01*
X143529600Y-113932104D01*
X143530279Y-113938564D01*
X143548706Y-114113899D01*
X143548707Y-114113907D01*
X143549386Y-114120360D01*
X143551391Y-114126532D01*
X143551393Y-114126539D01*
X143596761Y-114266165D01*
X143607881Y-114300388D01*
X143611128Y-114306012D01*
X143611129Y-114306014D01*
X143679519Y-114424470D01*
X143702527Y-114464320D01*
X143706871Y-114469145D01*
X143706873Y-114469147D01*
X143794129Y-114566054D01*
X143829189Y-114604992D01*
X143982330Y-114716255D01*
X144155257Y-114793248D01*
X144340414Y-114832604D01*
X144523203Y-114832604D01*
X144529706Y-114832604D01*
X144714863Y-114793248D01*
X144887790Y-114716255D01*
X145040931Y-114604992D01*
X145067727Y-114575231D01*
X145109442Y-114544924D01*
X145159877Y-114534204D01*
X145718364Y-114534204D01*
X145762802Y-114542440D01*
X145801281Y-114566020D01*
X145805557Y-114570769D01*
X145958698Y-114682032D01*
X146131625Y-114759025D01*
X146316782Y-114798381D01*
X146499571Y-114798381D01*
X146506074Y-114798381D01*
X146691231Y-114759025D01*
X146864158Y-114682032D01*
X147017299Y-114570769D01*
X147143961Y-114430097D01*
X147238607Y-114266165D01*
X147297102Y-114086137D01*
X147316888Y-113897881D01*
X147297102Y-113709625D01*
X147238607Y-113529597D01*
X147143961Y-113365665D01*
X147017299Y-113224993D01*
X147012040Y-113221172D01*
X147012039Y-113221171D01*
X146869416Y-113117550D01*
X146869415Y-113117549D01*
X146864158Y-113113730D01*
X146858220Y-113111086D01*
X146697173Y-113039382D01*
X146697168Y-113039380D01*
X146691231Y-113036737D01*
X146684872Y-113035385D01*
X146684868Y-113035384D01*
X146512436Y-112998733D01*
X146512433Y-112998732D01*
X146506074Y-112997381D01*
X146316782Y-112997381D01*
X146310423Y-112998732D01*
X146310419Y-112998733D01*
X146137987Y-113035384D01*
X146137980Y-113035386D01*
X146131625Y-113036737D01*
X146125690Y-113039379D01*
X146125682Y-113039382D01*
X145964635Y-113111086D01*
X145964630Y-113111088D01*
X145958698Y-113113730D01*
X145953444Y-113117546D01*
X145953439Y-113117550D01*
X145810815Y-113221172D01*
X145810810Y-113221176D01*
X145805557Y-113224993D01*
X145801213Y-113229816D01*
X145801210Y-113229820D01*
X145747945Y-113288977D01*
X145706230Y-113319284D01*
X145655795Y-113330004D01*
X145159877Y-113330004D01*
X145109442Y-113319284D01*
X145067727Y-113288976D01*
X145045280Y-113264046D01*
X145045279Y-113264045D01*
X145040931Y-113259216D01*
X145035673Y-113255396D01*
X145035671Y-113255394D01*
X144893048Y-113151773D01*
X144893047Y-113151772D01*
X144887790Y-113147953D01*
X144819505Y-113117550D01*
X144720805Y-113073605D01*
X144720800Y-113073603D01*
X144714863Y-113070960D01*
X144708504Y-113069608D01*
X144708500Y-113069607D01*
X144536068Y-113032956D01*
X144536065Y-113032955D01*
X144529706Y-113031604D01*
X144340414Y-113031604D01*
X144334055Y-113032955D01*
X144334051Y-113032956D01*
X144161619Y-113069607D01*
X144161612Y-113069609D01*
X144155257Y-113070960D01*
X144149322Y-113073602D01*
X144149314Y-113073605D01*
X143988267Y-113145309D01*
X143988262Y-113145311D01*
X143982330Y-113147953D01*
X143977076Y-113151769D01*
X143977071Y-113151773D01*
X143834448Y-113255394D01*
X143834441Y-113255399D01*
X143829189Y-113259216D01*
X143824844Y-113264041D01*
X143824839Y-113264046D01*
X143706873Y-113395060D01*
X143706868Y-113395066D01*
X143702527Y-113399888D01*
X143699282Y-113405508D01*
X143699278Y-113405514D01*
X143611129Y-113558193D01*
X143611126Y-113558198D01*
X143607881Y-113563820D01*
X143605875Y-113569992D01*
X143605873Y-113569998D01*
X143551393Y-113737668D01*
X143551391Y-113737677D01*
X143549386Y-113743848D01*
X143548708Y-113750298D01*
X143548706Y-113750308D01*
X143533876Y-113891421D01*
X143529600Y-113932104D01*
X142983091Y-113932104D01*
X142983091Y-110193935D01*
X178315669Y-110193935D01*
X178346135Y-110366711D01*
X178348996Y-110373345D01*
X178348997Y-110373346D01*
X178365764Y-110412216D01*
X178415623Y-110527804D01*
X178419936Y-110533597D01*
X178419937Y-110533599D01*
X178442610Y-110564054D01*
X178520390Y-110668530D01*
X178654786Y-110781302D01*
X178811567Y-110860040D01*
X178982279Y-110900500D01*
X179110111Y-110900500D01*
X179113709Y-110900500D01*
X179244255Y-110885241D01*
X179409117Y-110825237D01*
X179555696Y-110728830D01*
X179676092Y-110601218D01*
X179763812Y-110449281D01*
X179814130Y-110281210D01*
X179824331Y-110106065D01*
X179793865Y-109933289D01*
X179724377Y-109772196D01*
X179619610Y-109631470D01*
X179547747Y-109571170D01*
X179490745Y-109523339D01*
X179490744Y-109523338D01*
X179485214Y-109518698D01*
X179478763Y-109515458D01*
X179334883Y-109443199D01*
X179334880Y-109443198D01*
X179328433Y-109439960D01*
X179321407Y-109438294D01*
X179321405Y-109438294D01*
X179164749Y-109401165D01*
X179164743Y-109401164D01*
X179157721Y-109399500D01*
X179026291Y-109399500D01*
X179022725Y-109399916D01*
X179022721Y-109399917D01*
X178902915Y-109413920D01*
X178902907Y-109413921D01*
X178895745Y-109414759D01*
X178888967Y-109417225D01*
X178888958Y-109417228D01*
X178737674Y-109472291D01*
X178737671Y-109472292D01*
X178730883Y-109474763D01*
X178724850Y-109478730D01*
X178724842Y-109478735D01*
X178590340Y-109567199D01*
X178590334Y-109567203D01*
X178584304Y-109571170D01*
X178579351Y-109576419D01*
X178579346Y-109576424D01*
X178468865Y-109693527D01*
X178468861Y-109693531D01*
X178463908Y-109698782D01*
X178460299Y-109705032D01*
X178460296Y-109705037D01*
X178379799Y-109844463D01*
X178379796Y-109844468D01*
X178376188Y-109850719D01*
X178374117Y-109857634D01*
X178374117Y-109857636D01*
X178327941Y-110011869D01*
X178327939Y-110011877D01*
X178325870Y-110018790D01*
X178325450Y-110025996D01*
X178325449Y-110026004D01*
X178316088Y-110186725D01*
X178316088Y-110186733D01*
X178315669Y-110193935D01*
X142983091Y-110193935D01*
X142983091Y-105374732D01*
X144843424Y-105374732D01*
X144844103Y-105381192D01*
X144862530Y-105556527D01*
X144862531Y-105556535D01*
X144863210Y-105562988D01*
X144865215Y-105569160D01*
X144865217Y-105569167D01*
X144919697Y-105736837D01*
X144921705Y-105743016D01*
X144924952Y-105748640D01*
X144924953Y-105748642D01*
X144997325Y-105873995D01*
X145016351Y-105906948D01*
X145020695Y-105911773D01*
X145020697Y-105911775D01*
X145138663Y-106042789D01*
X145143013Y-106047620D01*
X145148271Y-106051440D01*
X145148272Y-106051441D01*
X145194798Y-106085244D01*
X145296154Y-106158883D01*
X145469081Y-106235876D01*
X145654238Y-106275232D01*
X145837027Y-106275232D01*
X145843530Y-106275232D01*
X146027561Y-106236115D01*
X146091657Y-106239474D01*
X146145487Y-106274432D01*
X146194468Y-106328830D01*
X146244630Y-106384541D01*
X146249409Y-106389848D01*
X146402550Y-106501111D01*
X146575477Y-106578104D01*
X146760634Y-106617460D01*
X146943423Y-106617460D01*
X146949926Y-106617460D01*
X147135083Y-106578104D01*
X147308010Y-106501111D01*
X147461151Y-106389848D01*
X147587813Y-106249176D01*
X147682459Y-106085244D01*
X147740954Y-105905216D01*
X147752650Y-105793935D01*
X178315669Y-105793935D01*
X178346135Y-105966711D01*
X178415623Y-106127804D01*
X178419936Y-106133597D01*
X178419937Y-106133599D01*
X178501792Y-106243549D01*
X178520390Y-106268530D01*
X178654786Y-106381302D01*
X178811567Y-106460040D01*
X178982279Y-106500500D01*
X179110111Y-106500500D01*
X179113709Y-106500500D01*
X179244255Y-106485241D01*
X179409117Y-106425237D01*
X179555696Y-106328830D01*
X179676092Y-106201218D01*
X179763812Y-106049281D01*
X179814130Y-105881210D01*
X179824331Y-105706065D01*
X179793865Y-105533289D01*
X179724377Y-105372196D01*
X179619610Y-105231470D01*
X179580836Y-105198935D01*
X179490745Y-105123339D01*
X179490744Y-105123338D01*
X179485214Y-105118698D01*
X179392810Y-105072291D01*
X179334883Y-105043199D01*
X179334880Y-105043198D01*
X179328433Y-105039960D01*
X179321407Y-105038294D01*
X179321405Y-105038294D01*
X179164749Y-105001165D01*
X179164743Y-105001164D01*
X179157721Y-104999500D01*
X179026291Y-104999500D01*
X179022725Y-104999916D01*
X179022721Y-104999917D01*
X178902915Y-105013920D01*
X178902907Y-105013921D01*
X178895745Y-105014759D01*
X178888967Y-105017225D01*
X178888958Y-105017228D01*
X178737674Y-105072291D01*
X178737671Y-105072292D01*
X178730883Y-105074763D01*
X178724850Y-105078730D01*
X178724842Y-105078735D01*
X178590340Y-105167199D01*
X178590334Y-105167203D01*
X178584304Y-105171170D01*
X178579351Y-105176419D01*
X178579346Y-105176424D01*
X178468865Y-105293527D01*
X178468861Y-105293531D01*
X178463908Y-105298782D01*
X178460299Y-105305032D01*
X178460296Y-105305037D01*
X178379799Y-105444463D01*
X178379796Y-105444468D01*
X178376188Y-105450719D01*
X178374117Y-105457634D01*
X178374117Y-105457636D01*
X178327941Y-105611869D01*
X178327939Y-105611877D01*
X178325870Y-105618790D01*
X178325450Y-105625996D01*
X178325449Y-105626004D01*
X178316088Y-105786725D01*
X178316088Y-105786733D01*
X178315669Y-105793935D01*
X147752650Y-105793935D01*
X147760740Y-105716960D01*
X147740954Y-105528704D01*
X147682459Y-105348676D01*
X147587813Y-105184744D01*
X147581797Y-105178063D01*
X147527771Y-105118061D01*
X147512629Y-105101244D01*
X147489016Y-105062711D01*
X147480780Y-105018273D01*
X147480780Y-104915172D01*
X147490219Y-104867719D01*
X147517099Y-104827491D01*
X147990046Y-104354544D01*
X149425785Y-102918803D01*
X149479805Y-102887142D01*
X149542411Y-102885912D01*
X149597635Y-102915430D01*
X149631394Y-102968167D01*
X149646883Y-103015835D01*
X149650130Y-103021459D01*
X149650131Y-103021461D01*
X149718152Y-103139278D01*
X149741529Y-103179767D01*
X149745873Y-103184592D01*
X149745875Y-103184594D01*
X149778444Y-103220765D01*
X149868191Y-103320439D01*
X149873449Y-103324259D01*
X149873450Y-103324260D01*
X149992798Y-103410971D01*
X150030398Y-103454994D01*
X150043913Y-103511289D01*
X150030398Y-103567584D01*
X149992798Y-103611607D01*
X149924784Y-103661021D01*
X149924777Y-103661026D01*
X149919525Y-103664843D01*
X149915180Y-103669668D01*
X149915175Y-103669673D01*
X149797209Y-103800687D01*
X149797204Y-103800693D01*
X149792863Y-103805515D01*
X149789618Y-103811135D01*
X149789614Y-103811141D01*
X149701465Y-103963820D01*
X149701462Y-103963825D01*
X149698217Y-103969447D01*
X149696211Y-103975619D01*
X149696209Y-103975625D01*
X149641729Y-104143295D01*
X149641727Y-104143304D01*
X149639722Y-104149475D01*
X149639044Y-104155925D01*
X149639042Y-104155935D01*
X149623023Y-104308357D01*
X149619936Y-104337731D01*
X149620615Y-104344191D01*
X149639042Y-104519526D01*
X149639043Y-104519534D01*
X149639722Y-104525987D01*
X149641727Y-104532159D01*
X149641729Y-104532166D01*
X149696209Y-104699836D01*
X149698217Y-104706015D01*
X149701464Y-104711639D01*
X149701465Y-104711641D01*
X149777025Y-104842516D01*
X149792863Y-104869947D01*
X149797207Y-104874772D01*
X149797209Y-104874774D01*
X149914015Y-105004500D01*
X149919525Y-105010619D01*
X149924783Y-105014439D01*
X149924784Y-105014440D01*
X149964368Y-105043199D01*
X150072666Y-105121882D01*
X150245593Y-105198875D01*
X150430750Y-105238231D01*
X150613539Y-105238231D01*
X150620042Y-105238231D01*
X150805199Y-105198875D01*
X150978126Y-105121882D01*
X151131267Y-105010619D01*
X151257929Y-104869947D01*
X151352575Y-104706015D01*
X151411070Y-104525987D01*
X151428717Y-104358075D01*
X151440117Y-104317656D01*
X151464354Y-104283361D01*
X152625164Y-103122551D01*
X158692688Y-103122551D01*
X158693056Y-103133780D01*
X158745168Y-103328263D01*
X158748856Y-103338397D01*
X158844113Y-103542676D01*
X158849501Y-103552008D01*
X158978784Y-103736643D01*
X158985721Y-103744909D01*
X159145090Y-103904278D01*
X159153356Y-103911215D01*
X159337991Y-104040498D01*
X159347323Y-104045886D01*
X159551602Y-104141143D01*
X159561736Y-104144831D01*
X159756219Y-104196943D01*
X159767448Y-104197311D01*
X159770000Y-104186369D01*
X159770000Y-103136326D01*
X159766549Y-103123450D01*
X159753674Y-103120000D01*
X158703631Y-103120000D01*
X158692688Y-103122551D01*
X152625164Y-103122551D01*
X156972871Y-98774846D01*
X157013100Y-98747966D01*
X157060553Y-98738527D01*
X159875303Y-98738527D01*
X159935735Y-98754249D01*
X159980841Y-98797430D01*
X159999185Y-98857118D01*
X159986114Y-98918178D01*
X159944942Y-98965125D01*
X159886111Y-98986055D01*
X159789982Y-98994465D01*
X159789977Y-98994465D01*
X159784592Y-98994937D01*
X159779371Y-98996335D01*
X159779365Y-98996337D01*
X159561569Y-99054694D01*
X159561557Y-99054698D01*
X159556337Y-99056097D01*
X159551432Y-99058383D01*
X159551427Y-99058386D01*
X159347081Y-99153675D01*
X159347077Y-99153677D01*
X159342171Y-99155965D01*
X159337738Y-99159068D01*
X159337731Y-99159073D01*
X159153034Y-99288399D01*
X159153029Y-99288402D01*
X159148599Y-99291505D01*
X159144775Y-99295328D01*
X159144769Y-99295334D01*
X158985334Y-99454769D01*
X158985328Y-99454775D01*
X158981505Y-99458599D01*
X158978402Y-99463029D01*
X158978399Y-99463034D01*
X158849073Y-99647731D01*
X158849068Y-99647738D01*
X158845965Y-99652171D01*
X158843677Y-99657077D01*
X158843675Y-99657081D01*
X158748386Y-99861427D01*
X158748383Y-99861432D01*
X158746097Y-99866337D01*
X158744698Y-99871557D01*
X158744694Y-99871569D01*
X158686337Y-100089365D01*
X158686335Y-100089371D01*
X158684937Y-100094592D01*
X158664341Y-100330000D01*
X158684937Y-100565408D01*
X158686336Y-100570630D01*
X158686337Y-100570634D01*
X158744694Y-100788430D01*
X158744697Y-100788438D01*
X158746097Y-100793663D01*
X158748385Y-100798570D01*
X158748386Y-100798572D01*
X158843678Y-101002927D01*
X158843681Y-101002933D01*
X158845965Y-101007830D01*
X158849064Y-101012257D01*
X158849066Y-101012259D01*
X158978399Y-101196966D01*
X158978402Y-101196970D01*
X158981505Y-101201401D01*
X159148599Y-101368495D01*
X159153031Y-101371598D01*
X159153033Y-101371600D01*
X159334595Y-101498731D01*
X159373460Y-101543049D01*
X159387471Y-101600306D01*
X159373460Y-101657563D01*
X159334595Y-101701881D01*
X159153352Y-101828788D01*
X159145092Y-101835719D01*
X158985719Y-101995092D01*
X158978784Y-102003357D01*
X158849508Y-102187982D01*
X158844110Y-102197332D01*
X158748856Y-102401602D01*
X158745168Y-102411736D01*
X158693056Y-102606219D01*
X158692688Y-102617448D01*
X158703631Y-102620000D01*
X160146000Y-102620000D01*
X160208000Y-102636613D01*
X160253387Y-102682000D01*
X160270000Y-102744000D01*
X160270000Y-104186369D01*
X160272551Y-104197311D01*
X160283780Y-104196943D01*
X160478263Y-104144831D01*
X160488397Y-104141143D01*
X160692676Y-104045886D01*
X160702008Y-104040498D01*
X160886643Y-103911215D01*
X160894909Y-103904278D01*
X161054278Y-103744909D01*
X161061219Y-103736638D01*
X161188119Y-103555406D01*
X161232437Y-103516540D01*
X161289694Y-103502529D01*
X161346951Y-103516540D01*
X161391269Y-103555405D01*
X161518399Y-103736966D01*
X161518402Y-103736970D01*
X161521505Y-103741401D01*
X161688599Y-103908495D01*
X161693031Y-103911598D01*
X161693033Y-103911600D01*
X161750282Y-103951686D01*
X161882170Y-104044035D01*
X162096337Y-104143903D01*
X162324592Y-104205063D01*
X162560000Y-104225659D01*
X162795408Y-104205063D01*
X163023663Y-104143903D01*
X163237830Y-104044035D01*
X163431401Y-103908495D01*
X163598495Y-103741401D01*
X163728424Y-103555842D01*
X163772743Y-103516976D01*
X163830000Y-103502965D01*
X163887257Y-103516976D01*
X163931575Y-103555842D01*
X164058395Y-103736961D01*
X164058401Y-103736968D01*
X164061505Y-103741401D01*
X164228599Y-103908495D01*
X164233031Y-103911598D01*
X164233033Y-103911600D01*
X164290282Y-103951686D01*
X164422170Y-104044035D01*
X164636337Y-104143903D01*
X164864592Y-104205063D01*
X165100000Y-104225659D01*
X165335408Y-104205063D01*
X165563663Y-104143903D01*
X165777830Y-104044035D01*
X165971401Y-103908495D01*
X166138495Y-103741401D01*
X166274035Y-103547830D01*
X166373903Y-103333663D01*
X166435063Y-103105408D01*
X166455659Y-102870000D01*
X166435063Y-102634592D01*
X166373903Y-102406337D01*
X166274035Y-102192171D01*
X166138495Y-101998599D01*
X166016569Y-101876672D01*
X165985273Y-101823927D01*
X165983084Y-101762634D01*
X166010537Y-101707789D01*
X166060916Y-101672810D01*
X166192331Y-101623796D01*
X166307546Y-101537546D01*
X166393796Y-101422331D01*
X166444091Y-101287483D01*
X166450500Y-101227873D01*
X166450499Y-99432128D01*
X166444091Y-99372517D01*
X166393796Y-99237669D01*
X166307546Y-99122454D01*
X166217030Y-99054694D01*
X166199431Y-99041519D01*
X166199430Y-99041518D01*
X166192331Y-99036204D01*
X166085442Y-98996337D01*
X166064752Y-98988620D01*
X166064750Y-98988619D01*
X166057483Y-98985909D01*
X166049770Y-98985079D01*
X166049767Y-98985079D01*
X166001180Y-98979855D01*
X166001169Y-98979854D01*
X165997873Y-98979500D01*
X165994551Y-98979500D01*
X165849500Y-98979500D01*
X165787500Y-98962887D01*
X165742113Y-98917500D01*
X165725500Y-98855500D01*
X165725500Y-98588739D01*
X165726020Y-98577686D01*
X165727672Y-98570300D01*
X165725561Y-98503112D01*
X165725500Y-98499218D01*
X165725500Y-98475512D01*
X165725500Y-98471617D01*
X165724998Y-98467648D01*
X165724080Y-98455991D01*
X165724034Y-98454529D01*
X165722709Y-98412340D01*
X165717120Y-98393107D01*
X165713174Y-98374050D01*
X165711641Y-98361911D01*
X165710664Y-98354175D01*
X165694582Y-98313558D01*
X165690803Y-98302518D01*
X165680795Y-98268069D01*
X165680793Y-98268066D01*
X165678618Y-98260577D01*
X165674647Y-98253863D01*
X165674645Y-98253858D01*
X165668421Y-98243335D01*
X165659858Y-98225857D01*
X165652486Y-98207235D01*
X165647902Y-98200926D01*
X165647899Y-98200920D01*
X165626817Y-98171904D01*
X165620401Y-98162137D01*
X165602143Y-98131263D01*
X165602140Y-98131259D01*
X165598170Y-98124546D01*
X165584006Y-98110382D01*
X165571368Y-98095585D01*
X165564184Y-98085696D01*
X165564178Y-98085690D01*
X165559594Y-98079380D01*
X165525946Y-98051544D01*
X165517305Y-98043681D01*
X164506334Y-97032710D01*
X164498890Y-97024529D01*
X164494834Y-97018138D01*
X164445823Y-96972113D01*
X164443026Y-96969402D01*
X164426275Y-96952651D01*
X164426274Y-96952650D01*
X164423519Y-96949895D01*
X164420338Y-96947427D01*
X164411462Y-96939845D01*
X164385317Y-96915293D01*
X164385315Y-96915291D01*
X164379630Y-96909953D01*
X164372797Y-96906197D01*
X164372791Y-96906192D01*
X164362073Y-96900300D01*
X164345814Y-96889621D01*
X164336143Y-96882119D01*
X164336140Y-96882117D01*
X164329984Y-96877342D01*
X164322827Y-96874244D01*
X164322824Y-96874243D01*
X164289897Y-96859993D01*
X164279411Y-96854856D01*
X164247980Y-96837577D01*
X164247971Y-96837573D01*
X164241140Y-96833818D01*
X164233583Y-96831877D01*
X164233579Y-96831876D01*
X164221736Y-96828835D01*
X164203332Y-96822534D01*
X164192105Y-96817675D01*
X164192098Y-96817673D01*
X164184944Y-96814577D01*
X164177240Y-96813356D01*
X164177238Y-96813356D01*
X164141807Y-96807744D01*
X164130372Y-96805376D01*
X164095619Y-96796453D01*
X164095611Y-96796452D01*
X164088067Y-96794515D01*
X164080271Y-96794515D01*
X164068031Y-96794515D01*
X164048645Y-96792989D01*
X164028852Y-96789855D01*
X164021086Y-96790589D01*
X164021083Y-96790589D01*
X163985372Y-96793965D01*
X163973703Y-96794515D01*
X156657756Y-96794515D01*
X156646703Y-96793994D01*
X156639317Y-96792343D01*
X156631519Y-96792588D01*
X156572129Y-96794454D01*
X156568235Y-96794515D01*
X156540635Y-96794515D01*
X156536784Y-96795001D01*
X156536753Y-96795003D01*
X156536625Y-96795020D01*
X156525014Y-96795933D01*
X156489152Y-96797060D01*
X156489144Y-96797061D01*
X156481358Y-96797306D01*
X156473870Y-96799481D01*
X156473871Y-96799481D01*
X156462119Y-96802895D01*
X156443080Y-96806837D01*
X156430933Y-96808372D01*
X156430925Y-96808373D01*
X156423193Y-96809351D01*
X156415947Y-96812219D01*
X156415942Y-96812221D01*
X156382570Y-96825434D01*
X156371524Y-96829215D01*
X156364033Y-96831392D01*
X156337079Y-96839223D01*
X156337074Y-96839224D01*
X156329595Y-96841398D01*
X156322893Y-96845361D01*
X156322882Y-96845366D01*
X156312349Y-96851596D01*
X156294885Y-96860151D01*
X156283509Y-96864655D01*
X156283502Y-96864658D01*
X156276253Y-96867529D01*
X156269947Y-96872109D01*
X156269942Y-96872113D01*
X156240912Y-96893204D01*
X156231154Y-96899613D01*
X156200283Y-96917871D01*
X156193564Y-96921845D01*
X156188048Y-96927359D01*
X156188041Y-96927366D01*
X156179392Y-96936015D01*
X156164609Y-96948641D01*
X156154712Y-96955832D01*
X156154705Y-96955838D01*
X156148398Y-96960421D01*
X156143431Y-96966423D01*
X156143420Y-96966435D01*
X156120555Y-96994074D01*
X156112695Y-97002712D01*
X151190041Y-101925366D01*
X151140678Y-101955616D01*
X151082962Y-101960158D01*
X151029475Y-101938003D01*
X150932050Y-101867220D01*
X150932049Y-101867219D01*
X150926792Y-101863400D01*
X150864625Y-101835721D01*
X150783287Y-101799506D01*
X150736343Y-101762994D01*
X150711799Y-101708824D01*
X150715301Y-101649456D01*
X150746040Y-101598548D01*
X157774188Y-94570400D01*
X157782364Y-94562961D01*
X157788759Y-94558904D01*
X157834815Y-94509858D01*
X157837432Y-94507156D01*
X157857002Y-94487588D01*
X157859447Y-94484434D01*
X157867037Y-94475546D01*
X157896944Y-94443700D01*
X157906591Y-94426150D01*
X157917275Y-94409884D01*
X157929556Y-94394054D01*
X157946900Y-94353969D01*
X157952042Y-94343474D01*
X157973079Y-94305210D01*
X157978061Y-94285807D01*
X157984362Y-94267401D01*
X157992320Y-94249013D01*
X157999151Y-94205874D01*
X158001521Y-94194433D01*
X158010442Y-94159692D01*
X158010441Y-94159692D01*
X158012382Y-94152137D01*
X158012382Y-94132101D01*
X158013907Y-94112715D01*
X158017042Y-94092922D01*
X158012932Y-94049442D01*
X158012382Y-94037773D01*
X158012382Y-79162679D01*
X173495413Y-79162679D01*
X173495595Y-79166036D01*
X173514606Y-79516686D01*
X173514607Y-79516697D01*
X173514789Y-79520050D01*
X173515333Y-79523371D01*
X173515334Y-79523376D01*
X173572145Y-79869912D01*
X173572148Y-79869927D01*
X173572690Y-79873231D01*
X173573588Y-79876468D01*
X173573589Y-79876469D01*
X173616236Y-80030072D01*
X173668437Y-80218082D01*
X173800908Y-80550559D01*
X173968550Y-80866764D01*
X173970437Y-80869547D01*
X173970440Y-80869552D01*
X174167509Y-81160207D01*
X174169396Y-81162990D01*
X174401093Y-81435765D01*
X174403524Y-81438068D01*
X174403530Y-81438074D01*
X174582383Y-81607492D01*
X174660924Y-81681890D01*
X174945842Y-81898479D01*
X175252508Y-82082994D01*
X175577326Y-82233270D01*
X175916487Y-82347547D01*
X176266015Y-82424484D01*
X176621813Y-82463179D01*
X176976351Y-82463179D01*
X176979709Y-82463179D01*
X177335507Y-82424484D01*
X177685035Y-82347547D01*
X178024196Y-82233270D01*
X178349014Y-82082994D01*
X178655680Y-81898479D01*
X178940598Y-81681890D01*
X179200429Y-81435765D01*
X179432126Y-81162990D01*
X179632972Y-80866764D01*
X179800614Y-80550559D01*
X179933085Y-80218082D01*
X180028832Y-79873231D01*
X180086733Y-79520050D01*
X180106109Y-79162679D01*
X180086733Y-78805308D01*
X180028832Y-78452127D01*
X179933085Y-78107276D01*
X179800614Y-77774799D01*
X179632972Y-77458594D01*
X179432126Y-77162368D01*
X179249961Y-76947907D01*
X179202602Y-76892151D01*
X179202599Y-76892148D01*
X179200429Y-76889593D01*
X179197996Y-76887288D01*
X179197991Y-76887283D01*
X178943028Y-76645770D01*
X178940598Y-76643468D01*
X178751167Y-76499466D01*
X178658348Y-76428907D01*
X178658346Y-76428905D01*
X178655680Y-76426879D01*
X178652806Y-76425150D01*
X178652802Y-76425147D01*
X178351896Y-76244098D01*
X178351895Y-76244097D01*
X178349014Y-76242364D01*
X178327918Y-76232604D01*
X178027251Y-76093501D01*
X178027244Y-76093498D01*
X178024196Y-76092088D01*
X177876428Y-76042299D01*
X177688218Y-75978883D01*
X177688209Y-75978880D01*
X177685035Y-75977811D01*
X177681767Y-75977091D01*
X177681754Y-75977088D01*
X177338794Y-75901597D01*
X177338784Y-75901595D01*
X177335507Y-75900874D01*
X177278079Y-75894628D01*
X176983047Y-75862542D01*
X176983046Y-75862541D01*
X176979709Y-75862179D01*
X176621813Y-75862179D01*
X176618476Y-75862541D01*
X176618474Y-75862542D01*
X176269361Y-75900510D01*
X176269359Y-75900510D01*
X176266015Y-75900874D01*
X176262740Y-75901594D01*
X176262727Y-75901597D01*
X175919767Y-75977088D01*
X175919749Y-75977092D01*
X175916487Y-75977811D01*
X175913316Y-75978879D01*
X175913303Y-75978883D01*
X175580513Y-76091014D01*
X175580510Y-76091015D01*
X175577326Y-76092088D01*
X175574283Y-76093495D01*
X175574270Y-76093501D01*
X175255563Y-76240950D01*
X175255553Y-76240954D01*
X175252508Y-76242364D01*
X175249634Y-76244093D01*
X175249625Y-76244098D01*
X174948719Y-76425147D01*
X174948706Y-76425155D01*
X174945842Y-76426879D01*
X174943184Y-76428899D01*
X174943173Y-76428907D01*
X174663583Y-76641446D01*
X174663575Y-76641452D01*
X174660924Y-76643468D01*
X174658500Y-76645763D01*
X174658493Y-76645770D01*
X174403530Y-76887283D01*
X174403515Y-76887298D01*
X174401093Y-76889593D01*
X174398930Y-76892138D01*
X174398919Y-76892151D01*
X174171569Y-77159809D01*
X174171563Y-77159816D01*
X174169396Y-77162368D01*
X174167516Y-77165140D01*
X174167509Y-77165150D01*
X173970440Y-77455805D01*
X173970432Y-77455817D01*
X173968550Y-77458594D01*
X173966975Y-77461564D01*
X173966973Y-77461568D01*
X173802483Y-77771827D01*
X173802478Y-77771836D01*
X173800908Y-77774799D01*
X173799667Y-77777911D01*
X173799663Y-77777922D01*
X173682580Y-78071780D01*
X173668437Y-78107276D01*
X173667536Y-78110520D01*
X173667534Y-78110527D01*
X173600457Y-78352119D01*
X173572690Y-78452127D01*
X173572149Y-78455426D01*
X173572145Y-78455445D01*
X173515334Y-78801981D01*
X173514789Y-78805308D01*
X173514607Y-78808658D01*
X173514606Y-78808671D01*
X173498296Y-79109500D01*
X173495413Y-79162679D01*
X158012382Y-79162679D01*
X158012382Y-75683626D01*
X158012903Y-75672570D01*
X158014555Y-75665184D01*
X158012443Y-75597964D01*
X158012382Y-75594070D01*
X158012382Y-75570393D01*
X158012382Y-75566501D01*
X158011880Y-75562534D01*
X158010963Y-75550877D01*
X158010499Y-75536104D01*
X158009592Y-75507224D01*
X158004000Y-75487979D01*
X158000056Y-75468934D01*
X157997546Y-75449059D01*
X157981461Y-75408434D01*
X157977688Y-75397413D01*
X157965500Y-75355461D01*
X157955299Y-75338211D01*
X157946745Y-75320752D01*
X157939368Y-75302119D01*
X157913690Y-75266776D01*
X157907283Y-75257022D01*
X157889024Y-75226147D01*
X157889023Y-75226145D01*
X157885052Y-75219431D01*
X157870887Y-75205266D01*
X157858252Y-75190473D01*
X157846476Y-75174264D01*
X157840465Y-75169291D01*
X157840463Y-75169289D01*
X157812823Y-75146424D01*
X157804182Y-75138561D01*
X153050766Y-70385144D01*
X153043322Y-70376963D01*
X153039266Y-70370572D01*
X152990255Y-70324547D01*
X152987458Y-70321836D01*
X152970707Y-70305085D01*
X152967951Y-70302329D01*
X152964770Y-70299861D01*
X152955894Y-70292279D01*
X152929749Y-70267727D01*
X152929747Y-70267725D01*
X152924062Y-70262387D01*
X152917229Y-70258631D01*
X152917223Y-70258626D01*
X152906505Y-70252734D01*
X152890246Y-70242055D01*
X152880575Y-70234553D01*
X152880572Y-70234551D01*
X152874416Y-70229776D01*
X152867259Y-70226678D01*
X152867256Y-70226677D01*
X152834329Y-70212427D01*
X152823843Y-70207290D01*
X152792412Y-70190011D01*
X152792403Y-70190007D01*
X152785572Y-70186252D01*
X152778015Y-70184311D01*
X152778011Y-70184310D01*
X152766168Y-70181269D01*
X152747764Y-70174968D01*
X152736537Y-70170109D01*
X152736530Y-70170107D01*
X152729376Y-70167011D01*
X152721672Y-70165790D01*
X152721670Y-70165790D01*
X152686239Y-70160178D01*
X152674804Y-70157810D01*
X152640051Y-70148887D01*
X152640043Y-70148886D01*
X152632499Y-70146949D01*
X152624703Y-70146949D01*
X152612463Y-70146949D01*
X152593077Y-70145423D01*
X152573284Y-70142289D01*
X152565518Y-70143023D01*
X152565515Y-70143023D01*
X152529804Y-70146399D01*
X152518135Y-70146949D01*
X149015322Y-70146949D01*
X149004269Y-70146428D01*
X148996883Y-70144777D01*
X148989085Y-70145022D01*
X148929695Y-70146888D01*
X148925801Y-70146949D01*
X148898201Y-70146949D01*
X148894350Y-70147435D01*
X148894319Y-70147437D01*
X148894191Y-70147454D01*
X148882580Y-70148367D01*
X148846718Y-70149494D01*
X148846710Y-70149495D01*
X148838924Y-70149740D01*
X148831436Y-70151915D01*
X148831437Y-70151915D01*
X148819685Y-70155329D01*
X148800646Y-70159271D01*
X148788499Y-70160806D01*
X148788491Y-70160807D01*
X148780759Y-70161785D01*
X148773513Y-70164653D01*
X148773508Y-70164655D01*
X148740136Y-70177868D01*
X148729090Y-70181649D01*
X148721599Y-70183826D01*
X148694645Y-70191657D01*
X148694640Y-70191658D01*
X148687161Y-70193832D01*
X148680451Y-70197799D01*
X148680451Y-70197800D01*
X148672953Y-70202234D01*
X148609835Y-70219500D01*
X148495354Y-70219500D01*
X148488995Y-70220851D01*
X148488991Y-70220852D01*
X148316559Y-70257503D01*
X148316552Y-70257505D01*
X148310197Y-70258856D01*
X148304262Y-70261498D01*
X148304254Y-70261501D01*
X148143207Y-70333205D01*
X148143202Y-70333207D01*
X148137270Y-70335849D01*
X148132016Y-70339665D01*
X148132011Y-70339669D01*
X147989388Y-70443290D01*
X147989381Y-70443295D01*
X147984129Y-70447112D01*
X147979784Y-70451937D01*
X147979779Y-70451942D01*
X147861813Y-70582956D01*
X147861808Y-70582962D01*
X147857467Y-70587784D01*
X147854222Y-70593404D01*
X147854218Y-70593410D01*
X147766069Y-70746089D01*
X147766066Y-70746094D01*
X147762821Y-70751716D01*
X147760815Y-70757888D01*
X147760813Y-70757894D01*
X147706333Y-70925564D01*
X147706331Y-70925573D01*
X147704326Y-70931744D01*
X147703648Y-70938194D01*
X147703646Y-70938204D01*
X147685962Y-71106464D01*
X147684540Y-71120000D01*
X147685219Y-71126460D01*
X147703646Y-71301795D01*
X147703647Y-71301803D01*
X147704326Y-71308256D01*
X147706331Y-71314428D01*
X147706333Y-71314435D01*
X147759018Y-71476580D01*
X147762821Y-71488284D01*
X147857467Y-71652216D01*
X147984129Y-71792888D01*
X148137270Y-71904151D01*
X148310197Y-71981144D01*
X148495354Y-72020500D01*
X148678143Y-72020500D01*
X148684646Y-72020500D01*
X148869803Y-71981144D01*
X149042730Y-71904151D01*
X149195871Y-71792888D01*
X149322533Y-71652216D01*
X149417179Y-71488284D01*
X149419187Y-71482102D01*
X149421831Y-71476166D01*
X149422762Y-71476580D01*
X149444470Y-71438979D01*
X149486185Y-71408670D01*
X149536622Y-71397949D01*
X152243028Y-71397949D01*
X152290481Y-71407388D01*
X152330709Y-71434268D01*
X156725063Y-75828622D01*
X156751943Y-75868850D01*
X156761382Y-75916303D01*
X156761382Y-76673370D01*
X156744769Y-76735370D01*
X156699382Y-76780757D01*
X156637382Y-76797370D01*
X156491780Y-76797370D01*
X156485421Y-76798721D01*
X156485417Y-76798722D01*
X156312985Y-76835373D01*
X156312978Y-76835375D01*
X156306623Y-76836726D01*
X156300688Y-76839368D01*
X156300680Y-76839371D01*
X156139633Y-76911075D01*
X156139628Y-76911077D01*
X156133696Y-76913719D01*
X156128440Y-76917538D01*
X156108746Y-76931846D01*
X156048822Y-76954847D01*
X155985426Y-76944805D01*
X155935544Y-76904410D01*
X155912542Y-76844486D01*
X155912004Y-76839371D01*
X155903197Y-76755568D01*
X155844702Y-76575540D01*
X155750056Y-76411608D01*
X155705435Y-76362052D01*
X155627743Y-76275766D01*
X155627742Y-76275765D01*
X155623394Y-76270936D01*
X155618136Y-76267116D01*
X155618134Y-76267114D01*
X155475511Y-76163493D01*
X155475510Y-76163492D01*
X155470253Y-76159673D01*
X155464315Y-76157029D01*
X155303268Y-76085325D01*
X155303263Y-76085323D01*
X155297326Y-76082680D01*
X155290967Y-76081328D01*
X155290963Y-76081327D01*
X155118531Y-76044676D01*
X155118528Y-76044675D01*
X155112169Y-76043324D01*
X154922877Y-76043324D01*
X154916518Y-76044675D01*
X154916514Y-76044676D01*
X154744082Y-76081327D01*
X154744075Y-76081329D01*
X154737720Y-76082680D01*
X154731785Y-76085322D01*
X154731777Y-76085325D01*
X154570730Y-76157029D01*
X154570725Y-76157031D01*
X154564793Y-76159673D01*
X154559539Y-76163489D01*
X154559534Y-76163493D01*
X154416911Y-76267114D01*
X154416904Y-76267119D01*
X154411652Y-76270936D01*
X154407307Y-76275761D01*
X154407302Y-76275766D01*
X154289336Y-76406780D01*
X154289331Y-76406786D01*
X154284990Y-76411608D01*
X154281745Y-76417228D01*
X154281741Y-76417234D01*
X154193592Y-76569913D01*
X154193589Y-76569918D01*
X154190344Y-76575540D01*
X154188338Y-76581712D01*
X154188336Y-76581718D01*
X154133856Y-76749388D01*
X154133854Y-76749397D01*
X154131849Y-76755568D01*
X154131170Y-76762027D01*
X154131170Y-76762028D01*
X154114201Y-76923475D01*
X154102801Y-76963897D01*
X154078561Y-76998194D01*
X148184767Y-82891987D01*
X148176582Y-82899435D01*
X148170194Y-82903490D01*
X148164859Y-82909170D01*
X148164854Y-82909175D01*
X148124167Y-82952501D01*
X148121463Y-82955292D01*
X148104699Y-82972056D01*
X148104692Y-82972063D01*
X148101951Y-82974805D01*
X148099571Y-82977872D01*
X148099560Y-82977885D01*
X148099471Y-82978001D01*
X148091913Y-82986846D01*
X148067351Y-83013003D01*
X148067344Y-83013012D01*
X148062009Y-83018694D01*
X148058253Y-83025525D01*
X148058250Y-83025530D01*
X148052356Y-83036251D01*
X148041680Y-83052503D01*
X148034180Y-83062172D01*
X148034172Y-83062183D01*
X148029398Y-83068340D01*
X148026305Y-83075484D01*
X148026300Y-83075495D01*
X148012045Y-83108436D01*
X148006909Y-83118919D01*
X147985874Y-83157184D01*
X147983935Y-83164732D01*
X147983934Y-83164737D01*
X147980893Y-83176583D01*
X147974592Y-83194987D01*
X147969729Y-83206224D01*
X147969727Y-83206228D01*
X147966633Y-83213380D01*
X147965413Y-83221079D01*
X147965413Y-83221081D01*
X147959800Y-83256517D01*
X147957432Y-83267952D01*
X147948509Y-83302704D01*
X147948507Y-83302712D01*
X147946571Y-83310257D01*
X147946571Y-83318053D01*
X147946571Y-83330293D01*
X147945045Y-83349678D01*
X147941911Y-83369472D01*
X147942645Y-83377237D01*
X147942645Y-83377240D01*
X147946021Y-83412952D01*
X147946571Y-83424621D01*
X147946571Y-97953577D01*
X147938335Y-97998015D01*
X147914721Y-98036549D01*
X147843884Y-98115220D01*
X147843879Y-98115226D01*
X147839538Y-98120048D01*
X147836293Y-98125668D01*
X147836289Y-98125674D01*
X147748140Y-98278353D01*
X147748137Y-98278358D01*
X147744892Y-98283980D01*
X147742886Y-98290152D01*
X147742884Y-98290158D01*
X147688404Y-98457828D01*
X147688402Y-98457837D01*
X147686397Y-98464008D01*
X147685719Y-98470458D01*
X147685717Y-98470468D01*
X147673218Y-98589397D01*
X147666611Y-98652264D01*
X147667290Y-98658724D01*
X147685717Y-98834059D01*
X147685718Y-98834067D01*
X147686397Y-98840520D01*
X147688402Y-98846692D01*
X147688404Y-98846699D01*
X147731670Y-98979855D01*
X147744892Y-99020548D01*
X147748139Y-99026172D01*
X147748140Y-99026174D01*
X147817124Y-99145659D01*
X147839538Y-99184480D01*
X147843882Y-99189305D01*
X147843884Y-99189307D01*
X147910053Y-99262795D01*
X147966200Y-99325152D01*
X148119341Y-99436415D01*
X148292268Y-99513408D01*
X148477425Y-99552764D01*
X148660214Y-99552764D01*
X148666717Y-99552764D01*
X148851874Y-99513408D01*
X149024801Y-99436415D01*
X149177942Y-99325152D01*
X149304604Y-99184480D01*
X149399250Y-99020548D01*
X149457745Y-98840520D01*
X149477531Y-98652264D01*
X149461855Y-98503112D01*
X149458424Y-98470468D01*
X149458423Y-98470467D01*
X149457745Y-98464008D01*
X149399250Y-98283980D01*
X149304604Y-98120048D01*
X149279457Y-98092120D01*
X149229421Y-98036549D01*
X149205807Y-97998015D01*
X149197571Y-97953577D01*
X149197571Y-83699728D01*
X149207010Y-83652275D01*
X149233890Y-83612047D01*
X154965294Y-77880643D01*
X155005522Y-77853763D01*
X155052975Y-77844324D01*
X155105666Y-77844324D01*
X155112169Y-77844324D01*
X155297326Y-77804968D01*
X155470253Y-77727975D01*
X155495200Y-77709849D01*
X155555121Y-77686847D01*
X155618519Y-77696887D01*
X155668403Y-77737281D01*
X155691406Y-77797205D01*
X155697351Y-77853763D01*
X155700752Y-77886126D01*
X155702757Y-77892298D01*
X155702759Y-77892305D01*
X155757239Y-78059975D01*
X155759247Y-78066154D01*
X155853893Y-78230086D01*
X155858237Y-78234911D01*
X155858239Y-78234913D01*
X155929076Y-78313585D01*
X155952690Y-78352119D01*
X155960926Y-78396557D01*
X155960926Y-93293122D01*
X155951487Y-93340575D01*
X155924607Y-93380802D01*
X151987441Y-97317967D01*
X150743579Y-98561829D01*
X150743576Y-98561832D01*
X145361580Y-103943827D01*
X145353395Y-103951275D01*
X145347007Y-103955330D01*
X145341672Y-103961010D01*
X145341667Y-103961015D01*
X145300980Y-104004341D01*
X145298276Y-104007132D01*
X145281512Y-104023896D01*
X145281505Y-104023903D01*
X145278764Y-104026645D01*
X145276384Y-104029712D01*
X145276373Y-104029725D01*
X145276284Y-104029841D01*
X145268726Y-104038686D01*
X145244164Y-104064843D01*
X145244157Y-104064852D01*
X145238822Y-104070534D01*
X145235066Y-104077365D01*
X145235063Y-104077370D01*
X145229169Y-104088091D01*
X145218493Y-104104343D01*
X145210993Y-104114012D01*
X145210985Y-104114023D01*
X145206211Y-104120180D01*
X145203118Y-104127324D01*
X145203113Y-104127335D01*
X145188858Y-104160276D01*
X145183722Y-104170759D01*
X145175141Y-104186369D01*
X145162687Y-104209024D01*
X145160748Y-104216572D01*
X145160747Y-104216577D01*
X145157706Y-104228423D01*
X145151405Y-104246827D01*
X145146542Y-104258064D01*
X145146540Y-104258068D01*
X145143446Y-104265220D01*
X145142226Y-104272919D01*
X145142226Y-104272921D01*
X145136613Y-104308357D01*
X145134245Y-104319792D01*
X145125322Y-104354544D01*
X145125320Y-104354552D01*
X145123384Y-104362097D01*
X145123384Y-104369893D01*
X145123384Y-104382133D01*
X145121858Y-104401518D01*
X145118724Y-104421312D01*
X145119458Y-104429077D01*
X145119458Y-104429080D01*
X145122834Y-104464792D01*
X145123384Y-104476461D01*
X145123384Y-104676045D01*
X145115148Y-104720483D01*
X145091534Y-104759017D01*
X145020697Y-104837688D01*
X145020692Y-104837694D01*
X145016351Y-104842516D01*
X145013106Y-104848136D01*
X145013102Y-104848142D01*
X144924953Y-105000821D01*
X144924950Y-105000826D01*
X144921705Y-105006448D01*
X144919699Y-105012620D01*
X144919697Y-105012626D01*
X144865217Y-105180296D01*
X144865215Y-105180305D01*
X144863210Y-105186476D01*
X144862532Y-105192926D01*
X144862530Y-105192936D01*
X144846031Y-105349925D01*
X144843424Y-105374732D01*
X142983091Y-105374732D01*
X142983091Y-103416512D01*
X142991327Y-103372074D01*
X143014941Y-103333540D01*
X143019542Y-103328430D01*
X143120831Y-103215938D01*
X143215477Y-103052006D01*
X143273972Y-102871978D01*
X143293758Y-102683722D01*
X143273972Y-102495466D01*
X143215477Y-102315438D01*
X143120831Y-102151506D01*
X142994169Y-102010834D01*
X142988911Y-102007014D01*
X142988909Y-102007012D01*
X142846286Y-101903391D01*
X142846285Y-101903390D01*
X142841028Y-101899571D01*
X142835090Y-101896927D01*
X142674043Y-101825223D01*
X142674038Y-101825221D01*
X142668101Y-101822578D01*
X142661742Y-101821226D01*
X142661738Y-101821225D01*
X142489306Y-101784574D01*
X142489303Y-101784573D01*
X142482944Y-101783222D01*
X142293652Y-101783222D01*
X142287293Y-101784573D01*
X142287289Y-101784574D01*
X142114857Y-101821225D01*
X142114850Y-101821227D01*
X142108495Y-101822578D01*
X142102560Y-101825220D01*
X142102552Y-101825223D01*
X141941506Y-101896927D01*
X141935568Y-101899571D01*
X141930315Y-101903387D01*
X141930307Y-101903392D01*
X141851628Y-101960555D01*
X141791705Y-101983557D01*
X141728308Y-101973515D01*
X141591258Y-101912495D01*
X141591253Y-101912493D01*
X141585316Y-101909850D01*
X141578957Y-101908498D01*
X141578953Y-101908497D01*
X141406521Y-101871846D01*
X141406518Y-101871845D01*
X141400159Y-101870494D01*
X141210867Y-101870494D01*
X141204508Y-101871845D01*
X141204504Y-101871846D01*
X141032072Y-101908497D01*
X141032065Y-101908499D01*
X141025710Y-101909850D01*
X141019775Y-101912492D01*
X141019767Y-101912495D01*
X140858720Y-101984199D01*
X140858715Y-101984201D01*
X140852783Y-101986843D01*
X140847529Y-101990659D01*
X140847524Y-101990663D01*
X140704901Y-102094284D01*
X140704894Y-102094289D01*
X140699642Y-102098106D01*
X140695297Y-102102931D01*
X140695292Y-102102936D01*
X140577326Y-102233950D01*
X140577321Y-102233956D01*
X140572980Y-102238778D01*
X140569735Y-102244398D01*
X140569731Y-102244404D01*
X140481582Y-102397083D01*
X140481579Y-102397088D01*
X140478334Y-102402710D01*
X140476328Y-102408882D01*
X140476326Y-102408888D01*
X140421846Y-102576558D01*
X140421844Y-102576567D01*
X140419839Y-102582738D01*
X140419161Y-102589188D01*
X140419159Y-102589198D01*
X140409904Y-102677262D01*
X140400053Y-102770994D01*
X140400732Y-102777454D01*
X140419159Y-102952789D01*
X140419160Y-102952797D01*
X140419839Y-102959250D01*
X140421844Y-102965422D01*
X140421846Y-102965429D01*
X140449977Y-103052006D01*
X140478334Y-103139278D01*
X140481581Y-103144902D01*
X140481582Y-103144904D01*
X140522593Y-103215938D01*
X140572980Y-103303210D01*
X140577324Y-103308035D01*
X140577326Y-103308037D01*
X140648163Y-103386709D01*
X140671777Y-103425243D01*
X140680013Y-103469681D01*
X140680013Y-122301240D01*
X140670574Y-122348693D01*
X140643694Y-122388921D01*
X138860694Y-124171921D01*
X138820466Y-124198801D01*
X138773013Y-124208240D01*
X132526291Y-124208240D01*
X132515235Y-124207718D01*
X132507849Y-124206067D01*
X132500061Y-124206311D01*
X132500054Y-124206311D01*
X132440629Y-124208179D01*
X132436735Y-124208240D01*
X132409166Y-124208240D01*
X132405310Y-124208726D01*
X132405307Y-124208727D01*
X132405251Y-124208734D01*
X132405178Y-124208743D01*
X132393560Y-124209657D01*
X132357681Y-124210785D01*
X132357680Y-124210785D01*
X132349889Y-124211030D01*
X132342404Y-124213204D01*
X132342400Y-124213205D01*
X132330641Y-124216621D01*
X132311603Y-124220563D01*
X132299465Y-124222097D01*
X132299457Y-124222098D01*
X132291724Y-124223076D01*
X132284476Y-124225945D01*
X132284470Y-124225947D01*
X132251113Y-124239153D01*
X132240070Y-124242934D01*
X132205616Y-124252945D01*
X132205610Y-124252947D01*
X132198126Y-124255122D01*
X132191414Y-124259091D01*
X132191412Y-124259092D01*
X132180880Y-124265320D01*
X132163420Y-124273874D01*
X132152035Y-124278382D01*
X132152029Y-124278384D01*
X132144784Y-124281254D01*
X132138479Y-124285834D01*
X132138471Y-124285839D01*
X132109448Y-124306925D01*
X132099690Y-124313335D01*
X132068812Y-124331597D01*
X132068806Y-124331601D01*
X132062096Y-124335570D01*
X132056583Y-124341081D01*
X132056576Y-124341088D01*
X132047926Y-124349738D01*
X132033143Y-124362364D01*
X132023242Y-124369557D01*
X132023232Y-124369566D01*
X132016929Y-124374146D01*
X132011960Y-124380151D01*
X132011957Y-124380155D01*
X131989088Y-124407799D01*
X131981227Y-124416437D01*
X130893359Y-125504304D01*
X130885174Y-125511752D01*
X130878786Y-125515807D01*
X130873451Y-125521487D01*
X130873446Y-125521492D01*
X130832759Y-125564818D01*
X130830055Y-125567609D01*
X130813291Y-125584373D01*
X130813284Y-125584380D01*
X130810543Y-125587122D01*
X130808163Y-125590189D01*
X130808152Y-125590202D01*
X130808063Y-125590318D01*
X130800505Y-125599163D01*
X130775943Y-125625320D01*
X130775936Y-125625329D01*
X130770601Y-125631011D01*
X130766845Y-125637842D01*
X130766842Y-125637847D01*
X130760948Y-125648568D01*
X130750272Y-125664820D01*
X130742772Y-125674489D01*
X130742764Y-125674500D01*
X130737990Y-125680657D01*
X130734897Y-125687801D01*
X130734892Y-125687812D01*
X130720637Y-125720753D01*
X130715501Y-125731236D01*
X130694466Y-125769501D01*
X130692527Y-125777049D01*
X130692526Y-125777054D01*
X130689485Y-125788900D01*
X130683184Y-125807304D01*
X130678321Y-125818541D01*
X130678319Y-125818545D01*
X130675225Y-125825697D01*
X130674005Y-125833396D01*
X130674005Y-125833398D01*
X130668392Y-125868834D01*
X130666024Y-125880269D01*
X130657101Y-125915021D01*
X130657099Y-125915029D01*
X130655163Y-125922574D01*
X130655163Y-125930370D01*
X130655163Y-125942610D01*
X130653637Y-125961995D01*
X130650503Y-125981789D01*
X130651237Y-125989554D01*
X130651237Y-125989557D01*
X130654613Y-126025269D01*
X130655163Y-126036938D01*
X130655163Y-126393759D01*
X130646927Y-126438197D01*
X130623313Y-126476731D01*
X130552476Y-126555402D01*
X130552471Y-126555408D01*
X130548130Y-126560230D01*
X130544885Y-126565850D01*
X130544881Y-126565856D01*
X130456732Y-126718535D01*
X130456729Y-126718540D01*
X130453484Y-126724162D01*
X130451478Y-126730334D01*
X130451476Y-126730340D01*
X130396996Y-126898010D01*
X130396994Y-126898019D01*
X130394989Y-126904190D01*
X130394311Y-126910640D01*
X130394309Y-126910650D01*
X130376625Y-127078910D01*
X130375203Y-127092446D01*
X107950500Y-127092446D01*
X107950500Y-108526987D01*
X121498318Y-108526987D01*
X121498997Y-108533447D01*
X121517424Y-108708782D01*
X121517425Y-108708790D01*
X121518104Y-108715243D01*
X121520109Y-108721415D01*
X121520111Y-108721422D01*
X121574591Y-108889092D01*
X121576599Y-108895271D01*
X121671245Y-109059203D01*
X121675587Y-109064025D01*
X121675591Y-109064030D01*
X121764890Y-109163206D01*
X121797907Y-109199875D01*
X121803165Y-109203695D01*
X121803166Y-109203696D01*
X121862252Y-109246624D01*
X121951048Y-109311138D01*
X122123975Y-109388131D01*
X122309132Y-109427487D01*
X122491921Y-109427487D01*
X122498424Y-109427487D01*
X122683581Y-109388131D01*
X122856508Y-109311138D01*
X123009649Y-109199875D01*
X123015379Y-109193510D01*
X123017049Y-109192297D01*
X123018828Y-109190696D01*
X123018996Y-109190882D01*
X123057093Y-109163206D01*
X123107526Y-109152487D01*
X127124565Y-109152487D01*
X127189355Y-109170760D01*
X127235050Y-109220192D01*
X127248183Y-109286215D01*
X127224883Y-109349372D01*
X127224207Y-109350302D01*
X127219861Y-109355129D01*
X127216616Y-109360749D01*
X127216612Y-109360755D01*
X127128463Y-109513434D01*
X127128460Y-109513439D01*
X127125215Y-109519061D01*
X127123209Y-109525233D01*
X127123207Y-109525239D01*
X127068727Y-109692909D01*
X127068725Y-109692918D01*
X127066720Y-109699089D01*
X127066042Y-109705539D01*
X127066040Y-109705549D01*
X127059036Y-109772196D01*
X127046934Y-109887345D01*
X127047613Y-109893805D01*
X127066040Y-110069140D01*
X127066041Y-110069148D01*
X127066720Y-110075601D01*
X127068725Y-110081773D01*
X127068727Y-110081780D01*
X127122828Y-110248284D01*
X127125215Y-110255629D01*
X127128462Y-110261253D01*
X127128463Y-110261255D01*
X127212371Y-110406589D01*
X127219861Y-110419561D01*
X127224205Y-110424386D01*
X127224207Y-110424388D01*
X127342173Y-110555402D01*
X127346523Y-110560233D01*
X127351781Y-110564053D01*
X127351782Y-110564054D01*
X127402934Y-110601218D01*
X127499664Y-110671496D01*
X127672591Y-110748489D01*
X127857748Y-110787845D01*
X128040537Y-110787845D01*
X128047040Y-110787845D01*
X128232197Y-110748489D01*
X128405124Y-110671496D01*
X128558265Y-110560233D01*
X128570605Y-110546527D01*
X128612320Y-110516220D01*
X128662755Y-110505500D01*
X129542786Y-110505500D01*
X129593219Y-110516219D01*
X129631315Y-110543895D01*
X129631484Y-110543709D01*
X129633262Y-110545310D01*
X129634932Y-110546523D01*
X129640663Y-110552888D01*
X129645921Y-110556708D01*
X129645922Y-110556709D01*
X129656032Y-110564054D01*
X129793804Y-110664151D01*
X129966731Y-110741144D01*
X130151888Y-110780500D01*
X130334677Y-110780500D01*
X130341180Y-110780500D01*
X130526337Y-110741144D01*
X130699264Y-110664151D01*
X130852405Y-110552888D01*
X130979067Y-110412216D01*
X131073713Y-110248284D01*
X131132208Y-110068256D01*
X131151994Y-109880000D01*
X131132208Y-109691744D01*
X131073713Y-109511716D01*
X130979067Y-109347784D01*
X130948450Y-109313781D01*
X130887982Y-109246624D01*
X130859815Y-109193649D01*
X130859816Y-109133652D01*
X130887981Y-109080681D01*
X130907321Y-109059203D01*
X131001967Y-108895271D01*
X131060462Y-108715243D01*
X131080248Y-108526987D01*
X131060462Y-108338731D01*
X131001967Y-108158703D01*
X130907321Y-107994771D01*
X130823327Y-107901487D01*
X130785008Y-107858929D01*
X130785007Y-107858928D01*
X130780659Y-107854099D01*
X130775401Y-107850279D01*
X130775399Y-107850277D01*
X130632776Y-107746656D01*
X130632775Y-107746655D01*
X130627518Y-107742836D01*
X130621580Y-107740192D01*
X130460533Y-107668488D01*
X130460528Y-107668486D01*
X130454591Y-107665843D01*
X130448232Y-107664491D01*
X130448228Y-107664490D01*
X130275796Y-107627839D01*
X130275793Y-107627838D01*
X130269434Y-107626487D01*
X130080142Y-107626487D01*
X130073783Y-107627838D01*
X130073779Y-107627839D01*
X129901347Y-107664490D01*
X129901340Y-107664492D01*
X129894985Y-107665843D01*
X129889050Y-107668485D01*
X129889042Y-107668488D01*
X129727995Y-107740192D01*
X129727990Y-107740194D01*
X129722058Y-107742836D01*
X129716804Y-107746652D01*
X129716799Y-107746656D01*
X129574176Y-107850277D01*
X129574169Y-107850282D01*
X129568917Y-107854099D01*
X129564568Y-107858928D01*
X129564569Y-107858928D01*
X129563187Y-107860463D01*
X129561516Y-107861676D01*
X129559738Y-107863278D01*
X129559569Y-107863091D01*
X129521473Y-107890768D01*
X129471040Y-107901487D01*
X123107526Y-107901487D01*
X123057093Y-107890768D01*
X123018996Y-107863091D01*
X123018828Y-107863278D01*
X123017049Y-107861676D01*
X123015379Y-107860463D01*
X123009649Y-107854099D01*
X123004391Y-107850279D01*
X123004389Y-107850277D01*
X122861766Y-107746656D01*
X122861765Y-107746655D01*
X122856508Y-107742836D01*
X122850570Y-107740192D01*
X122689523Y-107668488D01*
X122689518Y-107668486D01*
X122683581Y-107665843D01*
X122677222Y-107664491D01*
X122677218Y-107664490D01*
X122504786Y-107627839D01*
X122504783Y-107627838D01*
X122498424Y-107626487D01*
X122309132Y-107626487D01*
X122302773Y-107627838D01*
X122302769Y-107627839D01*
X122130337Y-107664490D01*
X122130330Y-107664492D01*
X122123975Y-107665843D01*
X122118040Y-107668485D01*
X122118032Y-107668488D01*
X121956985Y-107740192D01*
X121956980Y-107740194D01*
X121951048Y-107742836D01*
X121945794Y-107746652D01*
X121945789Y-107746656D01*
X121803166Y-107850277D01*
X121803159Y-107850282D01*
X121797907Y-107854099D01*
X121793562Y-107858924D01*
X121793557Y-107858929D01*
X121675591Y-107989943D01*
X121675586Y-107989949D01*
X121671245Y-107994771D01*
X121668000Y-108000391D01*
X121667996Y-108000397D01*
X121579847Y-108153076D01*
X121579844Y-108153081D01*
X121576599Y-108158703D01*
X121574593Y-108164875D01*
X121574591Y-108164881D01*
X121520111Y-108332551D01*
X121520109Y-108332560D01*
X121518104Y-108338731D01*
X121517426Y-108345181D01*
X121517424Y-108345191D01*
X121499740Y-108513451D01*
X121498318Y-108526987D01*
X107950500Y-108526987D01*
X107950500Y-88068056D01*
X109949774Y-88068056D01*
X109950453Y-88074516D01*
X109968880Y-88249851D01*
X109968881Y-88249859D01*
X109969560Y-88256312D01*
X109971565Y-88262484D01*
X109971567Y-88262491D01*
X110026047Y-88430161D01*
X110028055Y-88436340D01*
X110031302Y-88441964D01*
X110031303Y-88441966D01*
X110089426Y-88542639D01*
X110122701Y-88600272D01*
X110127045Y-88605097D01*
X110127047Y-88605099D01*
X110197884Y-88683771D01*
X110221498Y-88722305D01*
X110229734Y-88766743D01*
X110229734Y-95537459D01*
X110229212Y-95548514D01*
X110227561Y-95555901D01*
X110227805Y-95563687D01*
X110227805Y-95563695D01*
X110229673Y-95623107D01*
X110229734Y-95627002D01*
X110229734Y-95654584D01*
X110230222Y-95658453D01*
X110230223Y-95658459D01*
X110230238Y-95658577D01*
X110231152Y-95670200D01*
X110232279Y-95706064D01*
X110232280Y-95706071D01*
X110232525Y-95713861D01*
X110234701Y-95721353D01*
X110234702Y-95721355D01*
X110238113Y-95733096D01*
X110242059Y-95752149D01*
X110244570Y-95772026D01*
X110247440Y-95779276D01*
X110247442Y-95779282D01*
X110260648Y-95812638D01*
X110264431Y-95823685D01*
X110276616Y-95865624D01*
X110280587Y-95872339D01*
X110280588Y-95872341D01*
X110286815Y-95882871D01*
X110295370Y-95900333D01*
X110299876Y-95911714D01*
X110299877Y-95911717D01*
X110302748Y-95918966D01*
X110312406Y-95932259D01*
X110328415Y-95954294D01*
X110334827Y-95964056D01*
X110353090Y-95994936D01*
X110353093Y-95994941D01*
X110357064Y-96001654D01*
X110362579Y-96007169D01*
X110371224Y-96015814D01*
X110383860Y-96030608D01*
X110391053Y-96040509D01*
X110391057Y-96040513D01*
X110395640Y-96046821D01*
X110401649Y-96051792D01*
X110401650Y-96051793D01*
X110429292Y-96074660D01*
X110437933Y-96082523D01*
X112091038Y-97735628D01*
X112115278Y-97769926D01*
X112126678Y-97810347D01*
X112129168Y-97834034D01*
X112144326Y-97978256D01*
X112146331Y-97984428D01*
X112146333Y-97984435D01*
X112192225Y-98125674D01*
X112202821Y-98158284D01*
X112206068Y-98163908D01*
X112206069Y-98163910D01*
X112292477Y-98313574D01*
X112297467Y-98322216D01*
X112301811Y-98327041D01*
X112301813Y-98327043D01*
X112417306Y-98455310D01*
X112424129Y-98462888D01*
X112429387Y-98466708D01*
X112429388Y-98466709D01*
X112441959Y-98475842D01*
X112577270Y-98574151D01*
X112750197Y-98651144D01*
X112935354Y-98690500D01*
X113118143Y-98690500D01*
X113124646Y-98690500D01*
X113309803Y-98651144D01*
X113482730Y-98574151D01*
X113635871Y-98462888D01*
X113762533Y-98322216D01*
X113857179Y-98158284D01*
X113915674Y-97978256D01*
X113935460Y-97790000D01*
X113915674Y-97601744D01*
X113857179Y-97421716D01*
X113762533Y-97257784D01*
X113678539Y-97164500D01*
X113640220Y-97121942D01*
X113640219Y-97121941D01*
X113635871Y-97117112D01*
X113630613Y-97113292D01*
X113630611Y-97113290D01*
X113487988Y-97009669D01*
X113487987Y-97009668D01*
X113482730Y-97005849D01*
X113476792Y-97003205D01*
X113315745Y-96931501D01*
X113315740Y-96931499D01*
X113309803Y-96928856D01*
X113303444Y-96927504D01*
X113303440Y-96927503D01*
X113131008Y-96890852D01*
X113131005Y-96890851D01*
X113124646Y-96889500D01*
X113118143Y-96889500D01*
X113065452Y-96889500D01*
X113017999Y-96880061D01*
X112977771Y-96853181D01*
X111517053Y-95392462D01*
X111490173Y-95352234D01*
X111480734Y-95304781D01*
X111480734Y-88766743D01*
X111488970Y-88722305D01*
X111512584Y-88683771D01*
X111521205Y-88674196D01*
X111587767Y-88600272D01*
X111682413Y-88436340D01*
X111740908Y-88256312D01*
X111760694Y-88068056D01*
X111740908Y-87879800D01*
X111682413Y-87699772D01*
X111587767Y-87535840D01*
X111505473Y-87444444D01*
X111465454Y-87399998D01*
X111465453Y-87399997D01*
X111461105Y-87395168D01*
X111455847Y-87391348D01*
X111455845Y-87391346D01*
X111313222Y-87287725D01*
X111313221Y-87287724D01*
X111307964Y-87283905D01*
X111302026Y-87281261D01*
X111140979Y-87209557D01*
X111140974Y-87209555D01*
X111135037Y-87206912D01*
X111128678Y-87205560D01*
X111128674Y-87205559D01*
X110956242Y-87168908D01*
X110956239Y-87168907D01*
X110949880Y-87167556D01*
X110760588Y-87167556D01*
X110754229Y-87168907D01*
X110754225Y-87168908D01*
X110581793Y-87205559D01*
X110581786Y-87205561D01*
X110575431Y-87206912D01*
X110569496Y-87209554D01*
X110569488Y-87209557D01*
X110408441Y-87281261D01*
X110408436Y-87281263D01*
X110402504Y-87283905D01*
X110397250Y-87287721D01*
X110397245Y-87287725D01*
X110254622Y-87391346D01*
X110254615Y-87391351D01*
X110249363Y-87395168D01*
X110245018Y-87399993D01*
X110245013Y-87399998D01*
X110127047Y-87531012D01*
X110127042Y-87531018D01*
X110122701Y-87535840D01*
X110119456Y-87541460D01*
X110119452Y-87541466D01*
X110031303Y-87694145D01*
X110031300Y-87694150D01*
X110028055Y-87699772D01*
X110026049Y-87705944D01*
X110026047Y-87705950D01*
X109971567Y-87873620D01*
X109971565Y-87873629D01*
X109969560Y-87879800D01*
X109968882Y-87886250D01*
X109968880Y-87886260D01*
X109957738Y-87992277D01*
X109949774Y-88068056D01*
X107950500Y-88068056D01*
X107950500Y-80010000D01*
X112124540Y-80010000D01*
X112125219Y-80016460D01*
X112143646Y-80191795D01*
X112143647Y-80191803D01*
X112144326Y-80198256D01*
X112146331Y-80204428D01*
X112146333Y-80204435D01*
X112200813Y-80372105D01*
X112202821Y-80378284D01*
X112297467Y-80542216D01*
X112424129Y-80682888D01*
X112577270Y-80794151D01*
X112750197Y-80871144D01*
X112935354Y-80910500D01*
X112994548Y-80910500D01*
X113042001Y-80919939D01*
X113082229Y-80946819D01*
X114959181Y-82823772D01*
X114986061Y-82864000D01*
X114995500Y-82911453D01*
X114995500Y-98066712D01*
X114994978Y-98077767D01*
X114993327Y-98085154D01*
X114993571Y-98092940D01*
X114993571Y-98092948D01*
X114995439Y-98152360D01*
X114995500Y-98156255D01*
X114995500Y-98183837D01*
X114995988Y-98187706D01*
X114995989Y-98187712D01*
X114996004Y-98187830D01*
X114996918Y-98199453D01*
X114998045Y-98235317D01*
X114998046Y-98235324D01*
X114998291Y-98243114D01*
X115000467Y-98250606D01*
X115000468Y-98250608D01*
X115003879Y-98262349D01*
X115007825Y-98281402D01*
X115010336Y-98301279D01*
X115013206Y-98308529D01*
X115013208Y-98308535D01*
X115026414Y-98341891D01*
X115030197Y-98352938D01*
X115042382Y-98394877D01*
X115046353Y-98401592D01*
X115046354Y-98401594D01*
X115052581Y-98412124D01*
X115061136Y-98429586D01*
X115065642Y-98440967D01*
X115065643Y-98440970D01*
X115068514Y-98448219D01*
X115081948Y-98466709D01*
X115094181Y-98483547D01*
X115100593Y-98493309D01*
X115118856Y-98524189D01*
X115118859Y-98524194D01*
X115122830Y-98530907D01*
X115128344Y-98536421D01*
X115128345Y-98536422D01*
X115136990Y-98545067D01*
X115149626Y-98559861D01*
X115156819Y-98569762D01*
X115156823Y-98569766D01*
X115161406Y-98576074D01*
X115167415Y-98581045D01*
X115167416Y-98581046D01*
X115195058Y-98603913D01*
X115203698Y-98611775D01*
X119960411Y-103368489D01*
X119960413Y-103368491D01*
X119960418Y-103368495D01*
X121783373Y-105191450D01*
X121790822Y-105199636D01*
X121794880Y-105206030D01*
X121800565Y-105211368D01*
X121800567Y-105211371D01*
X121843905Y-105252068D01*
X121846701Y-105254778D01*
X121866196Y-105274273D01*
X121869281Y-105276666D01*
X121869367Y-105276733D01*
X121878239Y-105284311D01*
X121892954Y-105298129D01*
X121910084Y-105314215D01*
X121916914Y-105317970D01*
X121916917Y-105317972D01*
X121927637Y-105323865D01*
X121943888Y-105334539D01*
X121959730Y-105346827D01*
X121966887Y-105349924D01*
X121966889Y-105349925D01*
X121999821Y-105364175D01*
X122010316Y-105369317D01*
X122048574Y-105390350D01*
X122067978Y-105395332D01*
X122086380Y-105401633D01*
X122097607Y-105406491D01*
X122104771Y-105409591D01*
X122142363Y-105415544D01*
X122147905Y-105416422D01*
X122159348Y-105418792D01*
X122194091Y-105427713D01*
X122194092Y-105427713D01*
X122201647Y-105429653D01*
X122221683Y-105429653D01*
X122241068Y-105431178D01*
X122260862Y-105434313D01*
X122298942Y-105430713D01*
X122304342Y-105430203D01*
X122316011Y-105429653D01*
X132222355Y-105429653D01*
X132272788Y-105440372D01*
X132310884Y-105468048D01*
X132311053Y-105467862D01*
X132312831Y-105469463D01*
X132314501Y-105470676D01*
X132320232Y-105477041D01*
X132473373Y-105588304D01*
X132646300Y-105665297D01*
X132831457Y-105704653D01*
X133014246Y-105704653D01*
X133020749Y-105704653D01*
X133205906Y-105665297D01*
X133378833Y-105588304D01*
X133531974Y-105477041D01*
X133658636Y-105336369D01*
X133753282Y-105172437D01*
X133811777Y-104992409D01*
X133831563Y-104804153D01*
X133811777Y-104615897D01*
X133753282Y-104435869D01*
X133658636Y-104271937D01*
X133608789Y-104216577D01*
X133536323Y-104136095D01*
X133536322Y-104136094D01*
X133531974Y-104131265D01*
X133526716Y-104127445D01*
X133526714Y-104127443D01*
X133384091Y-104023822D01*
X133384090Y-104023821D01*
X133378833Y-104020002D01*
X133372895Y-104017358D01*
X133211848Y-103945654D01*
X133211843Y-103945652D01*
X133205906Y-103943009D01*
X133199547Y-103941657D01*
X133199543Y-103941656D01*
X133027111Y-103905005D01*
X133027108Y-103905004D01*
X133020749Y-103903653D01*
X132831457Y-103903653D01*
X132825098Y-103905004D01*
X132825094Y-103905005D01*
X132652662Y-103941656D01*
X132652655Y-103941658D01*
X132646300Y-103943009D01*
X132640365Y-103945651D01*
X132640357Y-103945654D01*
X132479310Y-104017358D01*
X132479305Y-104017360D01*
X132473373Y-104020002D01*
X132468119Y-104023818D01*
X132468114Y-104023822D01*
X132325491Y-104127443D01*
X132325484Y-104127448D01*
X132320232Y-104131265D01*
X132315883Y-104136094D01*
X132315884Y-104136094D01*
X132314502Y-104137629D01*
X132312831Y-104138842D01*
X132311053Y-104140444D01*
X132310884Y-104140257D01*
X132272788Y-104167934D01*
X132222355Y-104178653D01*
X122591118Y-104178653D01*
X122543665Y-104169214D01*
X122503437Y-104142334D01*
X121664313Y-103303210D01*
X120789353Y-102428249D01*
X116282819Y-97921715D01*
X116255939Y-97881487D01*
X116246500Y-97834034D01*
X116246500Y-97790000D01*
X119964341Y-97790000D01*
X119964813Y-97795395D01*
X119981188Y-97982565D01*
X119984937Y-98025408D01*
X119986336Y-98030630D01*
X119986337Y-98030634D01*
X120044694Y-98248430D01*
X120044697Y-98248438D01*
X120046097Y-98253663D01*
X120048385Y-98258570D01*
X120048386Y-98258572D01*
X120143678Y-98462927D01*
X120143681Y-98462933D01*
X120145965Y-98467830D01*
X120149064Y-98472257D01*
X120149066Y-98472259D01*
X120278399Y-98656966D01*
X120278402Y-98656970D01*
X120281505Y-98661401D01*
X120448599Y-98828495D01*
X120453031Y-98831598D01*
X120453033Y-98831600D01*
X120518677Y-98877564D01*
X120642170Y-98964035D01*
X120856337Y-99063903D01*
X120861567Y-99065304D01*
X120861569Y-99065305D01*
X120881633Y-99070681D01*
X121084592Y-99125063D01*
X121320000Y-99145659D01*
X121555408Y-99125063D01*
X121783663Y-99063903D01*
X121997830Y-98964035D01*
X122191401Y-98828495D01*
X122358495Y-98661401D01*
X122361713Y-98656806D01*
X122488425Y-98475842D01*
X122532743Y-98436976D01*
X122590000Y-98422965D01*
X122647257Y-98436976D01*
X122691575Y-98475842D01*
X122818395Y-98656961D01*
X122818401Y-98656968D01*
X122821505Y-98661401D01*
X122988599Y-98828495D01*
X122993031Y-98831598D01*
X122993033Y-98831600D01*
X123058677Y-98877564D01*
X123182170Y-98964035D01*
X123396337Y-99063903D01*
X123401567Y-99065304D01*
X123401569Y-99065305D01*
X123421633Y-99070681D01*
X123624592Y-99125063D01*
X123860000Y-99145659D01*
X124095408Y-99125063D01*
X124323663Y-99063903D01*
X124537830Y-98964035D01*
X124703557Y-98847990D01*
X124763332Y-98826087D01*
X124826101Y-98836732D01*
X124875314Y-98877120D01*
X124898000Y-98936605D01*
X124908869Y-99040014D01*
X124912771Y-99077141D01*
X124914776Y-99083313D01*
X124914778Y-99083320D01*
X124967630Y-99245980D01*
X124971266Y-99257169D01*
X124974513Y-99262793D01*
X124974514Y-99262795D01*
X125043397Y-99382105D01*
X125065912Y-99421101D01*
X125070256Y-99425926D01*
X125070258Y-99425928D01*
X125149026Y-99513408D01*
X125192574Y-99561773D01*
X125345715Y-99673036D01*
X125518642Y-99750029D01*
X125703799Y-99789385D01*
X125886588Y-99789385D01*
X125893091Y-99789385D01*
X126078248Y-99750029D01*
X126251175Y-99673036D01*
X126404316Y-99561773D01*
X126449501Y-99511589D01*
X126491216Y-99481282D01*
X126541651Y-99470562D01*
X130812620Y-99470562D01*
X130863053Y-99481281D01*
X130901149Y-99508957D01*
X130901318Y-99508771D01*
X130903096Y-99510372D01*
X130904766Y-99511585D01*
X130910497Y-99517950D01*
X130915755Y-99521770D01*
X130915756Y-99521771D01*
X130964165Y-99556942D01*
X131063638Y-99629213D01*
X131236565Y-99706206D01*
X131421722Y-99745562D01*
X131604511Y-99745562D01*
X131611014Y-99745562D01*
X131796171Y-99706206D01*
X131969098Y-99629213D01*
X132122239Y-99517950D01*
X132248901Y-99377278D01*
X132343547Y-99213346D01*
X132402042Y-99033318D01*
X132421828Y-98845062D01*
X132402042Y-98656806D01*
X132343547Y-98476778D01*
X132248901Y-98312846D01*
X132208583Y-98268069D01*
X132126588Y-98177004D01*
X132126587Y-98177003D01*
X132122239Y-98172174D01*
X132116981Y-98168354D01*
X132116979Y-98168352D01*
X131974356Y-98064731D01*
X131974355Y-98064730D01*
X131969098Y-98060911D01*
X131948060Y-98051544D01*
X131802113Y-97986563D01*
X131802108Y-97986561D01*
X131796171Y-97983918D01*
X131789812Y-97982566D01*
X131789808Y-97982565D01*
X131617376Y-97945914D01*
X131617373Y-97945913D01*
X131611014Y-97944562D01*
X131421722Y-97944562D01*
X131415363Y-97945913D01*
X131415359Y-97945914D01*
X131242927Y-97982565D01*
X131242920Y-97982567D01*
X131236565Y-97983918D01*
X131230630Y-97986560D01*
X131230622Y-97986563D01*
X131069575Y-98058267D01*
X131069570Y-98058269D01*
X131063638Y-98060911D01*
X131058384Y-98064727D01*
X131058379Y-98064731D01*
X130915756Y-98168352D01*
X130915749Y-98168357D01*
X130910497Y-98172174D01*
X130906148Y-98177003D01*
X130906149Y-98177003D01*
X130904767Y-98178538D01*
X130903096Y-98179751D01*
X130901318Y-98181353D01*
X130901149Y-98181166D01*
X130863053Y-98208843D01*
X130812620Y-98219562D01*
X126449512Y-98219562D01*
X126411194Y-98213493D01*
X126376627Y-98195880D01*
X126350646Y-98177004D01*
X126251175Y-98104734D01*
X126245237Y-98102090D01*
X126084190Y-98030386D01*
X126084185Y-98030384D01*
X126078248Y-98027741D01*
X126071889Y-98026389D01*
X126071885Y-98026388D01*
X125899453Y-97989737D01*
X125899450Y-97989736D01*
X125893091Y-97988385D01*
X125703799Y-97988385D01*
X125697440Y-97989736D01*
X125697436Y-97989737D01*
X125525004Y-98026388D01*
X125524997Y-98026390D01*
X125518642Y-98027741D01*
X125511877Y-98030753D01*
X125374045Y-98092120D01*
X125311186Y-98102216D01*
X125251602Y-98079790D01*
X125211000Y-98030753D01*
X125200082Y-97968035D01*
X125215659Y-97790000D01*
X125195063Y-97554592D01*
X125133903Y-97326337D01*
X125034035Y-97112171D01*
X124898495Y-96918599D01*
X124731401Y-96751505D01*
X124726970Y-96748402D01*
X124726966Y-96748399D01*
X124545841Y-96621574D01*
X124506976Y-96577256D01*
X124492965Y-96519999D01*
X124506976Y-96462742D01*
X124545839Y-96418426D01*
X124731401Y-96288495D01*
X124898495Y-96121401D01*
X125034035Y-95927830D01*
X125133903Y-95713663D01*
X125195063Y-95485408D01*
X125215659Y-95250000D01*
X125195063Y-95014592D01*
X125133903Y-94786337D01*
X125034035Y-94572171D01*
X124898495Y-94378599D01*
X124731401Y-94211505D01*
X124726968Y-94208401D01*
X124726961Y-94208395D01*
X124545842Y-94081575D01*
X124506976Y-94037257D01*
X124492965Y-93980000D01*
X124506976Y-93922743D01*
X124545842Y-93878425D01*
X124726961Y-93751604D01*
X124726961Y-93751603D01*
X124731401Y-93748495D01*
X124898495Y-93581401D01*
X125034035Y-93387830D01*
X125133903Y-93173663D01*
X125195063Y-92945408D01*
X125215659Y-92710000D01*
X125195063Y-92474592D01*
X125133903Y-92246337D01*
X125034035Y-92032171D01*
X124898495Y-91838599D01*
X124776180Y-91716284D01*
X124744885Y-91663539D01*
X124742696Y-91602246D01*
X124770149Y-91547401D01*
X124820529Y-91512422D01*
X124943777Y-91466452D01*
X124959189Y-91458037D01*
X125060092Y-91382501D01*
X125072501Y-91370092D01*
X125148037Y-91269189D01*
X125156452Y-91253777D01*
X125200888Y-91134641D01*
X125204426Y-91119667D01*
X125209646Y-91071114D01*
X125210000Y-91064518D01*
X125210000Y-90436326D01*
X125206549Y-90423450D01*
X125193674Y-90420000D01*
X123734000Y-90420000D01*
X123672000Y-90403387D01*
X123626613Y-90358000D01*
X123610000Y-90296000D01*
X123610000Y-89903674D01*
X124110000Y-89903674D01*
X124113450Y-89916549D01*
X124126326Y-89920000D01*
X125193674Y-89920000D01*
X125206549Y-89916549D01*
X125210000Y-89903674D01*
X125210000Y-89275482D01*
X125209646Y-89268885D01*
X125204426Y-89220332D01*
X125200888Y-89205358D01*
X125156452Y-89086222D01*
X125148037Y-89070810D01*
X125072501Y-88969907D01*
X125060092Y-88957498D01*
X124959189Y-88881962D01*
X124943777Y-88873547D01*
X124824641Y-88829111D01*
X124809667Y-88825573D01*
X124761114Y-88820353D01*
X124754518Y-88820000D01*
X124126326Y-88820000D01*
X124113450Y-88823450D01*
X124110000Y-88836326D01*
X124110000Y-89903674D01*
X123610000Y-89903674D01*
X123610000Y-88836326D01*
X123606549Y-88823450D01*
X123593674Y-88820000D01*
X122994597Y-88820000D01*
X122938302Y-88806485D01*
X122894279Y-88768885D01*
X122872124Y-88715398D01*
X122876666Y-88657682D01*
X122912038Y-88548818D01*
X122914046Y-88542639D01*
X122931693Y-88374728D01*
X122943093Y-88334309D01*
X122967330Y-88300014D01*
X123626805Y-87640540D01*
X123667034Y-87613660D01*
X123714487Y-87604221D01*
X126817742Y-87604221D01*
X126865195Y-87613660D01*
X126905423Y-87640540D01*
X128973338Y-89708456D01*
X129000218Y-89748684D01*
X129009657Y-89796137D01*
X129009657Y-92959431D01*
X129009135Y-92970486D01*
X129007484Y-92977873D01*
X129007728Y-92985659D01*
X129007728Y-92985667D01*
X129009596Y-93045079D01*
X129009657Y-93048974D01*
X129009657Y-93076556D01*
X129010145Y-93080425D01*
X129010146Y-93080431D01*
X129010161Y-93080549D01*
X129011075Y-93092172D01*
X129012202Y-93128036D01*
X129012203Y-93128043D01*
X129012448Y-93135833D01*
X129014624Y-93143325D01*
X129014625Y-93143327D01*
X129018036Y-93155068D01*
X129021982Y-93174121D01*
X129024493Y-93193998D01*
X129027363Y-93201248D01*
X129027365Y-93201254D01*
X129040571Y-93234610D01*
X129044354Y-93245657D01*
X129056539Y-93287596D01*
X129060510Y-93294311D01*
X129060511Y-93294313D01*
X129066738Y-93304843D01*
X129075293Y-93322305D01*
X129079799Y-93333686D01*
X129079800Y-93333689D01*
X129082671Y-93340938D01*
X129104597Y-93371118D01*
X129108338Y-93376266D01*
X129114750Y-93386028D01*
X129133013Y-93416908D01*
X129133016Y-93416913D01*
X129136987Y-93423626D01*
X129142502Y-93429141D01*
X129151147Y-93437786D01*
X129163783Y-93452580D01*
X129170976Y-93462481D01*
X129170980Y-93462485D01*
X129175563Y-93468793D01*
X129181572Y-93473764D01*
X129181573Y-93473765D01*
X129209215Y-93496632D01*
X129217856Y-93504495D01*
X131155960Y-95442600D01*
X131180200Y-95476898D01*
X131191600Y-95517319D01*
X131202719Y-95623107D01*
X131209248Y-95685227D01*
X131211253Y-95691399D01*
X131211255Y-95691406D01*
X131254236Y-95823685D01*
X131267743Y-95865255D01*
X131270990Y-95870879D01*
X131270991Y-95870881D01*
X131324785Y-95964056D01*
X131362389Y-96029187D01*
X131366733Y-96034012D01*
X131366735Y-96034014D01*
X131484701Y-96165028D01*
X131489051Y-96169859D01*
X131642192Y-96281122D01*
X131815119Y-96358115D01*
X132000276Y-96397471D01*
X132183065Y-96397471D01*
X132189568Y-96397471D01*
X132374725Y-96358115D01*
X132547652Y-96281122D01*
X132700793Y-96169859D01*
X132827455Y-96029187D01*
X132922101Y-95865255D01*
X132980596Y-95685227D01*
X133000382Y-95496971D01*
X132980596Y-95308715D01*
X132922101Y-95128687D01*
X132827455Y-94964755D01*
X132700793Y-94824083D01*
X132695535Y-94820263D01*
X132695533Y-94820261D01*
X132552910Y-94716640D01*
X132552909Y-94716639D01*
X132547652Y-94712820D01*
X132541714Y-94710176D01*
X132380667Y-94638472D01*
X132380662Y-94638470D01*
X132374725Y-94635827D01*
X132368366Y-94634475D01*
X132368362Y-94634474D01*
X132195930Y-94597823D01*
X132195927Y-94597822D01*
X132189568Y-94596471D01*
X132183065Y-94596471D01*
X132130374Y-94596471D01*
X132082921Y-94587032D01*
X132042693Y-94560152D01*
X130588005Y-93105463D01*
X132074426Y-93105463D01*
X132075105Y-93111923D01*
X132093532Y-93287258D01*
X132093533Y-93287266D01*
X132094212Y-93293719D01*
X132096217Y-93299891D01*
X132096219Y-93299898D01*
X132145829Y-93452580D01*
X132152707Y-93473747D01*
X132155954Y-93479371D01*
X132155955Y-93479373D01*
X132231522Y-93610260D01*
X132247353Y-93637679D01*
X132374015Y-93778351D01*
X132527156Y-93889614D01*
X132700083Y-93966607D01*
X132885240Y-94005963D01*
X133068029Y-94005963D01*
X133074532Y-94005963D01*
X133259689Y-93966607D01*
X133432616Y-93889614D01*
X133585757Y-93778351D01*
X133712419Y-93637679D01*
X133807065Y-93473747D01*
X133865560Y-93293719D01*
X133885346Y-93105463D01*
X133884667Y-93099003D01*
X133884667Y-93098997D01*
X133883139Y-93084462D01*
X133889571Y-93030107D01*
X133918776Y-92983819D01*
X134389003Y-92513593D01*
X134429232Y-92486713D01*
X134476685Y-92477274D01*
X134529376Y-92477274D01*
X134535879Y-92477274D01*
X134721036Y-92437918D01*
X134893963Y-92360925D01*
X135047104Y-92249662D01*
X135051454Y-92244830D01*
X135056283Y-92240483D01*
X135057626Y-92241975D01*
X135097271Y-92215029D01*
X135156037Y-92208227D01*
X135211266Y-92229426D01*
X135250389Y-92273800D01*
X135264500Y-92331250D01*
X135264500Y-104009926D01*
X135251950Y-104064284D01*
X135216842Y-104107640D01*
X135166280Y-104131216D01*
X135115528Y-104142003D01*
X135115523Y-104142004D01*
X135109165Y-104143356D01*
X135103230Y-104145998D01*
X135103222Y-104146001D01*
X134942175Y-104217705D01*
X134942170Y-104217707D01*
X134936238Y-104220349D01*
X134930984Y-104224165D01*
X134930979Y-104224169D01*
X134788356Y-104327790D01*
X134788349Y-104327795D01*
X134783097Y-104331612D01*
X134778752Y-104336437D01*
X134778747Y-104336442D01*
X134660781Y-104467456D01*
X134660776Y-104467462D01*
X134656435Y-104472284D01*
X134653190Y-104477904D01*
X134653186Y-104477910D01*
X134565037Y-104630589D01*
X134565034Y-104630594D01*
X134561789Y-104636216D01*
X134559783Y-104642388D01*
X134559781Y-104642394D01*
X134505301Y-104810064D01*
X134505299Y-104810073D01*
X134503294Y-104816244D01*
X134502616Y-104822694D01*
X134502614Y-104822704D01*
X134488831Y-104953851D01*
X134483508Y-105004500D01*
X134484187Y-105010960D01*
X134502614Y-105186295D01*
X134502615Y-105186303D01*
X134503294Y-105192756D01*
X134505299Y-105198928D01*
X134505301Y-105198935D01*
X134559746Y-105366496D01*
X134561789Y-105372784D01*
X134565036Y-105378408D01*
X134565037Y-105378410D01*
X134621981Y-105477041D01*
X134656435Y-105536716D01*
X134660779Y-105541541D01*
X134660781Y-105541543D01*
X134778747Y-105672557D01*
X134783097Y-105677388D01*
X134936238Y-105788651D01*
X135109165Y-105865644D01*
X135294322Y-105905000D01*
X135477111Y-105905000D01*
X135483614Y-105905000D01*
X135668771Y-105865644D01*
X135841698Y-105788651D01*
X135994839Y-105677388D01*
X136121501Y-105536716D01*
X136216147Y-105372784D01*
X136274642Y-105192756D01*
X136292192Y-105025770D01*
X136302767Y-104987117D01*
X136325118Y-104953855D01*
X136337931Y-104940210D01*
X136340549Y-104937508D01*
X136360120Y-104917939D01*
X136362585Y-104914760D01*
X136370167Y-104905884D01*
X136400062Y-104874050D01*
X136409713Y-104856491D01*
X136420390Y-104840238D01*
X136432673Y-104824404D01*
X136450018Y-104784320D01*
X136455151Y-104773839D01*
X136476197Y-104735560D01*
X136481179Y-104716152D01*
X136487482Y-104697744D01*
X136495437Y-104679364D01*
X136502271Y-104636212D01*
X136504633Y-104624806D01*
X136515500Y-104582487D01*
X136515500Y-104562451D01*
X136517027Y-104543053D01*
X136518939Y-104530981D01*
X136518938Y-104530981D01*
X136520160Y-104523272D01*
X136516050Y-104479792D01*
X136515500Y-104468123D01*
X136515500Y-97790000D01*
X140064540Y-97790000D01*
X140065219Y-97796460D01*
X140083646Y-97971795D01*
X140083647Y-97971803D01*
X140084326Y-97978256D01*
X140086331Y-97984428D01*
X140086333Y-97984435D01*
X140132225Y-98125674D01*
X140142821Y-98158284D01*
X140146068Y-98163908D01*
X140146069Y-98163910D01*
X140232477Y-98313574D01*
X140237467Y-98322216D01*
X140241811Y-98327041D01*
X140241813Y-98327043D01*
X140357306Y-98455310D01*
X140364129Y-98462888D01*
X140369387Y-98466708D01*
X140369388Y-98466709D01*
X140381959Y-98475842D01*
X140517270Y-98574151D01*
X140690197Y-98651144D01*
X140875354Y-98690500D01*
X141058143Y-98690500D01*
X141064646Y-98690500D01*
X141249803Y-98651144D01*
X141422730Y-98574151D01*
X141575871Y-98462888D01*
X141581601Y-98456523D01*
X141583271Y-98455310D01*
X141585050Y-98453709D01*
X141585218Y-98453895D01*
X141623315Y-98426219D01*
X141673748Y-98415500D01*
X142806252Y-98415500D01*
X142856685Y-98426219D01*
X142894781Y-98453895D01*
X142894950Y-98453709D01*
X142896728Y-98455310D01*
X142898398Y-98456523D01*
X142904129Y-98462888D01*
X142909387Y-98466708D01*
X142909388Y-98466709D01*
X142921959Y-98475842D01*
X143057270Y-98574151D01*
X143230197Y-98651144D01*
X143415354Y-98690500D01*
X143598143Y-98690500D01*
X143604646Y-98690500D01*
X143789803Y-98651144D01*
X143962730Y-98574151D01*
X144115871Y-98462888D01*
X144242533Y-98322216D01*
X144337179Y-98158284D01*
X144395674Y-97978256D01*
X144415460Y-97790000D01*
X144395674Y-97601744D01*
X144337179Y-97421716D01*
X144242533Y-97257784D01*
X144158539Y-97164500D01*
X144120220Y-97121942D01*
X144120219Y-97121941D01*
X144115871Y-97117112D01*
X144110613Y-97113292D01*
X144110611Y-97113290D01*
X143967988Y-97009669D01*
X143967987Y-97009668D01*
X143962730Y-97005849D01*
X143956792Y-97003205D01*
X143795745Y-96931501D01*
X143795740Y-96931499D01*
X143789803Y-96928856D01*
X143783444Y-96927504D01*
X143783440Y-96927503D01*
X143611008Y-96890852D01*
X143611005Y-96890851D01*
X143604646Y-96889500D01*
X143415354Y-96889500D01*
X143408995Y-96890851D01*
X143408991Y-96890852D01*
X143236559Y-96927503D01*
X143236552Y-96927505D01*
X143230197Y-96928856D01*
X143224262Y-96931498D01*
X143224254Y-96931501D01*
X143063207Y-97003205D01*
X143063202Y-97003207D01*
X143057270Y-97005849D01*
X143052016Y-97009665D01*
X143052011Y-97009669D01*
X142909388Y-97113290D01*
X142909381Y-97113295D01*
X142904129Y-97117112D01*
X142899780Y-97121941D01*
X142899781Y-97121941D01*
X142898399Y-97123476D01*
X142896728Y-97124689D01*
X142894950Y-97126291D01*
X142894781Y-97126104D01*
X142856685Y-97153781D01*
X142806252Y-97164500D01*
X141673748Y-97164500D01*
X141623315Y-97153781D01*
X141585218Y-97126104D01*
X141585050Y-97126291D01*
X141583271Y-97124689D01*
X141581601Y-97123476D01*
X141575871Y-97117112D01*
X141570613Y-97113292D01*
X141570611Y-97113290D01*
X141427988Y-97009669D01*
X141427987Y-97009668D01*
X141422730Y-97005849D01*
X141416792Y-97003205D01*
X141255745Y-96931501D01*
X141255740Y-96931499D01*
X141249803Y-96928856D01*
X141243444Y-96927504D01*
X141243440Y-96927503D01*
X141071008Y-96890852D01*
X141071005Y-96890851D01*
X141064646Y-96889500D01*
X140875354Y-96889500D01*
X140868995Y-96890851D01*
X140868991Y-96890852D01*
X140696559Y-96927503D01*
X140696552Y-96927505D01*
X140690197Y-96928856D01*
X140684262Y-96931498D01*
X140684254Y-96931501D01*
X140523207Y-97003205D01*
X140523202Y-97003207D01*
X140517270Y-97005849D01*
X140512016Y-97009665D01*
X140512011Y-97009669D01*
X140369388Y-97113290D01*
X140369381Y-97113295D01*
X140364129Y-97117112D01*
X140359784Y-97121937D01*
X140359779Y-97121942D01*
X140241813Y-97252956D01*
X140241808Y-97252962D01*
X140237467Y-97257784D01*
X140234222Y-97263404D01*
X140234218Y-97263410D01*
X140146069Y-97416089D01*
X140146066Y-97416094D01*
X140142821Y-97421716D01*
X140140815Y-97427888D01*
X140140813Y-97427894D01*
X140086333Y-97595564D01*
X140086331Y-97595573D01*
X140084326Y-97601744D01*
X140083648Y-97608194D01*
X140083646Y-97608204D01*
X140066650Y-97769926D01*
X140064540Y-97790000D01*
X136515500Y-97790000D01*
X136515500Y-90170000D01*
X140064540Y-90170000D01*
X140065219Y-90176460D01*
X140083646Y-90351795D01*
X140083647Y-90351803D01*
X140084326Y-90358256D01*
X140086331Y-90364428D01*
X140086333Y-90364435D01*
X140140813Y-90532105D01*
X140142821Y-90538284D01*
X140146068Y-90543908D01*
X140146069Y-90543910D01*
X140194866Y-90628430D01*
X140237467Y-90702216D01*
X140241811Y-90707041D01*
X140241813Y-90707043D01*
X140359779Y-90838057D01*
X140364129Y-90842888D01*
X140517270Y-90954151D01*
X140690197Y-91031144D01*
X140875354Y-91070500D01*
X141058143Y-91070500D01*
X141064646Y-91070500D01*
X141249803Y-91031144D01*
X141422730Y-90954151D01*
X141575871Y-90842888D01*
X141702533Y-90702216D01*
X141797179Y-90538284D01*
X141855674Y-90358256D01*
X141875460Y-90170000D01*
X141855674Y-89981744D01*
X141797179Y-89801716D01*
X141791444Y-89791783D01*
X141775305Y-89740593D01*
X141782311Y-89687375D01*
X141811152Y-89642105D01*
X141908241Y-89545017D01*
X142032957Y-89420300D01*
X142073186Y-89393420D01*
X142120639Y-89383981D01*
X142173330Y-89383981D01*
X142179833Y-89383981D01*
X142364990Y-89344625D01*
X142537917Y-89267632D01*
X142691058Y-89156369D01*
X142817720Y-89015697D01*
X142912366Y-88851765D01*
X142970861Y-88671737D01*
X142990647Y-88483481D01*
X142970861Y-88295225D01*
X142912366Y-88115197D01*
X142817720Y-87951265D01*
X142753372Y-87879800D01*
X142695407Y-87815423D01*
X142695406Y-87815422D01*
X142691058Y-87810593D01*
X142685800Y-87806773D01*
X142685798Y-87806771D01*
X142543175Y-87703150D01*
X142543174Y-87703149D01*
X142537917Y-87699330D01*
X142531979Y-87696686D01*
X142370932Y-87624982D01*
X142370927Y-87624980D01*
X142364990Y-87622337D01*
X142358631Y-87620985D01*
X142358627Y-87620984D01*
X142186195Y-87584333D01*
X142186192Y-87584332D01*
X142179833Y-87582981D01*
X141990541Y-87582981D01*
X141984182Y-87584332D01*
X141984178Y-87584333D01*
X141811746Y-87620984D01*
X141811739Y-87620986D01*
X141805384Y-87622337D01*
X141799449Y-87624979D01*
X141799441Y-87624982D01*
X141638394Y-87696686D01*
X141638389Y-87696688D01*
X141632457Y-87699330D01*
X141627203Y-87703146D01*
X141627198Y-87703150D01*
X141484575Y-87806771D01*
X141484568Y-87806776D01*
X141479316Y-87810593D01*
X141474971Y-87815418D01*
X141474966Y-87815423D01*
X141357000Y-87946437D01*
X141356995Y-87946443D01*
X141352654Y-87951265D01*
X141349409Y-87956885D01*
X141349405Y-87956891D01*
X141261256Y-88109570D01*
X141261253Y-88109575D01*
X141258008Y-88115197D01*
X141256002Y-88121369D01*
X141256000Y-88121375D01*
X141201520Y-88289045D01*
X141201518Y-88289054D01*
X141199513Y-88295225D01*
X141198834Y-88301684D01*
X141198834Y-88301685D01*
X141181865Y-88463131D01*
X141170465Y-88503553D01*
X141146225Y-88537850D01*
X140582696Y-89101379D01*
X140574511Y-89108827D01*
X140568123Y-89112882D01*
X140562788Y-89118562D01*
X140562783Y-89118567D01*
X140522096Y-89161893D01*
X140519392Y-89164684D01*
X140502628Y-89181448D01*
X140502621Y-89181455D01*
X140499880Y-89184197D01*
X140497500Y-89187264D01*
X140497489Y-89187277D01*
X140497400Y-89187393D01*
X140489842Y-89196238D01*
X140465280Y-89222395D01*
X140465273Y-89222404D01*
X140459938Y-89228086D01*
X140456182Y-89234917D01*
X140456179Y-89234922D01*
X140450285Y-89245643D01*
X140439609Y-89261895D01*
X140432109Y-89271564D01*
X140432101Y-89271575D01*
X140427327Y-89277732D01*
X140424234Y-89284876D01*
X140424229Y-89284887D01*
X140409974Y-89317828D01*
X140404838Y-89328311D01*
X140393593Y-89348767D01*
X140383803Y-89366576D01*
X140381864Y-89374124D01*
X140381863Y-89374129D01*
X140378822Y-89385975D01*
X140372521Y-89404379D01*
X140367658Y-89415616D01*
X140367656Y-89415620D01*
X140364562Y-89422772D01*
X140363342Y-89430469D01*
X140363342Y-89430472D01*
X140357727Y-89465918D01*
X140355359Y-89477351D01*
X140352339Y-89489114D01*
X140324385Y-89541250D01*
X140241813Y-89632956D01*
X140241808Y-89632962D01*
X140237467Y-89637784D01*
X140234222Y-89643404D01*
X140234218Y-89643410D01*
X140146069Y-89796089D01*
X140146068Y-89796092D01*
X140142821Y-89801716D01*
X140140815Y-89807888D01*
X140140813Y-89807894D01*
X140086333Y-89975564D01*
X140086331Y-89975573D01*
X140084326Y-89981744D01*
X140083648Y-89988194D01*
X140083646Y-89988204D01*
X140065962Y-90156464D01*
X140064540Y-90170000D01*
X136515500Y-90170000D01*
X136515500Y-77728793D01*
X136516021Y-77717737D01*
X136517673Y-77710351D01*
X136515561Y-77643131D01*
X136515500Y-77639237D01*
X136515500Y-77615560D01*
X136515500Y-77611668D01*
X136514998Y-77607701D01*
X136514081Y-77596044D01*
X136512710Y-77552391D01*
X136507118Y-77533146D01*
X136503174Y-77514101D01*
X136500664Y-77494226D01*
X136484579Y-77453601D01*
X136480806Y-77442580D01*
X136468618Y-77400628D01*
X136458417Y-77383378D01*
X136449863Y-77365919D01*
X136442486Y-77347286D01*
X136416808Y-77311943D01*
X136410401Y-77302189D01*
X136392142Y-77271314D01*
X136392141Y-77271312D01*
X136388170Y-77264598D01*
X136374005Y-77250433D01*
X136361370Y-77235640D01*
X136349594Y-77219431D01*
X136343583Y-77214458D01*
X136343581Y-77214456D01*
X136315941Y-77191591D01*
X136307300Y-77183728D01*
X136065019Y-76941447D01*
X147916494Y-76941447D01*
X147917173Y-76947907D01*
X147935600Y-77123242D01*
X147935601Y-77123250D01*
X147936280Y-77129703D01*
X147938285Y-77135875D01*
X147938287Y-77135882D01*
X147978317Y-77259079D01*
X147994775Y-77309731D01*
X147998022Y-77315355D01*
X147998023Y-77315357D01*
X148079110Y-77455805D01*
X148089421Y-77473663D01*
X148093765Y-77478488D01*
X148093767Y-77478490D01*
X148199614Y-77596044D01*
X148216083Y-77614335D01*
X148369224Y-77725598D01*
X148542151Y-77802591D01*
X148727308Y-77841947D01*
X148910097Y-77841947D01*
X148916600Y-77841947D01*
X149101757Y-77802591D01*
X149274684Y-77725598D01*
X149427825Y-77614335D01*
X149554487Y-77473663D01*
X149649133Y-77309731D01*
X149707628Y-77129703D01*
X149725275Y-76961795D01*
X149736676Y-76921374D01*
X149760916Y-76887075D01*
X149786175Y-76861817D01*
X149826403Y-76834938D01*
X149873855Y-76825500D01*
X151696252Y-76825500D01*
X151746685Y-76836219D01*
X151784781Y-76863895D01*
X151784950Y-76863709D01*
X151786728Y-76865310D01*
X151788398Y-76866523D01*
X151794129Y-76872888D01*
X151799387Y-76876708D01*
X151799388Y-76876709D01*
X151862500Y-76922562D01*
X151947270Y-76984151D01*
X152120197Y-77061144D01*
X152305354Y-77100500D01*
X152488143Y-77100500D01*
X152494646Y-77100500D01*
X152679803Y-77061144D01*
X152852730Y-76984151D01*
X153005871Y-76872888D01*
X153132533Y-76732216D01*
X153227179Y-76568284D01*
X153285674Y-76388256D01*
X153305460Y-76200000D01*
X153285674Y-76011744D01*
X153227179Y-75831716D01*
X153132533Y-75667784D01*
X153066160Y-75594070D01*
X153010220Y-75531942D01*
X153010219Y-75531941D01*
X153005871Y-75527112D01*
X153000613Y-75523292D01*
X153000611Y-75523290D01*
X152857988Y-75419669D01*
X152857987Y-75419668D01*
X152852730Y-75415849D01*
X152846792Y-75413205D01*
X152685745Y-75341501D01*
X152685740Y-75341499D01*
X152679803Y-75338856D01*
X152673444Y-75337504D01*
X152673440Y-75337503D01*
X152501008Y-75300852D01*
X152501005Y-75300851D01*
X152494646Y-75299500D01*
X152305354Y-75299500D01*
X152298995Y-75300851D01*
X152298991Y-75300852D01*
X152126559Y-75337503D01*
X152126552Y-75337505D01*
X152120197Y-75338856D01*
X152114262Y-75341498D01*
X152114254Y-75341501D01*
X151953207Y-75413205D01*
X151953202Y-75413207D01*
X151947270Y-75415849D01*
X151942016Y-75419665D01*
X151942011Y-75419669D01*
X151799388Y-75523290D01*
X151799381Y-75523295D01*
X151794129Y-75527112D01*
X151789780Y-75531941D01*
X151789781Y-75531941D01*
X151788399Y-75533476D01*
X151786728Y-75534689D01*
X151784950Y-75536291D01*
X151784781Y-75536104D01*
X151746685Y-75563781D01*
X151696252Y-75574500D01*
X149641172Y-75574500D01*
X149630119Y-75573979D01*
X149622733Y-75572328D01*
X149614935Y-75572573D01*
X149555545Y-75574439D01*
X149551651Y-75574500D01*
X149524051Y-75574500D01*
X149520200Y-75574986D01*
X149520169Y-75574988D01*
X149520041Y-75575005D01*
X149508430Y-75575918D01*
X149472572Y-75577045D01*
X149472565Y-75577046D01*
X149464773Y-75577291D01*
X149457289Y-75579465D01*
X149457278Y-75579467D01*
X149445529Y-75582881D01*
X149426484Y-75586825D01*
X149414348Y-75588358D01*
X149414345Y-75588358D01*
X149406609Y-75589336D01*
X149399361Y-75592205D01*
X149399351Y-75592208D01*
X149365993Y-75605415D01*
X149354951Y-75609196D01*
X149320498Y-75619207D01*
X149320493Y-75619208D01*
X149313011Y-75621383D01*
X149306303Y-75625349D01*
X149306298Y-75625352D01*
X149295765Y-75631581D01*
X149278301Y-75640136D01*
X149266925Y-75644640D01*
X149266918Y-75644643D01*
X149259669Y-75647514D01*
X149253363Y-75652094D01*
X149253358Y-75652098D01*
X149224328Y-75673189D01*
X149214570Y-75679598D01*
X149183699Y-75697856D01*
X149176980Y-75701830D01*
X149171464Y-75707344D01*
X149171457Y-75707351D01*
X149162808Y-75716000D01*
X149148025Y-75728626D01*
X149138128Y-75735817D01*
X149138121Y-75735823D01*
X149131814Y-75740406D01*
X149126847Y-75746408D01*
X149126836Y-75746420D01*
X149103971Y-75774059D01*
X149096111Y-75782697D01*
X148874179Y-76004630D01*
X148833954Y-76031508D01*
X148786501Y-76040947D01*
X148727308Y-76040947D01*
X148720949Y-76042298D01*
X148720945Y-76042299D01*
X148548513Y-76078950D01*
X148548506Y-76078952D01*
X148542151Y-76080303D01*
X148536216Y-76082945D01*
X148536208Y-76082948D01*
X148375161Y-76154652D01*
X148375156Y-76154654D01*
X148369224Y-76157296D01*
X148363970Y-76161112D01*
X148363965Y-76161116D01*
X148221342Y-76264737D01*
X148221335Y-76264742D01*
X148216083Y-76268559D01*
X148211738Y-76273384D01*
X148211733Y-76273389D01*
X148093767Y-76404403D01*
X148093762Y-76404409D01*
X148089421Y-76409231D01*
X148086176Y-76414851D01*
X148086172Y-76414857D01*
X147998023Y-76567536D01*
X147998020Y-76567541D01*
X147994775Y-76573163D01*
X147992769Y-76579335D01*
X147992767Y-76579341D01*
X147938287Y-76747011D01*
X147938285Y-76747020D01*
X147936280Y-76753191D01*
X147935602Y-76759641D01*
X147935600Y-76759651D01*
X147921944Y-76889593D01*
X147916494Y-76941447D01*
X136065019Y-76941447D01*
X133604427Y-74480854D01*
X133586870Y-74454578D01*
X134639500Y-74454578D01*
X134639501Y-74457872D01*
X134639853Y-74461150D01*
X134639854Y-74461161D01*
X134645079Y-74509768D01*
X134645080Y-74509773D01*
X134645909Y-74517483D01*
X134648619Y-74524749D01*
X134648620Y-74524753D01*
X134682217Y-74614831D01*
X134696204Y-74652331D01*
X134701518Y-74659430D01*
X134701519Y-74659431D01*
X134767149Y-74747102D01*
X134782454Y-74767546D01*
X134897669Y-74853796D01*
X135032517Y-74904091D01*
X135092127Y-74910500D01*
X136687872Y-74910499D01*
X136747483Y-74904091D01*
X136882331Y-74853796D01*
X136997546Y-74767546D01*
X137083796Y-74652331D01*
X137134091Y-74517483D01*
X137140500Y-74457873D01*
X137140499Y-74391861D01*
X137156045Y-74331748D01*
X137198788Y-74286706D01*
X137258008Y-74268033D01*
X137318856Y-74280412D01*
X137366074Y-74320739D01*
X137465296Y-74462442D01*
X137465299Y-74462446D01*
X137468402Y-74466877D01*
X137623123Y-74621598D01*
X137627555Y-74624701D01*
X137627557Y-74624703D01*
X137667014Y-74652331D01*
X137802361Y-74747102D01*
X137807261Y-74749387D01*
X137807263Y-74749388D01*
X137936703Y-74809747D01*
X138000670Y-74839575D01*
X138145320Y-74878334D01*
X138206790Y-74894805D01*
X138206791Y-74894805D01*
X138212023Y-74896207D01*
X138430000Y-74915277D01*
X138647977Y-74896207D01*
X138859330Y-74839575D01*
X139057639Y-74747102D01*
X139236877Y-74621598D01*
X139391598Y-74466877D01*
X139517102Y-74287639D01*
X139587617Y-74136417D01*
X139633375Y-74084241D01*
X139700000Y-74064821D01*
X139766625Y-74084241D01*
X139812382Y-74136417D01*
X139880609Y-74282732D01*
X139880613Y-74282739D01*
X139882898Y-74287639D01*
X139885997Y-74292066D01*
X139885999Y-74292068D01*
X140005296Y-74462442D01*
X140005299Y-74462446D01*
X140008402Y-74466877D01*
X140163123Y-74621598D01*
X140167555Y-74624701D01*
X140167557Y-74624703D01*
X140207014Y-74652331D01*
X140342361Y-74747102D01*
X140347261Y-74749387D01*
X140347263Y-74749388D01*
X140476703Y-74809747D01*
X140540670Y-74839575D01*
X140685320Y-74878334D01*
X140746790Y-74894805D01*
X140746791Y-74894805D01*
X140752023Y-74896207D01*
X140970000Y-74915277D01*
X141187977Y-74896207D01*
X141399330Y-74839575D01*
X141597639Y-74747102D01*
X141776877Y-74621598D01*
X141931598Y-74466877D01*
X142057102Y-74287639D01*
X142127617Y-74136417D01*
X142173375Y-74084241D01*
X142240000Y-74064821D01*
X142306625Y-74084241D01*
X142352382Y-74136417D01*
X142420609Y-74282732D01*
X142420613Y-74282739D01*
X142422898Y-74287639D01*
X142425997Y-74292066D01*
X142425999Y-74292068D01*
X142545296Y-74462442D01*
X142545299Y-74462446D01*
X142548402Y-74466877D01*
X142703123Y-74621598D01*
X142707555Y-74624701D01*
X142707557Y-74624703D01*
X142747014Y-74652331D01*
X142882361Y-74747102D01*
X142887261Y-74749387D01*
X142887263Y-74749388D01*
X143016703Y-74809747D01*
X143080670Y-74839575D01*
X143225320Y-74878334D01*
X143286790Y-74894805D01*
X143286791Y-74894805D01*
X143292023Y-74896207D01*
X143510000Y-74915277D01*
X143727977Y-74896207D01*
X143939330Y-74839575D01*
X144137639Y-74747102D01*
X144316877Y-74621598D01*
X144471598Y-74466877D01*
X144597102Y-74287639D01*
X144667617Y-74136417D01*
X144713375Y-74084241D01*
X144780000Y-74064821D01*
X144846625Y-74084241D01*
X144892382Y-74136417D01*
X144960609Y-74282732D01*
X144960613Y-74282739D01*
X144962898Y-74287639D01*
X144965997Y-74292066D01*
X144965999Y-74292068D01*
X145085296Y-74462442D01*
X145085299Y-74462446D01*
X145088402Y-74466877D01*
X145243123Y-74621598D01*
X145247555Y-74624701D01*
X145247557Y-74624703D01*
X145287014Y-74652331D01*
X145422361Y-74747102D01*
X145427261Y-74749387D01*
X145427263Y-74749388D01*
X145556703Y-74809747D01*
X145620670Y-74839575D01*
X145765320Y-74878334D01*
X145826790Y-74894805D01*
X145826791Y-74894805D01*
X145832023Y-74896207D01*
X146050000Y-74915277D01*
X146267977Y-74896207D01*
X146479330Y-74839575D01*
X146677639Y-74747102D01*
X146856877Y-74621598D01*
X147011598Y-74466877D01*
X147137102Y-74287639D01*
X147207617Y-74136417D01*
X147253375Y-74084241D01*
X147320000Y-74064821D01*
X147386625Y-74084241D01*
X147432382Y-74136417D01*
X147500609Y-74282732D01*
X147500613Y-74282739D01*
X147502898Y-74287639D01*
X147505997Y-74292066D01*
X147505999Y-74292068D01*
X147625296Y-74462442D01*
X147625299Y-74462446D01*
X147628402Y-74466877D01*
X147783123Y-74621598D01*
X147787555Y-74624701D01*
X147787557Y-74624703D01*
X147827014Y-74652331D01*
X147962361Y-74747102D01*
X147967261Y-74749387D01*
X147967263Y-74749388D01*
X148096703Y-74809747D01*
X148160670Y-74839575D01*
X148305320Y-74878334D01*
X148366790Y-74894805D01*
X148366791Y-74894805D01*
X148372023Y-74896207D01*
X148590000Y-74915277D01*
X148807977Y-74896207D01*
X149019330Y-74839575D01*
X149217639Y-74747102D01*
X149396877Y-74621598D01*
X149551598Y-74466877D01*
X149677102Y-74287639D01*
X149769575Y-74089330D01*
X149826207Y-73877977D01*
X149845277Y-73660000D01*
X149826207Y-73442023D01*
X149769575Y-73230670D01*
X149677102Y-73032362D01*
X149551598Y-72853123D01*
X149396877Y-72698402D01*
X149392446Y-72695299D01*
X149392442Y-72695296D01*
X149222068Y-72575999D01*
X149222066Y-72575997D01*
X149217639Y-72572898D01*
X149212742Y-72570614D01*
X149212736Y-72570611D01*
X149024236Y-72482712D01*
X149024229Y-72482709D01*
X149019330Y-72480425D01*
X149014103Y-72479024D01*
X149014102Y-72479024D01*
X148813209Y-72425194D01*
X148813199Y-72425192D01*
X148807977Y-72423793D01*
X148802585Y-72423321D01*
X148802578Y-72423320D01*
X148595395Y-72405195D01*
X148590000Y-72404723D01*
X148584605Y-72405195D01*
X148377421Y-72423320D01*
X148377412Y-72423321D01*
X148372023Y-72423793D01*
X148366802Y-72425191D01*
X148366790Y-72425194D01*
X148165897Y-72479024D01*
X148165892Y-72479025D01*
X148160670Y-72480425D01*
X148155774Y-72482707D01*
X148155763Y-72482712D01*
X147967272Y-72570608D01*
X147967268Y-72570610D01*
X147962362Y-72572898D01*
X147957929Y-72576001D01*
X147957922Y-72576006D01*
X147787558Y-72695296D01*
X147787553Y-72695299D01*
X147783123Y-72698402D01*
X147779299Y-72702225D01*
X147779293Y-72702231D01*
X147632231Y-72849293D01*
X147632225Y-72849299D01*
X147628402Y-72853123D01*
X147625299Y-72857553D01*
X147625296Y-72857558D01*
X147506006Y-73027922D01*
X147506001Y-73027929D01*
X147502898Y-73032362D01*
X147500610Y-73037268D01*
X147500608Y-73037272D01*
X147432382Y-73183583D01*
X147386625Y-73235759D01*
X147320000Y-73255178D01*
X147253375Y-73235759D01*
X147207618Y-73183583D01*
X147140472Y-73039590D01*
X147137102Y-73032362D01*
X147011598Y-72853123D01*
X146856877Y-72698402D01*
X146852446Y-72695299D01*
X146852442Y-72695296D01*
X146682068Y-72575999D01*
X146682066Y-72575997D01*
X146677639Y-72572898D01*
X146672742Y-72570614D01*
X146672736Y-72570611D01*
X146484236Y-72482712D01*
X146484229Y-72482709D01*
X146479330Y-72480425D01*
X146474103Y-72479024D01*
X146474102Y-72479024D01*
X146273209Y-72425194D01*
X146273199Y-72425192D01*
X146267977Y-72423793D01*
X146262585Y-72423321D01*
X146262578Y-72423320D01*
X146055395Y-72405195D01*
X146050000Y-72404723D01*
X146044605Y-72405195D01*
X145837421Y-72423320D01*
X145837412Y-72423321D01*
X145832023Y-72423793D01*
X145826802Y-72425191D01*
X145826790Y-72425194D01*
X145625897Y-72479024D01*
X145625892Y-72479025D01*
X145620670Y-72480425D01*
X145615774Y-72482707D01*
X145615763Y-72482712D01*
X145427272Y-72570608D01*
X145427268Y-72570610D01*
X145422362Y-72572898D01*
X145417929Y-72576001D01*
X145417922Y-72576006D01*
X145247558Y-72695296D01*
X145247553Y-72695299D01*
X145243123Y-72698402D01*
X145239299Y-72702225D01*
X145239293Y-72702231D01*
X145092231Y-72849293D01*
X145092225Y-72849299D01*
X145088402Y-72853123D01*
X145085299Y-72857553D01*
X145085296Y-72857558D01*
X144966006Y-73027922D01*
X144966001Y-73027929D01*
X144962898Y-73032362D01*
X144960610Y-73037268D01*
X144960608Y-73037272D01*
X144892382Y-73183583D01*
X144846625Y-73235759D01*
X144780000Y-73255178D01*
X144713375Y-73235759D01*
X144667618Y-73183583D01*
X144600472Y-73039590D01*
X144597102Y-73032362D01*
X144471598Y-72853123D01*
X144316877Y-72698402D01*
X144312446Y-72695299D01*
X144312442Y-72695296D01*
X144142068Y-72575999D01*
X144142066Y-72575997D01*
X144137639Y-72572898D01*
X144132742Y-72570614D01*
X144132736Y-72570611D01*
X143944236Y-72482712D01*
X143944229Y-72482709D01*
X143939330Y-72480425D01*
X143934103Y-72479024D01*
X143934102Y-72479024D01*
X143733209Y-72425194D01*
X143733199Y-72425192D01*
X143727977Y-72423793D01*
X143722585Y-72423321D01*
X143722578Y-72423320D01*
X143515395Y-72405195D01*
X143510000Y-72404723D01*
X143504605Y-72405195D01*
X143297421Y-72423320D01*
X143297412Y-72423321D01*
X143292023Y-72423793D01*
X143286802Y-72425191D01*
X143286790Y-72425194D01*
X143085897Y-72479024D01*
X143085892Y-72479025D01*
X143080670Y-72480425D01*
X143075774Y-72482707D01*
X143075763Y-72482712D01*
X142887272Y-72570608D01*
X142887268Y-72570610D01*
X142882362Y-72572898D01*
X142877929Y-72576001D01*
X142877922Y-72576006D01*
X142707558Y-72695296D01*
X142707553Y-72695299D01*
X142703123Y-72698402D01*
X142699299Y-72702225D01*
X142699293Y-72702231D01*
X142552231Y-72849293D01*
X142552225Y-72849299D01*
X142548402Y-72853123D01*
X142545299Y-72857553D01*
X142545296Y-72857558D01*
X142426006Y-73027922D01*
X142426001Y-73027929D01*
X142422898Y-73032362D01*
X142420610Y-73037268D01*
X142420608Y-73037272D01*
X142352382Y-73183583D01*
X142306625Y-73235759D01*
X142240000Y-73255178D01*
X142173375Y-73235759D01*
X142127618Y-73183583D01*
X142060472Y-73039590D01*
X142057102Y-73032362D01*
X141931598Y-72853123D01*
X141776877Y-72698402D01*
X141772446Y-72695299D01*
X141772442Y-72695296D01*
X141602068Y-72575999D01*
X141602066Y-72575997D01*
X141597639Y-72572898D01*
X141592742Y-72570614D01*
X141592736Y-72570611D01*
X141404236Y-72482712D01*
X141404229Y-72482709D01*
X141399330Y-72480425D01*
X141394103Y-72479024D01*
X141394102Y-72479024D01*
X141193209Y-72425194D01*
X141193199Y-72425192D01*
X141187977Y-72423793D01*
X141182585Y-72423321D01*
X141182578Y-72423320D01*
X140975395Y-72405195D01*
X140970000Y-72404723D01*
X140964605Y-72405195D01*
X140757421Y-72423320D01*
X140757412Y-72423321D01*
X140752023Y-72423793D01*
X140746802Y-72425191D01*
X140746790Y-72425194D01*
X140545897Y-72479024D01*
X140545892Y-72479025D01*
X140540670Y-72480425D01*
X140535774Y-72482707D01*
X140535763Y-72482712D01*
X140347272Y-72570608D01*
X140347268Y-72570610D01*
X140342362Y-72572898D01*
X140337929Y-72576001D01*
X140337922Y-72576006D01*
X140167558Y-72695296D01*
X140167553Y-72695299D01*
X140163123Y-72698402D01*
X140159299Y-72702225D01*
X140159293Y-72702231D01*
X140012231Y-72849293D01*
X140012225Y-72849299D01*
X140008402Y-72853123D01*
X140005299Y-72857553D01*
X140005296Y-72857558D01*
X139886006Y-73027922D01*
X139886001Y-73027929D01*
X139882898Y-73032362D01*
X139880610Y-73037268D01*
X139880608Y-73037272D01*
X139812382Y-73183583D01*
X139766625Y-73235759D01*
X139700000Y-73255178D01*
X139633375Y-73235759D01*
X139587618Y-73183583D01*
X139520472Y-73039590D01*
X139517102Y-73032362D01*
X139391598Y-72853123D01*
X139236877Y-72698402D01*
X139232446Y-72695299D01*
X139232442Y-72695296D01*
X139062068Y-72575999D01*
X139062066Y-72575997D01*
X139057639Y-72572898D01*
X139052742Y-72570614D01*
X139052736Y-72570611D01*
X138864236Y-72482712D01*
X138864229Y-72482709D01*
X138859330Y-72480425D01*
X138854103Y-72479024D01*
X138854102Y-72479024D01*
X138653209Y-72425194D01*
X138653199Y-72425192D01*
X138647977Y-72423793D01*
X138642585Y-72423321D01*
X138642578Y-72423320D01*
X138435395Y-72405195D01*
X138430000Y-72404723D01*
X138424605Y-72405195D01*
X138217421Y-72423320D01*
X138217412Y-72423321D01*
X138212023Y-72423793D01*
X138206802Y-72425191D01*
X138206790Y-72425194D01*
X138005897Y-72479024D01*
X138005892Y-72479025D01*
X138000670Y-72480425D01*
X137995774Y-72482707D01*
X137995763Y-72482712D01*
X137807272Y-72570608D01*
X137807268Y-72570610D01*
X137802362Y-72572898D01*
X137797929Y-72576001D01*
X137797922Y-72576006D01*
X137627558Y-72695296D01*
X137627553Y-72695299D01*
X137623123Y-72698402D01*
X137619299Y-72702225D01*
X137619293Y-72702231D01*
X137472231Y-72849293D01*
X137472225Y-72849299D01*
X137468402Y-72853123D01*
X137465299Y-72857553D01*
X137465296Y-72857558D01*
X137366074Y-72999263D01*
X137318857Y-73039590D01*
X137258009Y-73051970D01*
X137198789Y-73033298D01*
X137156046Y-72988256D01*
X137140499Y-72928140D01*
X137140499Y-72865439D01*
X137140499Y-72862128D01*
X137134091Y-72802517D01*
X137083796Y-72667669D01*
X136997546Y-72552454D01*
X136956099Y-72521427D01*
X136889431Y-72471519D01*
X136889430Y-72471518D01*
X136882331Y-72466204D01*
X136811965Y-72439959D01*
X136754752Y-72418620D01*
X136754750Y-72418619D01*
X136747483Y-72415909D01*
X136739770Y-72415079D01*
X136739767Y-72415079D01*
X136691180Y-72409855D01*
X136691169Y-72409854D01*
X136687873Y-72409500D01*
X136684550Y-72409500D01*
X135095439Y-72409500D01*
X135095420Y-72409500D01*
X135092128Y-72409501D01*
X135088850Y-72409853D01*
X135088838Y-72409854D01*
X135040231Y-72415079D01*
X135040225Y-72415080D01*
X135032517Y-72415909D01*
X135025252Y-72418618D01*
X135025246Y-72418620D01*
X134905980Y-72463104D01*
X134905978Y-72463104D01*
X134897669Y-72466204D01*
X134890572Y-72471516D01*
X134890568Y-72471519D01*
X134789550Y-72547141D01*
X134789546Y-72547144D01*
X134782454Y-72552454D01*
X134777144Y-72559546D01*
X134777141Y-72559550D01*
X134701519Y-72660568D01*
X134701516Y-72660572D01*
X134696204Y-72667669D01*
X134693104Y-72675978D01*
X134693104Y-72675980D01*
X134648620Y-72795247D01*
X134648619Y-72795250D01*
X134645909Y-72802517D01*
X134645079Y-72810227D01*
X134645079Y-72810232D01*
X134639855Y-72858819D01*
X134639854Y-72858831D01*
X134639500Y-72862127D01*
X134639500Y-72865448D01*
X134639500Y-72865449D01*
X134639500Y-74454560D01*
X134639500Y-74454578D01*
X133586870Y-74454578D01*
X133577547Y-74440626D01*
X133568108Y-74393173D01*
X133568108Y-72903102D01*
X133577547Y-72855649D01*
X133604427Y-72815421D01*
X136277559Y-70142289D01*
X139335270Y-67084578D01*
X171229500Y-67084578D01*
X171229501Y-67087872D01*
X171229853Y-67091150D01*
X171229854Y-67091161D01*
X171235079Y-67139768D01*
X171235080Y-67139773D01*
X171235909Y-67147483D01*
X171238619Y-67154749D01*
X171238620Y-67154753D01*
X171272217Y-67244831D01*
X171286204Y-67282331D01*
X171291518Y-67289430D01*
X171291519Y-67289431D01*
X171301299Y-67302496D01*
X171372454Y-67397546D01*
X171487669Y-67483796D01*
X171622517Y-67534091D01*
X171682127Y-67540500D01*
X173777872Y-67540499D01*
X173837483Y-67534091D01*
X173972331Y-67483796D01*
X174087546Y-67397546D01*
X174173796Y-67282331D01*
X174180913Y-67263248D01*
X179465749Y-67263248D01*
X179473855Y-67274439D01*
X179502717Y-67296903D01*
X179511279Y-67302496D01*
X179720885Y-67415929D01*
X179730239Y-67420032D01*
X179955656Y-67497417D01*
X179965568Y-67499928D01*
X180200643Y-67539155D01*
X180210839Y-67540000D01*
X180449161Y-67540000D01*
X180459356Y-67539155D01*
X180694431Y-67499928D01*
X180704343Y-67497417D01*
X180929760Y-67420032D01*
X180939114Y-67415929D01*
X181148723Y-67302495D01*
X181157281Y-67296903D01*
X181186146Y-67274437D01*
X181194250Y-67263250D01*
X181187589Y-67251142D01*
X180341542Y-66405095D01*
X180330000Y-66398431D01*
X180318457Y-66405095D01*
X179472408Y-67251143D01*
X179465749Y-67263248D01*
X174180913Y-67263248D01*
X174224091Y-67147483D01*
X174230500Y-67087873D01*
X174230500Y-66045117D01*
X178825283Y-66045117D01*
X178844962Y-66282618D01*
X178846646Y-66292712D01*
X178905153Y-66523747D01*
X178908472Y-66533414D01*
X179004208Y-66751673D01*
X179009070Y-66760656D01*
X179098999Y-66898304D01*
X179106963Y-66906024D01*
X179116345Y-66900100D01*
X179964904Y-66051542D01*
X179971568Y-66040000D01*
X180688431Y-66040000D01*
X180695095Y-66051542D01*
X181543653Y-66900100D01*
X181553034Y-66906024D01*
X181561002Y-66898299D01*
X181650924Y-66760664D01*
X181655792Y-66751669D01*
X181751527Y-66533414D01*
X181754846Y-66523747D01*
X181813353Y-66292712D01*
X181815037Y-66282618D01*
X181834717Y-66045117D01*
X181834717Y-66034883D01*
X181815037Y-65797381D01*
X181813353Y-65787287D01*
X181754846Y-65556252D01*
X181751527Y-65546585D01*
X181655792Y-65328330D01*
X181650924Y-65319335D01*
X181561002Y-65181699D01*
X181553034Y-65173974D01*
X181543653Y-65179898D01*
X180695095Y-66028457D01*
X180688431Y-66040000D01*
X179971568Y-66040000D01*
X179964904Y-66028457D01*
X179116345Y-65179898D01*
X179106964Y-65173974D01*
X179098997Y-65181699D01*
X179009072Y-65319338D01*
X179004207Y-65328328D01*
X178908472Y-65546585D01*
X178905153Y-65556252D01*
X178846646Y-65787287D01*
X178844962Y-65797381D01*
X178825283Y-66034883D01*
X178825283Y-66045117D01*
X174230500Y-66045117D01*
X174230499Y-64992128D01*
X174224091Y-64932517D01*
X174180912Y-64816749D01*
X179465748Y-64816749D01*
X179472408Y-64828855D01*
X180318457Y-65674904D01*
X180330000Y-65681568D01*
X180341542Y-65674904D01*
X181187590Y-64828855D01*
X181194250Y-64816749D01*
X181186143Y-64805559D01*
X181157286Y-64783099D01*
X181148719Y-64777503D01*
X180939114Y-64664070D01*
X180929760Y-64659967D01*
X180704343Y-64582582D01*
X180694431Y-64580071D01*
X180459356Y-64540844D01*
X180449161Y-64540000D01*
X180210839Y-64540000D01*
X180200643Y-64540844D01*
X179965568Y-64580071D01*
X179955656Y-64582582D01*
X179730239Y-64659967D01*
X179720885Y-64664070D01*
X179511276Y-64777504D01*
X179502717Y-64783096D01*
X179473854Y-64805560D01*
X179465748Y-64816749D01*
X174180912Y-64816749D01*
X174173796Y-64797669D01*
X174087546Y-64682454D01*
X173972331Y-64596204D01*
X173837483Y-64545909D01*
X173829770Y-64545079D01*
X173829767Y-64545079D01*
X173781180Y-64539855D01*
X173781169Y-64539854D01*
X173777873Y-64539500D01*
X173774550Y-64539500D01*
X171685439Y-64539500D01*
X171685420Y-64539500D01*
X171682128Y-64539501D01*
X171678850Y-64539853D01*
X171678838Y-64539854D01*
X171630231Y-64545079D01*
X171630225Y-64545080D01*
X171622517Y-64545909D01*
X171615252Y-64548618D01*
X171615246Y-64548620D01*
X171495980Y-64593104D01*
X171495978Y-64593104D01*
X171487669Y-64596204D01*
X171480572Y-64601516D01*
X171480568Y-64601519D01*
X171379550Y-64677141D01*
X171379546Y-64677144D01*
X171372454Y-64682454D01*
X171367144Y-64689546D01*
X171367141Y-64689550D01*
X171291519Y-64790568D01*
X171291516Y-64790572D01*
X171286204Y-64797669D01*
X171283104Y-64805978D01*
X171283104Y-64805980D01*
X171238620Y-64925247D01*
X171238619Y-64925250D01*
X171235909Y-64932517D01*
X171235079Y-64940227D01*
X171235079Y-64940232D01*
X171229855Y-64988819D01*
X171229854Y-64988831D01*
X171229500Y-64992127D01*
X171229500Y-64995448D01*
X171229500Y-64995449D01*
X171229500Y-67084560D01*
X171229500Y-67084578D01*
X139335270Y-67084578D01*
X142432311Y-63987536D01*
X142440481Y-63980102D01*
X142446877Y-63976044D01*
X142492918Y-63927014D01*
X142495535Y-63924312D01*
X142515120Y-63904729D01*
X142517585Y-63901550D01*
X142525167Y-63892674D01*
X142555062Y-63860840D01*
X142564713Y-63843281D01*
X142575390Y-63827028D01*
X142587673Y-63811194D01*
X142605018Y-63771110D01*
X142610151Y-63760629D01*
X142631197Y-63722350D01*
X142636179Y-63702942D01*
X142642482Y-63684534D01*
X142650437Y-63666154D01*
X142657271Y-63623002D01*
X142659633Y-63611596D01*
X142670500Y-63569277D01*
X142670500Y-63549241D01*
X142672027Y-63529843D01*
X142673939Y-63517771D01*
X142673938Y-63517771D01*
X142675160Y-63510062D01*
X142671050Y-63466582D01*
X142670500Y-63454913D01*
X142670500Y-62735452D01*
X142679939Y-62687999D01*
X142706819Y-62647771D01*
X143457772Y-61896819D01*
X143498000Y-61869939D01*
X143545453Y-61860500D01*
X143598143Y-61860500D01*
X143604646Y-61860500D01*
X143789803Y-61821144D01*
X143962730Y-61744151D01*
X144115871Y-61632888D01*
X144242533Y-61492216D01*
X144337179Y-61328284D01*
X144395674Y-61148256D01*
X144415460Y-60960000D01*
X144395674Y-60771744D01*
X144337179Y-60591716D01*
X144242533Y-60427784D01*
X144115871Y-60287112D01*
X144110613Y-60283292D01*
X144110611Y-60283290D01*
X143967988Y-60179669D01*
X143967987Y-60179668D01*
X143962730Y-60175849D01*
X143956792Y-60173205D01*
X143795745Y-60101501D01*
X143795740Y-60101499D01*
X143789803Y-60098856D01*
X143783444Y-60097504D01*
X143783440Y-60097503D01*
X143611008Y-60060852D01*
X143611005Y-60060851D01*
X143604646Y-60059500D01*
X143415354Y-60059500D01*
X143408995Y-60060851D01*
X143408991Y-60060852D01*
X143236559Y-60097503D01*
X143236552Y-60097505D01*
X143230197Y-60098856D01*
X143224262Y-60101498D01*
X143224254Y-60101501D01*
X143063207Y-60173205D01*
X143063202Y-60173207D01*
X143057270Y-60175849D01*
X143052016Y-60179665D01*
X143052011Y-60179669D01*
X142947885Y-60255321D01*
X142900781Y-60276293D01*
X142849219Y-60276293D01*
X142802115Y-60255321D01*
X142697988Y-60179669D01*
X142697987Y-60179668D01*
X142692730Y-60175849D01*
X142686792Y-60173205D01*
X142525745Y-60101501D01*
X142525740Y-60101499D01*
X142519803Y-60098856D01*
X142513444Y-60097504D01*
X142513440Y-60097503D01*
X142341008Y-60060852D01*
X142341005Y-60060851D01*
X142334646Y-60059500D01*
X142145354Y-60059500D01*
X142138995Y-60060851D01*
X142138991Y-60060852D01*
X141966559Y-60097503D01*
X141966552Y-60097505D01*
X141960197Y-60098856D01*
X141954262Y-60101498D01*
X141954254Y-60101501D01*
X141793207Y-60173205D01*
X141793202Y-60173207D01*
X141787270Y-60175849D01*
X141782016Y-60179665D01*
X141782011Y-60179669D01*
X141639388Y-60283290D01*
X141639381Y-60283295D01*
X141634129Y-60287112D01*
X141629784Y-60291937D01*
X141629779Y-60291942D01*
X141511813Y-60422956D01*
X141511808Y-60422962D01*
X141507467Y-60427784D01*
X141504222Y-60433404D01*
X141504218Y-60433410D01*
X141416069Y-60586089D01*
X141416066Y-60586094D01*
X141412821Y-60591716D01*
X141410815Y-60597888D01*
X141410813Y-60597894D01*
X141356333Y-60765564D01*
X141356331Y-60765573D01*
X141354326Y-60771744D01*
X141353647Y-60778203D01*
X141353647Y-60778204D01*
X141336678Y-60939650D01*
X141325278Y-60980071D01*
X141301038Y-61014369D01*
X140747228Y-61568181D01*
X140707000Y-61595061D01*
X140659547Y-61604500D01*
X140403748Y-61604500D01*
X140353315Y-61593781D01*
X140315218Y-61566104D01*
X140315050Y-61566291D01*
X140313271Y-61564689D01*
X140311601Y-61563476D01*
X140305871Y-61557112D01*
X140300613Y-61553292D01*
X140300611Y-61553290D01*
X140157988Y-61449669D01*
X140157987Y-61449668D01*
X140152730Y-61445849D01*
X140146792Y-61443205D01*
X139985745Y-61371501D01*
X139985740Y-61371499D01*
X139979803Y-61368856D01*
X139973444Y-61367504D01*
X139973440Y-61367503D01*
X139801008Y-61330852D01*
X139801005Y-61330851D01*
X139794646Y-61329500D01*
X139605354Y-61329500D01*
X139598995Y-61330851D01*
X139598991Y-61330852D01*
X139426559Y-61367503D01*
X139426552Y-61367505D01*
X139420197Y-61368856D01*
X139414262Y-61371498D01*
X139414254Y-61371501D01*
X139253207Y-61443205D01*
X139253202Y-61443207D01*
X139247270Y-61445849D01*
X139242016Y-61449665D01*
X139242011Y-61449669D01*
X139099388Y-61553290D01*
X139099381Y-61553295D01*
X139094129Y-61557112D01*
X139089784Y-61561937D01*
X139089779Y-61561942D01*
X138971813Y-61692956D01*
X138971808Y-61692962D01*
X138967467Y-61697784D01*
X138964222Y-61703404D01*
X138964218Y-61703410D01*
X138876069Y-61856089D01*
X138876066Y-61856094D01*
X138872821Y-61861716D01*
X138870815Y-61867888D01*
X138870813Y-61867894D01*
X138816333Y-62035564D01*
X138816331Y-62035573D01*
X138814326Y-62041744D01*
X138813648Y-62048194D01*
X138813646Y-62048204D01*
X138795962Y-62216464D01*
X138794540Y-62230000D01*
X138795219Y-62236460D01*
X138813646Y-62411795D01*
X138813647Y-62411803D01*
X138814326Y-62418256D01*
X138816331Y-62424428D01*
X138816333Y-62424435D01*
X138870813Y-62592105D01*
X138872821Y-62598284D01*
X138876068Y-62603908D01*
X138876069Y-62603910D01*
X138947810Y-62728170D01*
X138967467Y-62762216D01*
X138971811Y-62767041D01*
X138971813Y-62767043D01*
X139053417Y-62857673D01*
X139094129Y-62902888D01*
X139099387Y-62906708D01*
X139099388Y-62906709D01*
X139170699Y-62958519D01*
X139247270Y-63014151D01*
X139420197Y-63091144D01*
X139605354Y-63130500D01*
X139788143Y-63130500D01*
X139794646Y-63130500D01*
X139979803Y-63091144D01*
X140152730Y-63014151D01*
X140305871Y-62902888D01*
X140311601Y-62896523D01*
X140313271Y-62895310D01*
X140315050Y-62893709D01*
X140315218Y-62893895D01*
X140353315Y-62866219D01*
X140403748Y-62855500D01*
X140892225Y-62855500D01*
X140903280Y-62856021D01*
X140910667Y-62857673D01*
X140977872Y-62855561D01*
X140981768Y-62855500D01*
X141005448Y-62855500D01*
X141009350Y-62855500D01*
X141013313Y-62854999D01*
X141024963Y-62854080D01*
X141068627Y-62852709D01*
X141087861Y-62847119D01*
X141106917Y-62843174D01*
X141126792Y-62840664D01*
X141167395Y-62824587D01*
X141178450Y-62820802D01*
X141220390Y-62808618D01*
X141232379Y-62801527D01*
X141294524Y-62784263D01*
X141356936Y-62800548D01*
X141402724Y-62845978D01*
X141419500Y-62908259D01*
X141419500Y-63179805D01*
X141410061Y-63227258D01*
X141383181Y-63267486D01*
X132555304Y-72095361D01*
X132547119Y-72102809D01*
X132540731Y-72106864D01*
X132535396Y-72112544D01*
X132535391Y-72112549D01*
X132494704Y-72155875D01*
X132492000Y-72158666D01*
X132475236Y-72175430D01*
X132475229Y-72175437D01*
X132472488Y-72178179D01*
X132470108Y-72181246D01*
X132470097Y-72181259D01*
X132470008Y-72181375D01*
X132462450Y-72190220D01*
X132437888Y-72216377D01*
X132437881Y-72216386D01*
X132432546Y-72222068D01*
X132428790Y-72228899D01*
X132428787Y-72228904D01*
X132422893Y-72239625D01*
X132412217Y-72255877D01*
X132404717Y-72265546D01*
X132404709Y-72265557D01*
X132399935Y-72271714D01*
X132396842Y-72278858D01*
X132396837Y-72278869D01*
X132382582Y-72311810D01*
X132377446Y-72322293D01*
X132356411Y-72360558D01*
X132354472Y-72368106D01*
X132354471Y-72368111D01*
X132351430Y-72379957D01*
X132345129Y-72398361D01*
X132340266Y-72409598D01*
X132340264Y-72409602D01*
X132337170Y-72416754D01*
X132335950Y-72424453D01*
X132335950Y-72424455D01*
X132330337Y-72459891D01*
X132327969Y-72471326D01*
X132319046Y-72506078D01*
X132319044Y-72506086D01*
X132317108Y-72513631D01*
X132317108Y-72521427D01*
X132317108Y-72533667D01*
X132315582Y-72553052D01*
X132312448Y-72572846D01*
X132313182Y-72580611D01*
X132313182Y-72580614D01*
X132316558Y-72616326D01*
X132317108Y-72627995D01*
X132317108Y-74625851D01*
X132316586Y-74636906D01*
X132314935Y-74644293D01*
X132315179Y-74652079D01*
X132315179Y-74652087D01*
X132317047Y-74711499D01*
X132317108Y-74715394D01*
X132317108Y-74742976D01*
X132317596Y-74746845D01*
X132317597Y-74746851D01*
X132317612Y-74746969D01*
X132318526Y-74758592D01*
X132319653Y-74794456D01*
X132319654Y-74794463D01*
X132319899Y-74802253D01*
X132322075Y-74809745D01*
X132322076Y-74809747D01*
X132325487Y-74821488D01*
X132329433Y-74840541D01*
X132331944Y-74860418D01*
X132334814Y-74867668D01*
X132334816Y-74867674D01*
X132348022Y-74901030D01*
X132351805Y-74912077D01*
X132363990Y-74954016D01*
X132367961Y-74960731D01*
X132367962Y-74960733D01*
X132374189Y-74971263D01*
X132382744Y-74988725D01*
X132387250Y-75000106D01*
X132387251Y-75000109D01*
X132390122Y-75007358D01*
X132411862Y-75037281D01*
X132415789Y-75042686D01*
X132422201Y-75052448D01*
X132440464Y-75083328D01*
X132440467Y-75083333D01*
X132444438Y-75090046D01*
X132449953Y-75095561D01*
X132458598Y-75104206D01*
X132471234Y-75119000D01*
X132478427Y-75128901D01*
X132478431Y-75128905D01*
X132483014Y-75135213D01*
X132489023Y-75140184D01*
X132489024Y-75140185D01*
X132516666Y-75163052D01*
X132525307Y-75170915D01*
X135228181Y-77873789D01*
X135255061Y-77914017D01*
X135264500Y-77961470D01*
X135264500Y-90822298D01*
X135250389Y-90879748D01*
X135211266Y-90924122D01*
X135156037Y-90945321D01*
X135097271Y-90938519D01*
X135057626Y-90911572D01*
X135056283Y-90913065D01*
X135051452Y-90908715D01*
X135047104Y-90903886D01*
X135041846Y-90900066D01*
X135041844Y-90900064D01*
X134899221Y-90796443D01*
X134899220Y-90796442D01*
X134893963Y-90792623D01*
X134888025Y-90789979D01*
X134726978Y-90718275D01*
X134726973Y-90718273D01*
X134721036Y-90715630D01*
X134714677Y-90714278D01*
X134714673Y-90714277D01*
X134542241Y-90677626D01*
X134542238Y-90677625D01*
X134535879Y-90676274D01*
X134346587Y-90676274D01*
X134340228Y-90677625D01*
X134340224Y-90677626D01*
X134167792Y-90714277D01*
X134167785Y-90714279D01*
X134161430Y-90715630D01*
X134155495Y-90718272D01*
X134155487Y-90718275D01*
X133994440Y-90789979D01*
X133994435Y-90789981D01*
X133988503Y-90792623D01*
X133983249Y-90796439D01*
X133983244Y-90796443D01*
X133840621Y-90900064D01*
X133840614Y-90900069D01*
X133835362Y-90903886D01*
X133831017Y-90908711D01*
X133831012Y-90908716D01*
X133713046Y-91039730D01*
X133713041Y-91039736D01*
X133708700Y-91044558D01*
X133705455Y-91050178D01*
X133705451Y-91050184D01*
X133617302Y-91202863D01*
X133617299Y-91202868D01*
X133614054Y-91208490D01*
X133612048Y-91214662D01*
X133612046Y-91214668D01*
X133557566Y-91382338D01*
X133557564Y-91382347D01*
X133555559Y-91388518D01*
X133554880Y-91394977D01*
X133554880Y-91394978D01*
X133537911Y-91556424D01*
X133526511Y-91596845D01*
X133502271Y-91631143D01*
X132963814Y-92169601D01*
X132929518Y-92193840D01*
X132890080Y-92204963D01*
X132885240Y-92204963D01*
X132878892Y-92206312D01*
X132878885Y-92206313D01*
X132706445Y-92242966D01*
X132706438Y-92242968D01*
X132700083Y-92244319D01*
X132694148Y-92246961D01*
X132694140Y-92246964D01*
X132533093Y-92318668D01*
X132533088Y-92318670D01*
X132527156Y-92321312D01*
X132521902Y-92325128D01*
X132521897Y-92325132D01*
X132379274Y-92428753D01*
X132379267Y-92428758D01*
X132374015Y-92432575D01*
X132369670Y-92437400D01*
X132369665Y-92437405D01*
X132251699Y-92568419D01*
X132251694Y-92568425D01*
X132247353Y-92573247D01*
X132244108Y-92578867D01*
X132244104Y-92578873D01*
X132155955Y-92731552D01*
X132155952Y-92731557D01*
X132152707Y-92737179D01*
X132150701Y-92743351D01*
X132150699Y-92743357D01*
X132096219Y-92911027D01*
X132096217Y-92911036D01*
X132094212Y-92917207D01*
X132093534Y-92923657D01*
X132093532Y-92923667D01*
X132076633Y-93084462D01*
X132074426Y-93105463D01*
X130588005Y-93105463D01*
X130296976Y-92814434D01*
X130270096Y-92774206D01*
X130260657Y-92726753D01*
X130260657Y-89563456D01*
X130261177Y-89552403D01*
X130262829Y-89545017D01*
X130260718Y-89477829D01*
X130260657Y-89473935D01*
X130260657Y-89450229D01*
X130260657Y-89446334D01*
X130260155Y-89442365D01*
X130259237Y-89430708D01*
X130258111Y-89394857D01*
X130257866Y-89387057D01*
X130252277Y-89367824D01*
X130248331Y-89348767D01*
X130246798Y-89336628D01*
X130245821Y-89328892D01*
X130229739Y-89288275D01*
X130225960Y-89277235D01*
X130215952Y-89242786D01*
X130215950Y-89242783D01*
X130213775Y-89235294D01*
X130203574Y-89218044D01*
X130195020Y-89200585D01*
X130187643Y-89181952D01*
X130161965Y-89146609D01*
X130155558Y-89136855D01*
X130137299Y-89105980D01*
X130137298Y-89105978D01*
X130133327Y-89099264D01*
X130119162Y-89085099D01*
X130106527Y-89070306D01*
X130094751Y-89054097D01*
X130088740Y-89049124D01*
X130088738Y-89049122D01*
X130061098Y-89026257D01*
X130052457Y-89018394D01*
X127625480Y-86591416D01*
X127618036Y-86583235D01*
X127613980Y-86576844D01*
X127564969Y-86530819D01*
X127562172Y-86528108D01*
X127545421Y-86511357D01*
X127545420Y-86511356D01*
X127542665Y-86508601D01*
X127539484Y-86506133D01*
X127530608Y-86498551D01*
X127504463Y-86473999D01*
X127504461Y-86473997D01*
X127498776Y-86468659D01*
X127491943Y-86464903D01*
X127491937Y-86464898D01*
X127481219Y-86459006D01*
X127464960Y-86448327D01*
X127455289Y-86440825D01*
X127455286Y-86440823D01*
X127449130Y-86436048D01*
X127441973Y-86432950D01*
X127441970Y-86432949D01*
X127409043Y-86418699D01*
X127398557Y-86413562D01*
X127367126Y-86396283D01*
X127367117Y-86396279D01*
X127360286Y-86392524D01*
X127352729Y-86390583D01*
X127352725Y-86390582D01*
X127340882Y-86387541D01*
X127322478Y-86381240D01*
X127311251Y-86376381D01*
X127311244Y-86376379D01*
X127304090Y-86373283D01*
X127296386Y-86372062D01*
X127296384Y-86372062D01*
X127260953Y-86366450D01*
X127249518Y-86364082D01*
X127214765Y-86355159D01*
X127214757Y-86355158D01*
X127207213Y-86353221D01*
X127199417Y-86353221D01*
X127187177Y-86353221D01*
X127167791Y-86351695D01*
X127147998Y-86348561D01*
X127140232Y-86349295D01*
X127140229Y-86349295D01*
X127104518Y-86352671D01*
X127092849Y-86353221D01*
X123481809Y-86353221D01*
X123470753Y-86352699D01*
X123463367Y-86351048D01*
X123455579Y-86351292D01*
X123455572Y-86351292D01*
X123396161Y-86353160D01*
X123392266Y-86353221D01*
X123364684Y-86353221D01*
X123360839Y-86353706D01*
X123360814Y-86353708D01*
X123360687Y-86353725D01*
X123349068Y-86354639D01*
X123313206Y-86355766D01*
X123313199Y-86355767D01*
X123305407Y-86356012D01*
X123297922Y-86358186D01*
X123297906Y-86358189D01*
X123286160Y-86361602D01*
X123267117Y-86365546D01*
X123254983Y-86367079D01*
X123254982Y-86367079D01*
X123247242Y-86368057D01*
X123239992Y-86370926D01*
X123239985Y-86370929D01*
X123206632Y-86384134D01*
X123195588Y-86387915D01*
X123161135Y-86397925D01*
X123161124Y-86397929D01*
X123153644Y-86400103D01*
X123146932Y-86404072D01*
X123146930Y-86404073D01*
X123136398Y-86410301D01*
X123118938Y-86418855D01*
X123107553Y-86423363D01*
X123107547Y-86423365D01*
X123100302Y-86426235D01*
X123093997Y-86430815D01*
X123093989Y-86430820D01*
X123064966Y-86451906D01*
X123055208Y-86458316D01*
X123024330Y-86476578D01*
X123024324Y-86476582D01*
X123017614Y-86480551D01*
X123012101Y-86486062D01*
X123012094Y-86486069D01*
X123003444Y-86494719D01*
X122988661Y-86507345D01*
X122978760Y-86514538D01*
X122978750Y-86514547D01*
X122972447Y-86519127D01*
X122967478Y-86525132D01*
X122967475Y-86525136D01*
X122944606Y-86552780D01*
X122936745Y-86561418D01*
X122080600Y-87417564D01*
X122040372Y-87444444D01*
X121992919Y-87453883D01*
X121933726Y-87453883D01*
X121927367Y-87455234D01*
X121927363Y-87455235D01*
X121754931Y-87491886D01*
X121754924Y-87491888D01*
X121748569Y-87493239D01*
X121742634Y-87495881D01*
X121742626Y-87495884D01*
X121581579Y-87567588D01*
X121581574Y-87567590D01*
X121575642Y-87570232D01*
X121570388Y-87574048D01*
X121570383Y-87574052D01*
X121427760Y-87677673D01*
X121427753Y-87677678D01*
X121422501Y-87681495D01*
X121418156Y-87686320D01*
X121418151Y-87686325D01*
X121300185Y-87817339D01*
X121300180Y-87817345D01*
X121295839Y-87822167D01*
X121292594Y-87827787D01*
X121292590Y-87827793D01*
X121204441Y-87980472D01*
X121204438Y-87980477D01*
X121201193Y-87986099D01*
X121199187Y-87992271D01*
X121199185Y-87992277D01*
X121144705Y-88159947D01*
X121144703Y-88159956D01*
X121142698Y-88166127D01*
X121142020Y-88172577D01*
X121142018Y-88172587D01*
X121125022Y-88334309D01*
X121122912Y-88354383D01*
X121123591Y-88360843D01*
X121142018Y-88536178D01*
X121142019Y-88536186D01*
X121142698Y-88542639D01*
X121144703Y-88548811D01*
X121144705Y-88548818D01*
X121185443Y-88674196D01*
X121187472Y-88743908D01*
X121151554Y-88803689D01*
X121089252Y-88834529D01*
X121084592Y-88834937D01*
X121079369Y-88836336D01*
X121079366Y-88836337D01*
X120861569Y-88894694D01*
X120861557Y-88894698D01*
X120856337Y-88896097D01*
X120851432Y-88898383D01*
X120851427Y-88898386D01*
X120647081Y-88993675D01*
X120647077Y-88993677D01*
X120642171Y-88995965D01*
X120637738Y-88999068D01*
X120637731Y-88999073D01*
X120453034Y-89128399D01*
X120453029Y-89128402D01*
X120448599Y-89131505D01*
X120444775Y-89135328D01*
X120444769Y-89135334D01*
X120285334Y-89294769D01*
X120285328Y-89294775D01*
X120281505Y-89298599D01*
X120278402Y-89303029D01*
X120278399Y-89303034D01*
X120149073Y-89487731D01*
X120149068Y-89487738D01*
X120145965Y-89492171D01*
X120143677Y-89497077D01*
X120143675Y-89497081D01*
X120048386Y-89701427D01*
X120048383Y-89701432D01*
X120046097Y-89706337D01*
X120044698Y-89711557D01*
X120044694Y-89711569D01*
X119986337Y-89929365D01*
X119986335Y-89929371D01*
X119984937Y-89934592D01*
X119984465Y-89939977D01*
X119984465Y-89939982D01*
X119980246Y-89988204D01*
X119964341Y-90170000D01*
X119964813Y-90175395D01*
X119980811Y-90358256D01*
X119984937Y-90405408D01*
X119986336Y-90410630D01*
X119986337Y-90410634D01*
X120044694Y-90628430D01*
X120044697Y-90628438D01*
X120046097Y-90633663D01*
X120048385Y-90638570D01*
X120048386Y-90638572D01*
X120143678Y-90842927D01*
X120143681Y-90842933D01*
X120145965Y-90847830D01*
X120149064Y-90852257D01*
X120149066Y-90852259D01*
X120278399Y-91036966D01*
X120278402Y-91036970D01*
X120281505Y-91041401D01*
X120448599Y-91208495D01*
X120453032Y-91211599D01*
X120453038Y-91211604D01*
X120634158Y-91338425D01*
X120673024Y-91382743D01*
X120687035Y-91440000D01*
X120673024Y-91497257D01*
X120634159Y-91541575D01*
X120453041Y-91668395D01*
X120448599Y-91671505D01*
X120444775Y-91675328D01*
X120444769Y-91675334D01*
X120285334Y-91834769D01*
X120285328Y-91834775D01*
X120281505Y-91838599D01*
X120278402Y-91843029D01*
X120278399Y-91843034D01*
X120149073Y-92027731D01*
X120149068Y-92027738D01*
X120145965Y-92032171D01*
X120143677Y-92037077D01*
X120143675Y-92037081D01*
X120048386Y-92241427D01*
X120048383Y-92241432D01*
X120046097Y-92246337D01*
X120044698Y-92251557D01*
X120044694Y-92251569D01*
X119986337Y-92469365D01*
X119986335Y-92469371D01*
X119984937Y-92474592D01*
X119984465Y-92479977D01*
X119984465Y-92479982D01*
X119975813Y-92578873D01*
X119964341Y-92710000D01*
X119964813Y-92715395D01*
X119982469Y-92917207D01*
X119984937Y-92945408D01*
X119986336Y-92950630D01*
X119986337Y-92950634D01*
X120044694Y-93168430D01*
X120044697Y-93168438D01*
X120046097Y-93173663D01*
X120048385Y-93178570D01*
X120048386Y-93178572D01*
X120143678Y-93382927D01*
X120143681Y-93382933D01*
X120145965Y-93387830D01*
X120149064Y-93392257D01*
X120149066Y-93392259D01*
X120278399Y-93576966D01*
X120278402Y-93576970D01*
X120281505Y-93581401D01*
X120448599Y-93748495D01*
X120453032Y-93751599D01*
X120453038Y-93751604D01*
X120634158Y-93878425D01*
X120673024Y-93922743D01*
X120687035Y-93980000D01*
X120673024Y-94037257D01*
X120634159Y-94081575D01*
X120453041Y-94208395D01*
X120448599Y-94211505D01*
X120444775Y-94215328D01*
X120444769Y-94215334D01*
X120285334Y-94374769D01*
X120285328Y-94374775D01*
X120281505Y-94378599D01*
X120278402Y-94383029D01*
X120278399Y-94383034D01*
X120149073Y-94567731D01*
X120149068Y-94567738D01*
X120145965Y-94572171D01*
X120143677Y-94577077D01*
X120143675Y-94577081D01*
X120048386Y-94781427D01*
X120048383Y-94781432D01*
X120046097Y-94786337D01*
X120044698Y-94791557D01*
X120044694Y-94791569D01*
X119986337Y-95009365D01*
X119986335Y-95009371D01*
X119984937Y-95014592D01*
X119964341Y-95250000D01*
X119964813Y-95255395D01*
X119981191Y-95442600D01*
X119984937Y-95485408D01*
X119986336Y-95490630D01*
X119986337Y-95490634D01*
X120044694Y-95708430D01*
X120044697Y-95708438D01*
X120046097Y-95713663D01*
X120048385Y-95718570D01*
X120048386Y-95718572D01*
X120143678Y-95922927D01*
X120143681Y-95922933D01*
X120145965Y-95927830D01*
X120149064Y-95932257D01*
X120149066Y-95932259D01*
X120278399Y-96116966D01*
X120278402Y-96116970D01*
X120281505Y-96121401D01*
X120448599Y-96288495D01*
X120453032Y-96291599D01*
X120453038Y-96291604D01*
X120634158Y-96418425D01*
X120673024Y-96462743D01*
X120687035Y-96520000D01*
X120673024Y-96577257D01*
X120634160Y-96621574D01*
X120448599Y-96751505D01*
X120444775Y-96755328D01*
X120444769Y-96755334D01*
X120285334Y-96914769D01*
X120285328Y-96914775D01*
X120281505Y-96918599D01*
X120278402Y-96923029D01*
X120278399Y-96923034D01*
X120149073Y-97107731D01*
X120149068Y-97107738D01*
X120145965Y-97112171D01*
X120143677Y-97117077D01*
X120143675Y-97117081D01*
X120048386Y-97321427D01*
X120048383Y-97321432D01*
X120046097Y-97326337D01*
X120044698Y-97331557D01*
X120044694Y-97331569D01*
X119986337Y-97549365D01*
X119986335Y-97549371D01*
X119984937Y-97554592D01*
X119984465Y-97559977D01*
X119984465Y-97559982D01*
X119980246Y-97608204D01*
X119964341Y-97790000D01*
X116246500Y-97790000D01*
X116246500Y-82678771D01*
X116247020Y-82667718D01*
X116248672Y-82660332D01*
X116246561Y-82593144D01*
X116246500Y-82589250D01*
X116246500Y-82565545D01*
X116246500Y-82561650D01*
X116245998Y-82557681D01*
X116245080Y-82546024D01*
X116243709Y-82502373D01*
X116238119Y-82483135D01*
X116234175Y-82464091D01*
X116231664Y-82444208D01*
X116215582Y-82403591D01*
X116211798Y-82392539D01*
X116201793Y-82358101D01*
X116199617Y-82350610D01*
X116195645Y-82343894D01*
X116195643Y-82343889D01*
X116189422Y-82333370D01*
X116180860Y-82315892D01*
X116176360Y-82304527D01*
X116176359Y-82304526D01*
X116173486Y-82297268D01*
X116147812Y-82261931D01*
X116141409Y-82252184D01*
X116119170Y-82214579D01*
X116105006Y-82200415D01*
X116092368Y-82185618D01*
X116085184Y-82175729D01*
X116085178Y-82175723D01*
X116080594Y-82169413D01*
X116046946Y-82141577D01*
X116038305Y-82133714D01*
X113968961Y-80064370D01*
X113944721Y-80030072D01*
X113933321Y-79989650D01*
X113916353Y-79828204D01*
X113916352Y-79828203D01*
X113915674Y-79821744D01*
X113857179Y-79641716D01*
X113762533Y-79477784D01*
X113635871Y-79337112D01*
X113630613Y-79333292D01*
X113630611Y-79333290D01*
X113487988Y-79229669D01*
X113487987Y-79229668D01*
X113482730Y-79225849D01*
X113476792Y-79223205D01*
X113315745Y-79151501D01*
X113315740Y-79151499D01*
X113309803Y-79148856D01*
X113303444Y-79147504D01*
X113303440Y-79147503D01*
X113131008Y-79110852D01*
X113131005Y-79110851D01*
X113124646Y-79109500D01*
X112935354Y-79109500D01*
X112928995Y-79110851D01*
X112928991Y-79110852D01*
X112756559Y-79147503D01*
X112756552Y-79147505D01*
X112750197Y-79148856D01*
X112744262Y-79151498D01*
X112744254Y-79151501D01*
X112583207Y-79223205D01*
X112583202Y-79223207D01*
X112577270Y-79225849D01*
X112572016Y-79229665D01*
X112572011Y-79229669D01*
X112429388Y-79333290D01*
X112429381Y-79333295D01*
X112424129Y-79337112D01*
X112419784Y-79341937D01*
X112419779Y-79341942D01*
X112301813Y-79472956D01*
X112301808Y-79472962D01*
X112297467Y-79477784D01*
X112294222Y-79483404D01*
X112294218Y-79483410D01*
X112206069Y-79636089D01*
X112206066Y-79636094D01*
X112202821Y-79641716D01*
X112200815Y-79647888D01*
X112200813Y-79647894D01*
X112146333Y-79815564D01*
X112146331Y-79815573D01*
X112144326Y-79821744D01*
X112143648Y-79828194D01*
X112143646Y-79828204D01*
X112138574Y-79876469D01*
X112124540Y-80010000D01*
X107950500Y-80010000D01*
X107950500Y-77036510D01*
X124978401Y-77036510D01*
X124979080Y-77042970D01*
X124997507Y-77218305D01*
X124997508Y-77218313D01*
X124998187Y-77224766D01*
X125000192Y-77230938D01*
X125000194Y-77230945D01*
X125051122Y-77387683D01*
X125056682Y-77404794D01*
X125059929Y-77410418D01*
X125059930Y-77410420D01*
X125131045Y-77533596D01*
X125151328Y-77568726D01*
X125155672Y-77573551D01*
X125155674Y-77573553D01*
X125266725Y-77696887D01*
X125277990Y-77709398D01*
X125283248Y-77713218D01*
X125283249Y-77713219D01*
X125295028Y-77721777D01*
X125431131Y-77820661D01*
X125604058Y-77897654D01*
X125789215Y-77937010D01*
X125972004Y-77937010D01*
X125978507Y-77937010D01*
X126163664Y-77897654D01*
X126336591Y-77820661D01*
X126489732Y-77709398D01*
X126510865Y-77685927D01*
X126552579Y-77655620D01*
X126603015Y-77644899D01*
X127598526Y-77644899D01*
X127648959Y-77655618D01*
X127687055Y-77683294D01*
X127687224Y-77683108D01*
X127689002Y-77684709D01*
X127690672Y-77685922D01*
X127696403Y-77692287D01*
X127701661Y-77696107D01*
X127701662Y-77696108D01*
X127745890Y-77728241D01*
X127849544Y-77803550D01*
X128022471Y-77880543D01*
X128207628Y-77919899D01*
X128390417Y-77919899D01*
X128396920Y-77919899D01*
X128582077Y-77880543D01*
X128755004Y-77803550D01*
X128908145Y-77692287D01*
X129034807Y-77551615D01*
X129129453Y-77387683D01*
X129187948Y-77207655D01*
X129207734Y-77019399D01*
X129187948Y-76831143D01*
X129129453Y-76651115D01*
X129034807Y-76487183D01*
X128971824Y-76417234D01*
X128912494Y-76351341D01*
X128912493Y-76351340D01*
X128908145Y-76346511D01*
X128902887Y-76342691D01*
X128902885Y-76342689D01*
X128760262Y-76239068D01*
X128760261Y-76239067D01*
X128755004Y-76235248D01*
X128749066Y-76232604D01*
X128588019Y-76160900D01*
X128588014Y-76160898D01*
X128582077Y-76158255D01*
X128575718Y-76156903D01*
X128575714Y-76156902D01*
X128403282Y-76120251D01*
X128403279Y-76120250D01*
X128396920Y-76118899D01*
X128207628Y-76118899D01*
X128201269Y-76120250D01*
X128201265Y-76120251D01*
X128028833Y-76156902D01*
X128028826Y-76156904D01*
X128022471Y-76158255D01*
X128016536Y-76160897D01*
X128016528Y-76160900D01*
X127855481Y-76232604D01*
X127855476Y-76232606D01*
X127849544Y-76235248D01*
X127844290Y-76239064D01*
X127844285Y-76239068D01*
X127701662Y-76342689D01*
X127701655Y-76342694D01*
X127696403Y-76346511D01*
X127692054Y-76351340D01*
X127692055Y-76351340D01*
X127690673Y-76352875D01*
X127689002Y-76354088D01*
X127687224Y-76355690D01*
X127687055Y-76355503D01*
X127648959Y-76383180D01*
X127598526Y-76393899D01*
X126569942Y-76393899D01*
X126525506Y-76385664D01*
X126489974Y-76363891D01*
X126489732Y-76363622D01*
X126362160Y-76270936D01*
X126341849Y-76256179D01*
X126341848Y-76256178D01*
X126336591Y-76252359D01*
X126318037Y-76244098D01*
X126169606Y-76178011D01*
X126169601Y-76178009D01*
X126163664Y-76175366D01*
X126157305Y-76174014D01*
X126157301Y-76174013D01*
X125984869Y-76137362D01*
X125984866Y-76137361D01*
X125978507Y-76136010D01*
X125789215Y-76136010D01*
X125782856Y-76137361D01*
X125782852Y-76137362D01*
X125610420Y-76174013D01*
X125610413Y-76174015D01*
X125604058Y-76175366D01*
X125598123Y-76178008D01*
X125598115Y-76178011D01*
X125437068Y-76249715D01*
X125437063Y-76249717D01*
X125431131Y-76252359D01*
X125425877Y-76256175D01*
X125425872Y-76256179D01*
X125283249Y-76359800D01*
X125283242Y-76359805D01*
X125277990Y-76363622D01*
X125273645Y-76368447D01*
X125273640Y-76368452D01*
X125155674Y-76499466D01*
X125155669Y-76499472D01*
X125151328Y-76504294D01*
X125148083Y-76509914D01*
X125148079Y-76509920D01*
X125059930Y-76662599D01*
X125059927Y-76662604D01*
X125056682Y-76668226D01*
X125054676Y-76674398D01*
X125054674Y-76674404D01*
X125000194Y-76842074D01*
X125000192Y-76842083D01*
X124998187Y-76848254D01*
X124997509Y-76854704D01*
X124997507Y-76854714D01*
X124983904Y-76984151D01*
X124978401Y-77036510D01*
X107950500Y-77036510D01*
X107950500Y-74091540D01*
X125548782Y-74091540D01*
X125549461Y-74098000D01*
X125567888Y-74273335D01*
X125567889Y-74273343D01*
X125568568Y-74279796D01*
X125570573Y-74285968D01*
X125570575Y-74285975D01*
X125624321Y-74451386D01*
X125627063Y-74459824D01*
X125630310Y-74465448D01*
X125630311Y-74465450D01*
X125718250Y-74617766D01*
X125721709Y-74623756D01*
X125726053Y-74628581D01*
X125726055Y-74628583D01*
X125834829Y-74749388D01*
X125848371Y-74764428D01*
X125853629Y-74768248D01*
X125853630Y-74768249D01*
X125924941Y-74820059D01*
X126001512Y-74875691D01*
X126174439Y-74952684D01*
X126359596Y-74992040D01*
X126542385Y-74992040D01*
X126548888Y-74992040D01*
X126734045Y-74952684D01*
X126837858Y-74906463D01*
X126867710Y-74893172D01*
X126918146Y-74882451D01*
X129708933Y-74882451D01*
X129759366Y-74893170D01*
X129797462Y-74920846D01*
X129797631Y-74920660D01*
X129799409Y-74922261D01*
X129801079Y-74923474D01*
X129806810Y-74929839D01*
X129812068Y-74933659D01*
X129812069Y-74933660D01*
X129840087Y-74954016D01*
X129959951Y-75041102D01*
X130132878Y-75118095D01*
X130318035Y-75157451D01*
X130500824Y-75157451D01*
X130507327Y-75157451D01*
X130692484Y-75118095D01*
X130865411Y-75041102D01*
X131018552Y-74929839D01*
X131145214Y-74789167D01*
X131239860Y-74625235D01*
X131298355Y-74445207D01*
X131318141Y-74256951D01*
X131298355Y-74068695D01*
X131239860Y-73888667D01*
X131145214Y-73724735D01*
X131082068Y-73654605D01*
X131022901Y-73588893D01*
X131022900Y-73588892D01*
X131018552Y-73584063D01*
X131013294Y-73580243D01*
X131013292Y-73580241D01*
X130870669Y-73476620D01*
X130870668Y-73476619D01*
X130865411Y-73472800D01*
X130796286Y-73442023D01*
X130698426Y-73398452D01*
X130698421Y-73398450D01*
X130692484Y-73395807D01*
X130686125Y-73394455D01*
X130686121Y-73394454D01*
X130513689Y-73357803D01*
X130513686Y-73357802D01*
X130507327Y-73356451D01*
X130318035Y-73356451D01*
X130311676Y-73357802D01*
X130311672Y-73357803D01*
X130139240Y-73394454D01*
X130139233Y-73394456D01*
X130132878Y-73395807D01*
X130126943Y-73398449D01*
X130126935Y-73398452D01*
X129965888Y-73470156D01*
X129965883Y-73470158D01*
X129959951Y-73472800D01*
X129954697Y-73476616D01*
X129954692Y-73476620D01*
X129812069Y-73580241D01*
X129812062Y-73580246D01*
X129806810Y-73584063D01*
X129802461Y-73588892D01*
X129802462Y-73588892D01*
X129801080Y-73590427D01*
X129799409Y-73591640D01*
X129797631Y-73593242D01*
X129797462Y-73593055D01*
X129759366Y-73620732D01*
X129708933Y-73631451D01*
X127300009Y-73631451D01*
X127238008Y-73614838D01*
X127192621Y-73569449D01*
X127190027Y-73564956D01*
X127190023Y-73564950D01*
X127186775Y-73559324D01*
X127060113Y-73418652D01*
X127054855Y-73414832D01*
X127054853Y-73414830D01*
X126912230Y-73311209D01*
X126912229Y-73311208D01*
X126906972Y-73307389D01*
X126901034Y-73304745D01*
X126739987Y-73233041D01*
X126739982Y-73233039D01*
X126734045Y-73230396D01*
X126727686Y-73229044D01*
X126727682Y-73229043D01*
X126555250Y-73192392D01*
X126555247Y-73192391D01*
X126548888Y-73191040D01*
X126359596Y-73191040D01*
X126353237Y-73192391D01*
X126353233Y-73192392D01*
X126180801Y-73229043D01*
X126180794Y-73229045D01*
X126174439Y-73230396D01*
X126168504Y-73233038D01*
X126168496Y-73233041D01*
X126007449Y-73304745D01*
X126007444Y-73304747D01*
X126001512Y-73307389D01*
X125996258Y-73311205D01*
X125996253Y-73311209D01*
X125853630Y-73414830D01*
X125853623Y-73414835D01*
X125848371Y-73418652D01*
X125844026Y-73423477D01*
X125844021Y-73423482D01*
X125726055Y-73554496D01*
X125726050Y-73554502D01*
X125721709Y-73559324D01*
X125718464Y-73564944D01*
X125718460Y-73564950D01*
X125630311Y-73717629D01*
X125630308Y-73717634D01*
X125627063Y-73723256D01*
X125625057Y-73729428D01*
X125625055Y-73729434D01*
X125570575Y-73897104D01*
X125570573Y-73897113D01*
X125568568Y-73903284D01*
X125567890Y-73909734D01*
X125567888Y-73909744D01*
X125551590Y-74064821D01*
X125548782Y-74091540D01*
X107950500Y-74091540D01*
X107950500Y-61010861D01*
X107959939Y-60963408D01*
X107986816Y-60923183D01*
X110489999Y-58420000D01*
X134634723Y-58420000D01*
X134635195Y-58425395D01*
X134653320Y-58632578D01*
X134653321Y-58632585D01*
X134653793Y-58637977D01*
X134655192Y-58643199D01*
X134655194Y-58643209D01*
X134681972Y-58743143D01*
X134710425Y-58849330D01*
X134712709Y-58854229D01*
X134712712Y-58854236D01*
X134800611Y-59042736D01*
X134800614Y-59042742D01*
X134802898Y-59047639D01*
X134805997Y-59052066D01*
X134805999Y-59052068D01*
X134925296Y-59222442D01*
X134925299Y-59222446D01*
X134928402Y-59226877D01*
X135083123Y-59381598D01*
X135087555Y-59384701D01*
X135087557Y-59384703D01*
X135221159Y-59478252D01*
X135262361Y-59507102D01*
X135460670Y-59599575D01*
X135618522Y-59641871D01*
X135666790Y-59654805D01*
X135666791Y-59654805D01*
X135672023Y-59656207D01*
X135890000Y-59675277D01*
X136107977Y-59656207D01*
X136319330Y-59599575D01*
X136517639Y-59507102D01*
X136696877Y-59381598D01*
X136851598Y-59226877D01*
X136977102Y-59047639D01*
X137047617Y-58896417D01*
X137093375Y-58844241D01*
X137160000Y-58824821D01*
X137226625Y-58844241D01*
X137272382Y-58896417D01*
X137340609Y-59042732D01*
X137340613Y-59042739D01*
X137342898Y-59047639D01*
X137345997Y-59052066D01*
X137345999Y-59052068D01*
X137465296Y-59222442D01*
X137465299Y-59222446D01*
X137468402Y-59226877D01*
X137623123Y-59381598D01*
X137627555Y-59384701D01*
X137627557Y-59384703D01*
X137761159Y-59478252D01*
X137802361Y-59507102D01*
X138000670Y-59599575D01*
X138158522Y-59641871D01*
X138206790Y-59654805D01*
X138206791Y-59654805D01*
X138212023Y-59656207D01*
X138430000Y-59675277D01*
X138647977Y-59656207D01*
X138859330Y-59599575D01*
X139057639Y-59507102D01*
X139236877Y-59381598D01*
X139391598Y-59226877D01*
X139517102Y-59047639D01*
X139587617Y-58896417D01*
X139633375Y-58844241D01*
X139700000Y-58824821D01*
X139766625Y-58844241D01*
X139812382Y-58896417D01*
X139880609Y-59042732D01*
X139880613Y-59042739D01*
X139882898Y-59047639D01*
X139885997Y-59052066D01*
X139885999Y-59052068D01*
X140005296Y-59222442D01*
X140005299Y-59222446D01*
X140008402Y-59226877D01*
X140163123Y-59381598D01*
X140167555Y-59384701D01*
X140167557Y-59384703D01*
X140301159Y-59478252D01*
X140342361Y-59507102D01*
X140540670Y-59599575D01*
X140698522Y-59641871D01*
X140746790Y-59654805D01*
X140746791Y-59654805D01*
X140752023Y-59656207D01*
X140970000Y-59675277D01*
X141187977Y-59656207D01*
X141399330Y-59599575D01*
X141597639Y-59507102D01*
X141776877Y-59381598D01*
X141931598Y-59226877D01*
X142057102Y-59047639D01*
X142127617Y-58896417D01*
X142173375Y-58844241D01*
X142240000Y-58824821D01*
X142306625Y-58844241D01*
X142352382Y-58896417D01*
X142420609Y-59042732D01*
X142420613Y-59042739D01*
X142422898Y-59047639D01*
X142425997Y-59052066D01*
X142425999Y-59052068D01*
X142545296Y-59222442D01*
X142545299Y-59222446D01*
X142548402Y-59226877D01*
X142703123Y-59381598D01*
X142707555Y-59384701D01*
X142707557Y-59384703D01*
X142841159Y-59478252D01*
X142882361Y-59507102D01*
X143080670Y-59599575D01*
X143238522Y-59641871D01*
X143286790Y-59654805D01*
X143286791Y-59654805D01*
X143292023Y-59656207D01*
X143510000Y-59675277D01*
X143727977Y-59656207D01*
X143939330Y-59599575D01*
X144137639Y-59507102D01*
X144316877Y-59381598D01*
X144471598Y-59226877D01*
X144597102Y-59047639D01*
X144667617Y-58896417D01*
X144713375Y-58844241D01*
X144780000Y-58824821D01*
X144846625Y-58844241D01*
X144892382Y-58896417D01*
X144960609Y-59042732D01*
X144960613Y-59042739D01*
X144962898Y-59047639D01*
X144965997Y-59052066D01*
X144965999Y-59052068D01*
X145085296Y-59222442D01*
X145085299Y-59222446D01*
X145088402Y-59226877D01*
X145243123Y-59381598D01*
X145247555Y-59384701D01*
X145247557Y-59384703D01*
X145381159Y-59478252D01*
X145422361Y-59507102D01*
X145620670Y-59599575D01*
X145778522Y-59641871D01*
X145826790Y-59654805D01*
X145826791Y-59654805D01*
X145832023Y-59656207D01*
X146050000Y-59675277D01*
X146267977Y-59656207D01*
X146479330Y-59599575D01*
X146677639Y-59507102D01*
X146856877Y-59381598D01*
X147011598Y-59226877D01*
X147137102Y-59047639D01*
X147207617Y-58896417D01*
X147253375Y-58844241D01*
X147320000Y-58824821D01*
X147386625Y-58844241D01*
X147432382Y-58896417D01*
X147500609Y-59042732D01*
X147500613Y-59042739D01*
X147502898Y-59047639D01*
X147505997Y-59052066D01*
X147505999Y-59052068D01*
X147625296Y-59222442D01*
X147625299Y-59222446D01*
X147628402Y-59226877D01*
X147783123Y-59381598D01*
X147787555Y-59384701D01*
X147787557Y-59384703D01*
X147921159Y-59478252D01*
X147962361Y-59507102D01*
X148160670Y-59599575D01*
X148318522Y-59641871D01*
X148366790Y-59654805D01*
X148366791Y-59654805D01*
X148372023Y-59656207D01*
X148590000Y-59675277D01*
X148807977Y-59656207D01*
X149019330Y-59599575D01*
X149217639Y-59507102D01*
X149396877Y-59381598D01*
X149551598Y-59226877D01*
X149677102Y-59047639D01*
X149769575Y-58849330D01*
X149826207Y-58637977D01*
X149845277Y-58420000D01*
X149826207Y-58202023D01*
X149769575Y-57990670D01*
X149677102Y-57792362D01*
X149551598Y-57613123D01*
X149396877Y-57458402D01*
X149392446Y-57455299D01*
X149392442Y-57455296D01*
X149222068Y-57335999D01*
X149222066Y-57335997D01*
X149217639Y-57332898D01*
X149212742Y-57330614D01*
X149212736Y-57330611D01*
X149024236Y-57242712D01*
X149024229Y-57242709D01*
X149019330Y-57240425D01*
X149014103Y-57239024D01*
X149014102Y-57239024D01*
X148813209Y-57185194D01*
X148813199Y-57185192D01*
X148807977Y-57183793D01*
X148802585Y-57183321D01*
X148802578Y-57183320D01*
X148595395Y-57165195D01*
X148590000Y-57164723D01*
X148584605Y-57165195D01*
X148377421Y-57183320D01*
X148377412Y-57183321D01*
X148372023Y-57183793D01*
X148366802Y-57185191D01*
X148366790Y-57185194D01*
X148165897Y-57239024D01*
X148165892Y-57239025D01*
X148160670Y-57240425D01*
X148155774Y-57242707D01*
X148155763Y-57242712D01*
X147967272Y-57330608D01*
X147967268Y-57330610D01*
X147962362Y-57332898D01*
X147957929Y-57336001D01*
X147957922Y-57336006D01*
X147787558Y-57455296D01*
X147787553Y-57455299D01*
X147783123Y-57458402D01*
X147779299Y-57462225D01*
X147779293Y-57462231D01*
X147632231Y-57609293D01*
X147632225Y-57609299D01*
X147628402Y-57613123D01*
X147625299Y-57617553D01*
X147625296Y-57617558D01*
X147506006Y-57787922D01*
X147506001Y-57787929D01*
X147502898Y-57792362D01*
X147500610Y-57797268D01*
X147500608Y-57797272D01*
X147432382Y-57943583D01*
X147386625Y-57995759D01*
X147320000Y-58015178D01*
X147253375Y-57995759D01*
X147207618Y-57943583D01*
X147160071Y-57841619D01*
X147137102Y-57792362D01*
X147011598Y-57613123D01*
X146856877Y-57458402D01*
X146852446Y-57455299D01*
X146852442Y-57455296D01*
X146682068Y-57335999D01*
X146682066Y-57335997D01*
X146677639Y-57332898D01*
X146672742Y-57330614D01*
X146672736Y-57330611D01*
X146484236Y-57242712D01*
X146484229Y-57242709D01*
X146479330Y-57240425D01*
X146474103Y-57239024D01*
X146474102Y-57239024D01*
X146273209Y-57185194D01*
X146273199Y-57185192D01*
X146267977Y-57183793D01*
X146262585Y-57183321D01*
X146262578Y-57183320D01*
X146055395Y-57165195D01*
X146050000Y-57164723D01*
X146044605Y-57165195D01*
X145837421Y-57183320D01*
X145837412Y-57183321D01*
X145832023Y-57183793D01*
X145826802Y-57185191D01*
X145826790Y-57185194D01*
X145625897Y-57239024D01*
X145625892Y-57239025D01*
X145620670Y-57240425D01*
X145615774Y-57242707D01*
X145615763Y-57242712D01*
X145427272Y-57330608D01*
X145427268Y-57330610D01*
X145422362Y-57332898D01*
X145417929Y-57336001D01*
X145417922Y-57336006D01*
X145247558Y-57455296D01*
X145247553Y-57455299D01*
X145243123Y-57458402D01*
X145239299Y-57462225D01*
X145239293Y-57462231D01*
X145092231Y-57609293D01*
X145092225Y-57609299D01*
X145088402Y-57613123D01*
X145085299Y-57617553D01*
X145085296Y-57617558D01*
X144966006Y-57787922D01*
X144966001Y-57787929D01*
X144962898Y-57792362D01*
X144960610Y-57797268D01*
X144960608Y-57797272D01*
X144892382Y-57943583D01*
X144846625Y-57995759D01*
X144780000Y-58015178D01*
X144713375Y-57995759D01*
X144667618Y-57943583D01*
X144620071Y-57841619D01*
X144597102Y-57792362D01*
X144471598Y-57613123D01*
X144316877Y-57458402D01*
X144312446Y-57455299D01*
X144312442Y-57455296D01*
X144142068Y-57335999D01*
X144142066Y-57335997D01*
X144137639Y-57332898D01*
X144132742Y-57330614D01*
X144132736Y-57330611D01*
X143944236Y-57242712D01*
X143944229Y-57242709D01*
X143939330Y-57240425D01*
X143934103Y-57239024D01*
X143934102Y-57239024D01*
X143733209Y-57185194D01*
X143733199Y-57185192D01*
X143727977Y-57183793D01*
X143722585Y-57183321D01*
X143722578Y-57183320D01*
X143515395Y-57165195D01*
X143510000Y-57164723D01*
X143504605Y-57165195D01*
X143297421Y-57183320D01*
X143297412Y-57183321D01*
X143292023Y-57183793D01*
X143286802Y-57185191D01*
X143286790Y-57185194D01*
X143085897Y-57239024D01*
X143085892Y-57239025D01*
X143080670Y-57240425D01*
X143075774Y-57242707D01*
X143075763Y-57242712D01*
X142887272Y-57330608D01*
X142887268Y-57330610D01*
X142882362Y-57332898D01*
X142877929Y-57336001D01*
X142877922Y-57336006D01*
X142707558Y-57455296D01*
X142707553Y-57455299D01*
X142703123Y-57458402D01*
X142699299Y-57462225D01*
X142699293Y-57462231D01*
X142552231Y-57609293D01*
X142552225Y-57609299D01*
X142548402Y-57613123D01*
X142545299Y-57617553D01*
X142545296Y-57617558D01*
X142426006Y-57787922D01*
X142426001Y-57787929D01*
X142422898Y-57792362D01*
X142420610Y-57797268D01*
X142420608Y-57797272D01*
X142352382Y-57943583D01*
X142306625Y-57995759D01*
X142240000Y-58015178D01*
X142173375Y-57995759D01*
X142127618Y-57943583D01*
X142080071Y-57841619D01*
X142057102Y-57792362D01*
X141931598Y-57613123D01*
X141776877Y-57458402D01*
X141772446Y-57455299D01*
X141772442Y-57455296D01*
X141602068Y-57335999D01*
X141602066Y-57335997D01*
X141597639Y-57332898D01*
X141592742Y-57330614D01*
X141592736Y-57330611D01*
X141404236Y-57242712D01*
X141404229Y-57242709D01*
X141399330Y-57240425D01*
X141394103Y-57239024D01*
X141394102Y-57239024D01*
X141193209Y-57185194D01*
X141193199Y-57185192D01*
X141187977Y-57183793D01*
X141182585Y-57183321D01*
X141182578Y-57183320D01*
X140975395Y-57165195D01*
X140970000Y-57164723D01*
X140964605Y-57165195D01*
X140757421Y-57183320D01*
X140757412Y-57183321D01*
X140752023Y-57183793D01*
X140746802Y-57185191D01*
X140746790Y-57185194D01*
X140545897Y-57239024D01*
X140545892Y-57239025D01*
X140540670Y-57240425D01*
X140535774Y-57242707D01*
X140535763Y-57242712D01*
X140347272Y-57330608D01*
X140347268Y-57330610D01*
X140342362Y-57332898D01*
X140337929Y-57336001D01*
X140337922Y-57336006D01*
X140167558Y-57455296D01*
X140167553Y-57455299D01*
X140163123Y-57458402D01*
X140159299Y-57462225D01*
X140159293Y-57462231D01*
X140012231Y-57609293D01*
X140012225Y-57609299D01*
X140008402Y-57613123D01*
X140005299Y-57617553D01*
X140005296Y-57617558D01*
X139886006Y-57787922D01*
X139886001Y-57787929D01*
X139882898Y-57792362D01*
X139880610Y-57797268D01*
X139880608Y-57797272D01*
X139812382Y-57943583D01*
X139766625Y-57995759D01*
X139700000Y-58015178D01*
X139633375Y-57995759D01*
X139587618Y-57943583D01*
X139540071Y-57841619D01*
X139517102Y-57792362D01*
X139391598Y-57613123D01*
X139236877Y-57458402D01*
X139232446Y-57455299D01*
X139232442Y-57455296D01*
X139062068Y-57335999D01*
X139062066Y-57335997D01*
X139057639Y-57332898D01*
X139052742Y-57330614D01*
X139052736Y-57330611D01*
X138864236Y-57242712D01*
X138864229Y-57242709D01*
X138859330Y-57240425D01*
X138854103Y-57239024D01*
X138854102Y-57239024D01*
X138653209Y-57185194D01*
X138653199Y-57185192D01*
X138647977Y-57183793D01*
X138642585Y-57183321D01*
X138642578Y-57183320D01*
X138435395Y-57165195D01*
X138430000Y-57164723D01*
X138424605Y-57165195D01*
X138217421Y-57183320D01*
X138217412Y-57183321D01*
X138212023Y-57183793D01*
X138206802Y-57185191D01*
X138206790Y-57185194D01*
X138005897Y-57239024D01*
X138005892Y-57239025D01*
X138000670Y-57240425D01*
X137995774Y-57242707D01*
X137995763Y-57242712D01*
X137807272Y-57330608D01*
X137807268Y-57330610D01*
X137802362Y-57332898D01*
X137797929Y-57336001D01*
X137797922Y-57336006D01*
X137627558Y-57455296D01*
X137627553Y-57455299D01*
X137623123Y-57458402D01*
X137619299Y-57462225D01*
X137619293Y-57462231D01*
X137472231Y-57609293D01*
X137472225Y-57609299D01*
X137468402Y-57613123D01*
X137465299Y-57617553D01*
X137465296Y-57617558D01*
X137346006Y-57787922D01*
X137346001Y-57787929D01*
X137342898Y-57792362D01*
X137340610Y-57797268D01*
X137340608Y-57797272D01*
X137272382Y-57943583D01*
X137226625Y-57995759D01*
X137160000Y-58015178D01*
X137093375Y-57995759D01*
X137047618Y-57943583D01*
X137000071Y-57841619D01*
X136977102Y-57792362D01*
X136851598Y-57613123D01*
X136696877Y-57458402D01*
X136692446Y-57455299D01*
X136692442Y-57455296D01*
X136522068Y-57335999D01*
X136522066Y-57335997D01*
X136517639Y-57332898D01*
X136512742Y-57330614D01*
X136512736Y-57330611D01*
X136324236Y-57242712D01*
X136324229Y-57242709D01*
X136319330Y-57240425D01*
X136314103Y-57239024D01*
X136314102Y-57239024D01*
X136113209Y-57185194D01*
X136113199Y-57185192D01*
X136107977Y-57183793D01*
X136102585Y-57183321D01*
X136102578Y-57183320D01*
X135895395Y-57165195D01*
X135890000Y-57164723D01*
X135884605Y-57165195D01*
X135677421Y-57183320D01*
X135677412Y-57183321D01*
X135672023Y-57183793D01*
X135666802Y-57185191D01*
X135666790Y-57185194D01*
X135465897Y-57239024D01*
X135465892Y-57239025D01*
X135460670Y-57240425D01*
X135455774Y-57242707D01*
X135455763Y-57242712D01*
X135267272Y-57330608D01*
X135267268Y-57330610D01*
X135262362Y-57332898D01*
X135257929Y-57336001D01*
X135257922Y-57336006D01*
X135087558Y-57455296D01*
X135087553Y-57455299D01*
X135083123Y-57458402D01*
X135079299Y-57462225D01*
X135079293Y-57462231D01*
X134932231Y-57609293D01*
X134932225Y-57609299D01*
X134928402Y-57613123D01*
X134925299Y-57617553D01*
X134925296Y-57617558D01*
X134806006Y-57787922D01*
X134806001Y-57787929D01*
X134802898Y-57792362D01*
X134800610Y-57797268D01*
X134800608Y-57797272D01*
X134712712Y-57985763D01*
X134712707Y-57985774D01*
X134710425Y-57990670D01*
X134709025Y-57995892D01*
X134709024Y-57995897D01*
X134655194Y-58196790D01*
X134655191Y-58196802D01*
X134653793Y-58202023D01*
X134653321Y-58207412D01*
X134653320Y-58207421D01*
X134650548Y-58239110D01*
X134634723Y-58420000D01*
X110489999Y-58420000D01*
X114263183Y-54646816D01*
X114303408Y-54619939D01*
X114350861Y-54610500D01*
X181559138Y-54610500D01*
X181606591Y-54619939D01*
G37*
%TD.AperFunction*%
%TD*%
M02*
