%TF.GenerationSoftware,KiCad,Pcbnew,(7.0.0)*%
%TF.CreationDate,2023-04-20T13:01:05-06:00*%
%TF.ProjectId,Phase_B_ATMEGA_v3,50686173-655f-4425-9f41-544d4547415f,rev?*%
%TF.SameCoordinates,Original*%
%TF.FileFunction,Copper,L1,Top*%
%TF.FilePolarity,Positive*%
%FSLAX46Y46*%
G04 Gerber Fmt 4.6, Leading zero omitted, Abs format (unit mm)*
G04 Created by KiCad (PCBNEW (7.0.0)) date 2023-04-20 13:01:05*
%MOMM*%
%LPD*%
G01*
G04 APERTURE LIST*
G04 Aperture macros list*
%AMRoundRect*
0 Rectangle with rounded corners*
0 $1 Rounding radius*
0 $2 $3 $4 $5 $6 $7 $8 $9 X,Y pos of 4 corners*
0 Add a 4 corners polygon primitive as box body*
4,1,4,$2,$3,$4,$5,$6,$7,$8,$9,$2,$3,0*
0 Add four circle primitives for the rounded corners*
1,1,$1+$1,$2,$3*
1,1,$1+$1,$4,$5*
1,1,$1+$1,$6,$7*
1,1,$1+$1,$8,$9*
0 Add four rect primitives between the rounded corners*
20,1,$1+$1,$2,$3,$4,$5,0*
20,1,$1+$1,$4,$5,$6,$7,0*
20,1,$1+$1,$6,$7,$8,$9,0*
20,1,$1+$1,$8,$9,$2,$3,0*%
G04 Aperture macros list end*
%TA.AperFunction,ComponentPad*%
%ADD10C,5.600000*%
%TD*%
%TA.AperFunction,SMDPad,CuDef*%
%ADD11RoundRect,0.250000X0.450000X-0.262500X0.450000X0.262500X-0.450000X0.262500X-0.450000X-0.262500X0*%
%TD*%
%TA.AperFunction,SMDPad,CuDef*%
%ADD12RoundRect,0.200000X0.275000X-0.200000X0.275000X0.200000X-0.275000X0.200000X-0.275000X-0.200000X0*%
%TD*%
%TA.AperFunction,SMDPad,CuDef*%
%ADD13RoundRect,0.225000X-0.225000X-0.250000X0.225000X-0.250000X0.225000X0.250000X-0.225000X0.250000X0*%
%TD*%
%TA.AperFunction,SMDPad,CuDef*%
%ADD14RoundRect,0.243750X-0.456250X0.243750X-0.456250X-0.243750X0.456250X-0.243750X0.456250X0.243750X0*%
%TD*%
%TA.AperFunction,SMDPad,CuDef*%
%ADD15R,2.000000X0.500000*%
%TD*%
%TA.AperFunction,SMDPad,CuDef*%
%ADD16R,1.700000X2.000000*%
%TD*%
%TA.AperFunction,SMDPad,CuDef*%
%ADD17RoundRect,0.225000X0.250000X-0.225000X0.250000X0.225000X-0.250000X0.225000X-0.250000X-0.225000X0*%
%TD*%
%TA.AperFunction,SMDPad,CuDef*%
%ADD18RoundRect,0.200000X-0.200000X-0.275000X0.200000X-0.275000X0.200000X0.275000X-0.200000X0.275000X0*%
%TD*%
%TA.AperFunction,SMDPad,CuDef*%
%ADD19RoundRect,0.225000X-0.250000X0.225000X-0.250000X-0.225000X0.250000X-0.225000X0.250000X0.225000X0*%
%TD*%
%TA.AperFunction,SMDPad,CuDef*%
%ADD20R,1.400000X1.200000*%
%TD*%
%TA.AperFunction,SMDPad,CuDef*%
%ADD21RoundRect,0.250000X-0.262500X-0.450000X0.262500X-0.450000X0.262500X0.450000X-0.262500X0.450000X0*%
%TD*%
%TA.AperFunction,SMDPad,CuDef*%
%ADD22RoundRect,0.100000X-0.100000X0.637500X-0.100000X-0.637500X0.100000X-0.637500X0.100000X0.637500X0*%
%TD*%
%TA.AperFunction,SMDPad,CuDef*%
%ADD23RoundRect,0.225000X0.225000X0.250000X-0.225000X0.250000X-0.225000X-0.250000X0.225000X-0.250000X0*%
%TD*%
%TA.AperFunction,SMDPad,CuDef*%
%ADD24RoundRect,0.200000X-0.275000X0.200000X-0.275000X-0.200000X0.275000X-0.200000X0.275000X0.200000X0*%
%TD*%
%TA.AperFunction,SMDPad,CuDef*%
%ADD25RoundRect,0.200000X0.200000X0.275000X-0.200000X0.275000X-0.200000X-0.275000X0.200000X-0.275000X0*%
%TD*%
%TA.AperFunction,SMDPad,CuDef*%
%ADD26R,0.550000X1.500000*%
%TD*%
%TA.AperFunction,SMDPad,CuDef*%
%ADD27R,1.500000X0.550000*%
%TD*%
%TA.AperFunction,SMDPad,CuDef*%
%ADD28R,1.000000X0.700000*%
%TD*%
%TA.AperFunction,SMDPad,CuDef*%
%ADD29R,2.000000X1.500000*%
%TD*%
%TA.AperFunction,ComponentPad*%
%ADD30R,1.700000X1.700000*%
%TD*%
%TA.AperFunction,ComponentPad*%
%ADD31O,1.700000X1.700000*%
%TD*%
%TA.AperFunction,SMDPad,CuDef*%
%ADD32RoundRect,0.250000X0.312500X1.450000X-0.312500X1.450000X-0.312500X-1.450000X0.312500X-1.450000X0*%
%TD*%
%TA.AperFunction,ComponentPad*%
%ADD33R,2.000000X2.000000*%
%TD*%
%TA.AperFunction,ComponentPad*%
%ADD34C,2.000000*%
%TD*%
%TA.AperFunction,SMDPad,CuDef*%
%ADD35RoundRect,0.250000X0.262500X0.450000X-0.262500X0.450000X-0.262500X-0.450000X0.262500X-0.450000X0*%
%TD*%
%TA.AperFunction,SMDPad,CuDef*%
%ADD36RoundRect,0.250000X0.475000X-0.250000X0.475000X0.250000X-0.475000X0.250000X-0.475000X-0.250000X0*%
%TD*%
%TA.AperFunction,ComponentPad*%
%ADD37R,1.500000X1.500000*%
%TD*%
%TA.AperFunction,ComponentPad*%
%ADD38C,1.500000*%
%TD*%
%TA.AperFunction,SMDPad,CuDef*%
%ADD39RoundRect,0.150000X0.512500X0.150000X-0.512500X0.150000X-0.512500X-0.150000X0.512500X-0.150000X0*%
%TD*%
%TA.AperFunction,SMDPad,CuDef*%
%ADD40RoundRect,0.150000X-0.512500X-0.150000X0.512500X-0.150000X0.512500X0.150000X-0.512500X0.150000X0*%
%TD*%
%TA.AperFunction,ViaPad*%
%ADD41C,0.800000*%
%TD*%
%TA.AperFunction,Conductor*%
%ADD42C,0.250000*%
%TD*%
%TA.AperFunction,Conductor*%
%ADD43C,0.203200*%
%TD*%
%TA.AperFunction,Conductor*%
%ADD44C,0.508000*%
%TD*%
%TA.AperFunction,Conductor*%
%ADD45C,0.200000*%
%TD*%
G04 APERTURE END LIST*
D10*
%TO.P,REF\u002A\u002A,1*%
%TO.N,N/C*%
X177018978Y-148038539D03*
%TD*%
%TO.P,REF\u002A\u002A,1*%
%TO.N,N/C*%
X132984544Y-147747431D03*
%TD*%
%TO.P,REF\u002A\u002A,1*%
%TO.N,N/C*%
X176800761Y-79162679D03*
%TD*%
D11*
%TO.P,R5,1*%
%TO.N,a*%
X146114167Y-80088318D03*
%TO.P,R5,2*%
%TO.N,Net-(U1-a)*%
X146114167Y-78263318D03*
%TD*%
D12*
%TO.P,R17,1*%
%TO.N,+3.3V*%
X127000000Y-97345000D03*
%TO.P,R17,2*%
%TO.N,Net-(J3-Pin_5)*%
X127000000Y-95695000D03*
%TD*%
D11*
%TO.P,R8,1*%
%TO.N,d*%
X134684167Y-80088318D03*
%TO.P,R8,2*%
%TO.N,Net-(U1-d)*%
X134684167Y-78263318D03*
%TD*%
D13*
%TO.P,C13,1*%
%TO.N,+5V*%
X110860000Y-90200000D03*
%TO.P,C13,2*%
%TO.N,GND*%
X112410000Y-90200000D03*
%TD*%
D14*
%TO.P,D3,1,K*%
%TO.N,GND*%
X160845000Y-94065000D03*
%TO.P,D3,2,A*%
%TO.N,Net-(D3-A)*%
X160845000Y-95940000D03*
%TD*%
D15*
%TO.P,J2,1,VBUS*%
%TO.N,Net-(J2-VBUS)*%
X176369999Y-109549999D03*
%TO.P,J2,2,D-*%
%TO.N,Net-(J2-D-)*%
X176369999Y-108749999D03*
%TO.P,J2,3,D+*%
%TO.N,Net-(J2-D+)*%
X176369999Y-107949999D03*
%TO.P,J2,4,ID*%
%TO.N,unconnected-(J2-ID-Pad4)*%
X176369999Y-107149999D03*
%TO.P,J2,5,GND*%
%TO.N,GND*%
X176369999Y-106349999D03*
D16*
%TO.P,J2,6,Shield*%
%TO.N,unconnected-(J2-Shield-Pad6)*%
X176469999Y-112399999D03*
X181919999Y-112399999D03*
X176469999Y-103499999D03*
X181919999Y-103499999D03*
%TD*%
D11*
%TO.P,R7,1*%
%TO.N,c*%
X138494167Y-80088318D03*
%TO.P,R7,2*%
%TO.N,Net-(U1-c)*%
X138494167Y-78263318D03*
%TD*%
D17*
%TO.P,C5,1*%
%TO.N,+5V*%
X144085597Y-95917361D03*
%TO.P,C5,2*%
%TO.N,GND*%
X144085597Y-94367361D03*
%TD*%
D14*
%TO.P,D2,1,K*%
%TO.N,GND*%
X113030000Y-62895000D03*
%TO.P,D2,2,A*%
%TO.N,Net-(D2-A)*%
X113030000Y-64770000D03*
%TD*%
D11*
%TO.P,R3,1*%
%TO.N,RED_LED*%
X110490000Y-69492500D03*
%TO.P,R3,2*%
%TO.N,Net-(D1-A)*%
X110490000Y-67667500D03*
%TD*%
%TO.P,R6,1*%
%TO.N,b*%
X142304167Y-80088318D03*
%TO.P,R6,2*%
%TO.N,Net-(U1-b)*%
X142304167Y-78263318D03*
%TD*%
D18*
%TO.P,R13,1*%
%TO.N,+5V*%
X148386135Y-95870623D03*
%TO.P,R13,2*%
%TO.N,RST*%
X150036135Y-95870623D03*
%TD*%
D19*
%TO.P,C2,1*%
%TO.N,GND*%
X140488764Y-94349911D03*
%TO.P,C2,2*%
%TO.N,XTAL1*%
X140488764Y-95899911D03*
%TD*%
D20*
%TO.P,Y1,1,1*%
%TO.N,XTAL1*%
X137690469Y-94091469D03*
%TO.P,Y1,2,2*%
%TO.N,GND*%
X135490469Y-94091469D03*
%TO.P,Y1,3,3*%
%TO.N,XTAL2*%
X135490469Y-95791469D03*
%TO.P,Y1,4,4*%
%TO.N,GND*%
X137690469Y-95791469D03*
%TD*%
D19*
%TO.P,C12,1*%
%TO.N,/AREF*%
X145625107Y-115266761D03*
%TO.P,C12,2*%
%TO.N,GND*%
X145625107Y-116816761D03*
%TD*%
D21*
%TO.P,R1,1*%
%TO.N,Button_1*%
X133707500Y-128270000D03*
%TO.P,R1,2*%
%TO.N,GND*%
X135532500Y-128270000D03*
%TD*%
D22*
%TO.P,U2,1,QB*%
%TO.N,b*%
X137082297Y-83805077D03*
%TO.P,U2,2,QC*%
%TO.N,c*%
X136432297Y-83805077D03*
%TO.P,U2,3,QD*%
%TO.N,d*%
X135782297Y-83805077D03*
%TO.P,U2,4,QE*%
%TO.N,e*%
X135132297Y-83805077D03*
%TO.P,U2,5,QF*%
%TO.N,f*%
X134482297Y-83805077D03*
%TO.P,U2,6,QG*%
%TO.N,g*%
X133832297Y-83805077D03*
%TO.P,U2,7,QH*%
%TO.N,dp*%
X133182297Y-83805077D03*
%TO.P,U2,8,GND*%
%TO.N,GND*%
X132532297Y-83805077D03*
%TO.P,U2,9,QH'*%
%TO.N,unconnected-(U2-QH'-Pad9)*%
X132532297Y-89530077D03*
%TO.P,U2,10,~{SRCLR}*%
%TO.N,+5V*%
X133182297Y-89530077D03*
%TO.P,U2,11,SRCLK*%
%TO.N,SH_CP*%
X133832297Y-89530077D03*
%TO.P,U2,12,RCLK*%
%TO.N,ST_CP*%
X134482297Y-89530077D03*
%TO.P,U2,13,~{OE}*%
%TO.N,GND*%
X135132297Y-89530077D03*
%TO.P,U2,14,SER*%
%TO.N,DS*%
X135782297Y-89530077D03*
%TO.P,U2,15,QA*%
%TO.N,a*%
X136432297Y-89530077D03*
%TO.P,U2,16,VCC*%
%TO.N,+5V*%
X137082297Y-89530077D03*
%TD*%
D23*
%TO.P,C15,1*%
%TO.N,Net-(U5-BP)*%
X116500000Y-93980000D03*
%TO.P,C15,2*%
%TO.N,GND*%
X114950000Y-93980000D03*
%TD*%
D13*
%TO.P,C9,1*%
%TO.N,/UCAP*%
X151871806Y-106893264D03*
%TO.P,C9,2*%
%TO.N,GND*%
X153421806Y-106893264D03*
%TD*%
D14*
%TO.P,D1,1,K*%
%TO.N,GND*%
X110490000Y-62895000D03*
%TO.P,D1,2,A*%
%TO.N,Net-(D1-A)*%
X110490000Y-64770000D03*
%TD*%
D24*
%TO.P,R16,1*%
%TO.N,+5V*%
X164196361Y-94377674D03*
%TO.P,R16,2*%
%TO.N,Net-(D3-A)*%
X164196361Y-96027674D03*
%TD*%
D13*
%TO.P,C7,1*%
%TO.N,+5V*%
X151894180Y-110009211D03*
%TO.P,C7,2*%
%TO.N,GND*%
X153444180Y-110009211D03*
%TD*%
D25*
%TO.P,R14,1*%
%TO.N,Net-(J2-D+)*%
X171450000Y-107151492D03*
%TO.P,R14,2*%
%TO.N,USB_CONN_D+*%
X169800000Y-107151492D03*
%TD*%
D26*
%TO.P,U3,44,AVCC*%
%TO.N,+5V*%
X147184999Y-112379999D03*
%TO.P,U3,43,GND*%
%TO.N,GND*%
X146384999Y-112379999D03*
%TO.P,U3,42,AREF*%
%TO.N,/AREF*%
X145584999Y-112379999D03*
%TO.P,U3,41,PF0*%
%TO.N,unconnected-(U3-PF0-Pad41)*%
X144784999Y-112379999D03*
%TO.P,U3,40,PF1*%
%TO.N,unconnected-(U3-PF1-Pad40)*%
X143984999Y-112379999D03*
%TO.P,U3,39,PF4*%
%TO.N,unconnected-(U3-PF4-Pad39)*%
X143184999Y-112379999D03*
%TO.P,U3,38,PF5*%
%TO.N,unconnected-(U3-PF5-Pad38)*%
X142384999Y-112379999D03*
%TO.P,U3,37,PF6*%
%TO.N,unconnected-(U3-PF6-Pad37)*%
X141584999Y-112379999D03*
%TO.P,U3,36,PF7*%
%TO.N,unconnected-(U3-PF7-Pad36)*%
X140784999Y-112379999D03*
%TO.P,U3,35,GND*%
%TO.N,GND*%
X139984999Y-112379999D03*
%TO.P,U3,34,VCC*%
%TO.N,+5V*%
X139184999Y-112379999D03*
D27*
%TO.P,U3,33,~{HWB}/PE2*%
%TO.N,GND*%
X137484999Y-110679999D03*
%TO.P,U3,32,PC7*%
%TO.N,Dig1*%
X137484999Y-109879999D03*
%TO.P,U3,31,PC6*%
%TO.N,RED_LED*%
X137484999Y-109079999D03*
%TO.P,U3,30,PB6*%
%TO.N,Dig4*%
X137484999Y-108279999D03*
%TO.P,U3,29,PB5*%
%TO.N,DS*%
X137484999Y-107479999D03*
%TO.P,U3,28,PB4*%
%TO.N,ST_CP*%
X137484999Y-106679999D03*
%TO.P,U3,27,PD7*%
%TO.N,Buzzer*%
X137484999Y-105879999D03*
%TO.P,U3,26,PD6*%
%TO.N,Dig2*%
X137484999Y-105079999D03*
%TO.P,U3,25,PD4*%
%TO.N,GREEN_LED*%
X137484999Y-104279999D03*
%TO.P,U3,24,AVCC*%
%TO.N,+5V*%
X137484999Y-103479999D03*
%TO.P,U3,23,GND*%
%TO.N,GND*%
X137484999Y-102679999D03*
D26*
%TO.P,U3,22,PD5*%
%TO.N,unconnected-(U3-PD5-Pad22)*%
X139184999Y-100979999D03*
%TO.P,U3,21,PD3*%
%TO.N,RX*%
X139984999Y-100979999D03*
%TO.P,U3,20,PD2*%
%TO.N,TX*%
X140784999Y-100979999D03*
%TO.P,U3,19,PD1*%
%TO.N,Button_1*%
X141584999Y-100979999D03*
%TO.P,U3,18,PD0*%
%TO.N,Button_2*%
X142384999Y-100979999D03*
%TO.P,U3,17,XTAL1*%
%TO.N,XTAL1*%
X143184999Y-100979999D03*
%TO.P,U3,16,XTAL2*%
%TO.N,XTAL2*%
X143984999Y-100979999D03*
%TO.P,U3,15,GND*%
%TO.N,GND*%
X144784999Y-100979999D03*
%TO.P,U3,14,VCC*%
%TO.N,+5V*%
X145584999Y-100979999D03*
%TO.P,U3,13,~{RESET}*%
%TO.N,RST*%
X146384999Y-100979999D03*
%TO.P,U3,12,PB7*%
%TO.N,Dig3*%
X147184999Y-100979999D03*
D27*
%TO.P,U3,11,PB3*%
%TO.N,MISO*%
X148884999Y-102679999D03*
%TO.P,U3,10,PB2*%
%TO.N,MOSI*%
X148884999Y-103479999D03*
%TO.P,U3,9,PB1*%
%TO.N,SCK*%
X148884999Y-104279999D03*
%TO.P,U3,8,PB0*%
%TO.N,unconnected-(U3-PB0-Pad8)*%
X148884999Y-105079999D03*
%TO.P,U3,7,VBUS*%
%TO.N,+5V*%
X148884999Y-105879999D03*
%TO.P,U3,6,UCAP*%
%TO.N,/UCAP*%
X148884999Y-106679999D03*
%TO.P,U3,5,UGND*%
%TO.N,GND*%
X148884999Y-107479999D03*
%TO.P,U3,4,D+*%
%TO.N,USB_D+*%
X148884999Y-108279999D03*
%TO.P,U3,3,D-*%
%TO.N,USB_D-*%
X148884999Y-109079999D03*
%TO.P,U3,2,UVCC*%
%TO.N,+5V*%
X148884999Y-109879999D03*
%TO.P,U3,1,PE6*%
%TO.N,SH_CP*%
X148884999Y-110679999D03*
%TD*%
D13*
%TO.P,C14,1*%
%TO.N,+3.3V*%
X110860000Y-92710000D03*
%TO.P,C14,2*%
%TO.N,GND*%
X112410000Y-92710000D03*
%TD*%
D28*
%TO.P,S3,1*%
%TO.N,GND*%
X151939999Y-92129999D03*
%TO.P,S3,2*%
%TO.N,N/C*%
X157939999Y-92129999D03*
%TO.P,S3,3*%
%TO.N,RST*%
X151939999Y-95829999D03*
%TO.P,S3,4*%
%TO.N,N/C*%
X157939999Y-95829999D03*
%TD*%
D29*
%TO.P,S1,A1,NO_1*%
%TO.N,unconnected-(S1-NO_1-PadA1)*%
X113499999Y-128309999D03*
%TO.P,S1,B1,NO_2*%
%TO.N,Button_1*%
X127799999Y-128309999D03*
%TO.P,S1,C1,COM_1*%
%TO.N,+5V*%
X113499999Y-133309999D03*
%TO.P,S1,D1,COM_2*%
%TO.N,unconnected-(S1-COM_2-PadD1)*%
X127799999Y-133309999D03*
%TD*%
D17*
%TO.P,C1,1*%
%TO.N,+5V*%
X138430000Y-87910000D03*
%TO.P,C1,2*%
%TO.N,GND*%
X138430000Y-86360000D03*
%TD*%
D30*
%TO.P,J3,1,Pin_1*%
%TO.N,GND*%
X123859999Y-90169999D03*
D31*
%TO.P,J3,2,Pin_2*%
%TO.N,TX*%
X121319999Y-90169999D03*
%TO.P,J3,3,Pin_3*%
%TO.N,unconnected-(J3-Pin_3-Pad3)*%
X123859999Y-92709999D03*
%TO.P,J3,4,Pin_4*%
%TO.N,+3.3V*%
X121319999Y-92709999D03*
%TO.P,J3,5,Pin_5*%
%TO.N,Net-(J3-Pin_5)*%
X123859999Y-95249999D03*
%TO.P,J3,6,Pin_6*%
%TO.N,+3.3V*%
X121319999Y-95249999D03*
%TO.P,J3,7,Pin_7*%
%TO.N,RX*%
X123859999Y-97789999D03*
%TO.P,J3,8,Pin_8*%
%TO.N,+3.3V*%
X121319999Y-97789999D03*
%TD*%
D13*
%TO.P,C6,1*%
%TO.N,+5V*%
X151857379Y-105257668D03*
%TO.P,C6,2*%
%TO.N,GND*%
X153407379Y-105257668D03*
%TD*%
D11*
%TO.P,R12,1*%
%TO.N,dp*%
X119444167Y-80088318D03*
%TO.P,R12,2*%
%TO.N,Net-(U1-DPX)*%
X119444167Y-78263318D03*
%TD*%
D32*
%TO.P,F1,1*%
%TO.N,Net-(J2-VBUS)*%
X170180000Y-114300000D03*
%TO.P,F1,2*%
%TO.N,+5V*%
X165905000Y-114300000D03*
%TD*%
D33*
%TO.P,LS1,1,1*%
%TO.N,Buzzer*%
X172729999Y-66039999D03*
D34*
%TO.P,LS1,2,2*%
%TO.N,GND*%
X180330000Y-66040000D03*
%TD*%
D11*
%TO.P,R11,1*%
%TO.N,g*%
X123254167Y-80088318D03*
%TO.P,R11,2*%
%TO.N,Net-(U1-g)*%
X123254167Y-78263318D03*
%TD*%
D35*
%TO.P,R2,1*%
%TO.N,Button_2*%
X135532500Y-133350000D03*
%TO.P,R2,2*%
%TO.N,GND*%
X133707500Y-133350000D03*
%TD*%
D36*
%TO.P,C8,1*%
%TO.N,+5V*%
X146050000Y-95880000D03*
%TO.P,C8,2*%
%TO.N,GND*%
X146050000Y-93980000D03*
%TD*%
D37*
%TO.P,U1,1,e*%
%TO.N,Net-(U1-e)*%
X135889999Y-73659999D03*
D38*
%TO.P,U1,2,d*%
%TO.N,Net-(U1-d)*%
X138430000Y-73660000D03*
%TO.P,U1,3,DPX*%
%TO.N,Net-(U1-DPX)*%
X140970000Y-73660000D03*
%TO.P,U1,4,c*%
%TO.N,Net-(U1-c)*%
X143510000Y-73660000D03*
%TO.P,U1,5,g*%
%TO.N,Net-(U1-g)*%
X146050000Y-73660000D03*
%TO.P,U1,6,CA4*%
%TO.N,Dig4*%
X148590000Y-73660000D03*
%TO.P,U1,7,b*%
%TO.N,Net-(U1-b)*%
X148590000Y-58420000D03*
%TO.P,U1,8,CA3*%
%TO.N,Dig3*%
X146050000Y-58420000D03*
%TO.P,U1,9,CA2*%
%TO.N,Dig2*%
X143510000Y-58420000D03*
%TO.P,U1,10,f*%
%TO.N,Net-(U1-f)*%
X140970000Y-58420000D03*
%TO.P,U1,11,a*%
%TO.N,Net-(U1-a)*%
X138430000Y-58420000D03*
%TO.P,U1,12,CA1*%
%TO.N,Dig1*%
X135890000Y-58420000D03*
%TD*%
D39*
%TO.P,U4,1,I/O1*%
%TO.N,USB_CONN_D-*%
X164835000Y-108580000D03*
%TO.P,U4,2,GND*%
%TO.N,GND*%
X164835000Y-107630000D03*
%TO.P,U4,3,I/O2*%
%TO.N,USB_CONN_D+*%
X164835000Y-106680000D03*
%TO.P,U4,4,I/O2*%
%TO.N,USB_D+*%
X162560000Y-106680000D03*
%TO.P,U4,5,VBUS*%
%TO.N,+5V*%
X162560000Y-107630000D03*
%TO.P,U4,6,I/O1*%
%TO.N,USB_D-*%
X162560000Y-108580000D03*
%TD*%
D17*
%TO.P,C3,1*%
%TO.N,XTAL2*%
X142324588Y-95908823D03*
%TO.P,C3,2*%
%TO.N,GND*%
X142324588Y-94358823D03*
%TD*%
D23*
%TO.P,C4,1*%
%TO.N,+5V*%
X133938599Y-103156691D03*
%TO.P,C4,2*%
%TO.N,GND*%
X132388599Y-103156691D03*
%TD*%
D40*
%TO.P,U5,1,VIN*%
%TO.N,+5V*%
X115077500Y-90220000D03*
%TO.P,U5,2,GND*%
%TO.N,GND*%
X115077500Y-91170000D03*
%TO.P,U5,3,ON/~{OFF}*%
%TO.N,+5V*%
X115077500Y-92120000D03*
%TO.P,U5,4,BP*%
%TO.N,Net-(U5-BP)*%
X117352500Y-92120000D03*
%TO.P,U5,5,VOUT*%
%TO.N,+3.3V*%
X117352500Y-90220000D03*
%TD*%
D11*
%TO.P,R10,1*%
%TO.N,f*%
X127064167Y-80088318D03*
%TO.P,R10,2*%
%TO.N,Net-(U1-f)*%
X127064167Y-78263318D03*
%TD*%
D19*
%TO.P,C10,1*%
%TO.N,+5V*%
X147339690Y-115255481D03*
%TO.P,C10,2*%
%TO.N,GND*%
X147339690Y-116805481D03*
%TD*%
D11*
%TO.P,R9,1*%
%TO.N,e*%
X130874167Y-80088318D03*
%TO.P,R9,2*%
%TO.N,Net-(U1-e)*%
X130874167Y-78263318D03*
%TD*%
D25*
%TO.P,R15,1*%
%TO.N,Net-(J2-D-)*%
X171485295Y-109009638D03*
%TO.P,R15,2*%
%TO.N,USB_CONN_D-*%
X169835295Y-109009638D03*
%TD*%
D19*
%TO.P,C11,1*%
%TO.N,+5V*%
X139457130Y-115176623D03*
%TO.P,C11,2*%
%TO.N,GND*%
X139457130Y-116726623D03*
%TD*%
D11*
%TO.P,R4,1*%
%TO.N,GREEN_LED*%
X113030000Y-69492500D03*
%TO.P,R4,2*%
%TO.N,Net-(D2-A)*%
X113030000Y-67667500D03*
%TD*%
D29*
%TO.P,S2,A1,NO_1*%
%TO.N,unconnected-(S2-NO_1-PadA1)*%
X155739999Y-133309999D03*
%TO.P,S2,B1,NO_2*%
%TO.N,Button_2*%
X141439999Y-133309999D03*
%TO.P,S2,C1,COM_1*%
%TO.N,+5V*%
X155739999Y-128309999D03*
%TO.P,S2,D1,COM_2*%
%TO.N,unconnected-(S2-COM_2-PadD1)*%
X141439999Y-128309999D03*
%TD*%
D30*
%TO.P,J1,1,MISO*%
%TO.N,MISO*%
X165099999Y-100329999D03*
D31*
%TO.P,J1,2,VCC*%
%TO.N,+5V*%
X165099999Y-102869999D03*
%TO.P,J1,3,SCK*%
%TO.N,SCK*%
X162559999Y-100329999D03*
%TO.P,J1,4,MOSI*%
%TO.N,MOSI*%
X162559999Y-102869999D03*
%TO.P,J1,5,~{RST}*%
%TO.N,RST*%
X160019999Y-100329999D03*
%TO.P,J1,6,GND*%
%TO.N,GND*%
X160019999Y-102869999D03*
%TD*%
D41*
%TO.N,+5V*%
X146411428Y-113897881D03*
X144435060Y-113932104D03*
%TO.N,GND*%
X139606078Y-110628541D03*
X131147296Y-103191227D03*
X147426475Y-107528040D03*
X144772138Y-102488345D03*
X151914904Y-91041094D03*
X159982527Y-104545627D03*
X154731495Y-109974456D03*
X136860336Y-128322441D03*
X145560817Y-118077942D03*
X154758641Y-106836618D03*
X144047735Y-92993457D03*
X139453980Y-118076298D03*
X154803996Y-105261565D03*
X138327331Y-85054732D03*
X112425960Y-91378079D03*
X125613968Y-88408810D03*
X146401243Y-110943085D03*
X110455541Y-61628262D03*
X147332021Y-118053898D03*
X139070516Y-102661786D03*
X113085611Y-61642365D03*
X180340000Y-68580000D03*
X145996504Y-92473785D03*
X142335180Y-93017078D03*
X134061906Y-94077552D03*
X114896000Y-95295234D03*
X140504517Y-92981646D03*
X160813569Y-92820827D03*
X135119986Y-87995043D03*
X137732908Y-97092908D03*
X112551044Y-93961277D03*
X132612120Y-85354182D03*
X174441654Y-106349430D03*
X166059093Y-107642281D03*
X132487847Y-133368055D03*
%TO.N,XTAL2*%
X143510000Y-97790000D03*
X140970000Y-97790000D03*
%TO.N,MISO*%
X150474062Y-102647551D03*
%TO.N,SCK*%
X150525396Y-104337731D03*
%TO.N,TX*%
X122028372Y-88354383D03*
X132094922Y-95496971D03*
%TO.N,RX*%
X131516368Y-98845062D03*
X125798445Y-98888885D03*
%TO.N,Buzzer*%
X145748884Y-105374732D03*
X156586426Y-77697870D03*
%TO.N,Button_1*%
X141305513Y-102770994D03*
X131280663Y-127092446D03*
%TO.N,Button_2*%
X142388298Y-102683722D03*
X138878652Y-131848995D03*
%TO.N,RED_LED*%
X130174788Y-108526987D03*
X122403778Y-108526987D03*
%TO.N,GREEN_LED*%
X113030000Y-80010000D03*
X132926103Y-104804153D03*
%TO.N,a*%
X140970000Y-90170000D03*
X142085187Y-88483481D03*
%TO.N,Net-(U1-b)*%
X148821954Y-76941447D03*
X152400000Y-76200000D03*
%TO.N,Net-(U1-f)*%
X139700000Y-62230000D03*
X142240000Y-60960000D03*
%TO.N,Net-(U1-g)*%
X125883861Y-77036510D03*
X128302274Y-77019399D03*
%TO.N,Net-(U1-DPX)*%
X126454242Y-74091540D03*
X130412681Y-74256951D03*
%TO.N,Dig4*%
X148590000Y-71120000D03*
X146855280Y-105716960D03*
%TO.N,Dig3*%
X155017523Y-76943824D03*
X148572071Y-98652264D03*
%TO.N,Dig2*%
X135388968Y-105004500D03*
X143510000Y-60960000D03*
%TO.N,Dig1*%
X110855234Y-88068056D03*
X127952394Y-109887345D03*
X130246534Y-109880000D03*
X113030000Y-97790000D03*
%TO.N,ST_CP*%
X134441233Y-91576774D03*
X132979886Y-93105463D03*
%TD*%
D42*
%TO.N,unconnected-(J2-Shield-Pad6)*%
X181920000Y-112400000D02*
X176470000Y-112400000D01*
X181920000Y-103500000D02*
X181920000Y-112400000D01*
X176470000Y-103500000D02*
X181920000Y-103500000D01*
D43*
%TO.N,+5V*%
X161866366Y-91900963D02*
X164196361Y-94230958D01*
X163705646Y-112100646D02*
X165905000Y-114300000D01*
D42*
X138450866Y-89421898D02*
X138450866Y-87930866D01*
D43*
X147185000Y-115100791D02*
X147185000Y-114300000D01*
X115077500Y-90220000D02*
X115428659Y-90220000D01*
D42*
X146050000Y-108882572D02*
X147047428Y-109880000D01*
X148885000Y-105880000D02*
X151235047Y-105880000D01*
X146176813Y-104013187D02*
X145585000Y-103421375D01*
D43*
X155740000Y-130010000D02*
X155740000Y-128310000D01*
X163708318Y-104261682D02*
X165100000Y-102870000D01*
D42*
X147885000Y-105880000D02*
X146050000Y-107715000D01*
X149860000Y-91440000D02*
X149860000Y-93375016D01*
D43*
X110860000Y-89800000D02*
X110860000Y-90200000D01*
X165497674Y-94377674D02*
X168910000Y-97790000D01*
D42*
X146176813Y-104013187D02*
X141522401Y-104013187D01*
D43*
X143190541Y-115176623D02*
X144435060Y-113932104D01*
X167640000Y-102870000D02*
X165100000Y-102870000D01*
D42*
X133182297Y-87818000D02*
X133360149Y-87640149D01*
X138450866Y-87930866D02*
X138430000Y-87910000D01*
D43*
X148386135Y-95870623D02*
X145585000Y-98671758D01*
X116041600Y-90832941D02*
X116041600Y-91507059D01*
X164196361Y-94230958D02*
X164196361Y-94377674D01*
D42*
X147047428Y-109880000D02*
X148885000Y-109880000D01*
D43*
X147185000Y-114300000D02*
X147185000Y-112380000D01*
X115077500Y-90220000D02*
X117657351Y-87640149D01*
D42*
X138014525Y-89858239D02*
X138450866Y-89421898D01*
X148885000Y-105880000D02*
X147885000Y-105880000D01*
D43*
X144085597Y-95917361D02*
X144085597Y-97095597D01*
X115428659Y-92120000D02*
X115077500Y-92120000D01*
X163690678Y-108409519D02*
X163705646Y-108409519D01*
X162560000Y-107630000D02*
X162952248Y-107630000D01*
D42*
X146050000Y-107715000D02*
X146050000Y-108882572D01*
D43*
X139185000Y-114904493D02*
X139185000Y-112380000D01*
D42*
X133182297Y-89530077D02*
X133182297Y-87818000D01*
D43*
X162952248Y-107630000D02*
X163708318Y-106873930D01*
X115077500Y-90220000D02*
X113757500Y-88900000D01*
X117657351Y-87640149D02*
X133360149Y-87640149D01*
X115428659Y-90220000D02*
X116041600Y-90832941D01*
X145585000Y-99060000D02*
X145585000Y-100980000D01*
X162560000Y-107630000D02*
X162911159Y-107630000D01*
X151764969Y-109880000D02*
X148885000Y-109880000D01*
X163708318Y-106873930D02*
X163708318Y-104261682D01*
D42*
X136381196Y-87003291D02*
X137082297Y-87704392D01*
D43*
X163705646Y-108409519D02*
X163705646Y-112100646D01*
X155740000Y-128310000D02*
X155740000Y-124465000D01*
X147339690Y-115255481D02*
X147185000Y-115100791D01*
X145585000Y-98671758D02*
X145585000Y-99060000D01*
D42*
X145585000Y-103421375D02*
X145585000Y-100980000D01*
X147841898Y-89421898D02*
X149860000Y-91440000D01*
D43*
X146050000Y-95880000D02*
X145585000Y-96345000D01*
D42*
X140989214Y-103480000D02*
X137485000Y-103480000D01*
X137410459Y-89858239D02*
X138014525Y-89858239D01*
D43*
X162911159Y-107630000D02*
X163690678Y-108409519D01*
D42*
X148885000Y-105880000D02*
X148043625Y-105880000D01*
D43*
X144085597Y-97095597D02*
X145585000Y-98595000D01*
D42*
X138450866Y-89421898D02*
X147841898Y-89421898D01*
D43*
X116041600Y-91507059D02*
X115428659Y-92120000D01*
X164196361Y-94377674D02*
X165497674Y-94377674D01*
X133938599Y-103156691D02*
X134261908Y-103480000D01*
D42*
X137082297Y-89530077D02*
X137410459Y-89858239D01*
X137082297Y-87704392D02*
X137082297Y-89530077D01*
D43*
X113500000Y-133310000D02*
X116000000Y-130810000D01*
X146411428Y-113897881D02*
X146813547Y-114300000D01*
X113757500Y-88900000D02*
X111760000Y-88900000D01*
X116000000Y-130810000D02*
X154940000Y-130810000D01*
X154940000Y-130810000D02*
X155740000Y-130010000D01*
D42*
X151235047Y-105880000D02*
X151857379Y-105257668D01*
X133360149Y-87640149D02*
X133997006Y-87003291D01*
D43*
X134261908Y-103480000D02*
X137485000Y-103480000D01*
X139457130Y-115176623D02*
X139185000Y-114904493D01*
X147185000Y-110017572D02*
X147047428Y-109880000D01*
D42*
X148043625Y-105880000D02*
X146176813Y-104013187D01*
X149860000Y-93375016D02*
X150370871Y-93885887D01*
D43*
X151894180Y-110009211D02*
X151764969Y-109880000D01*
X146813547Y-114300000D02*
X147185000Y-114300000D01*
X160044001Y-91900963D02*
X161866366Y-91900963D01*
X145585000Y-96345000D02*
X145585000Y-99060000D01*
X145585000Y-98595000D02*
X145585000Y-99060000D01*
X139457130Y-115176623D02*
X143190541Y-115176623D01*
X111760000Y-88900000D02*
X110860000Y-89800000D01*
D42*
X141522401Y-104013187D02*
X140989214Y-103480000D01*
D43*
X150370871Y-93885887D02*
X158059077Y-93885887D01*
X147185000Y-112380000D02*
X147185000Y-110017572D01*
X168910000Y-97790000D02*
X168910000Y-101600000D01*
X148386135Y-95870623D02*
X150370871Y-93885887D01*
X168910000Y-101600000D02*
X167640000Y-102870000D01*
D42*
X133997006Y-87003291D02*
X136381196Y-87003291D01*
D43*
X155740000Y-124465000D02*
X165905000Y-114300000D01*
X158059077Y-93885887D02*
X160044001Y-91900963D01*
D44*
%TO.N,GND*%
X137536459Y-110628541D02*
X137485000Y-110680000D01*
X123860000Y-90162778D02*
X125613968Y-88408810D01*
X139985000Y-111007463D02*
X139985000Y-112380000D01*
X131147296Y-103191227D02*
X132354063Y-103191227D01*
X132487847Y-133368055D02*
X133689445Y-133368055D01*
X135532500Y-128270000D02*
X136807895Y-128270000D01*
X133689445Y-133368055D02*
X133707500Y-133350000D01*
D43*
X112634039Y-91170000D02*
X112425960Y-91378079D01*
D42*
X135132297Y-88007354D02*
X135119986Y-87995043D01*
D44*
X140488764Y-92997399D02*
X140504517Y-92981646D01*
X147332021Y-116813150D02*
X147339690Y-116805481D01*
X159982527Y-102907473D02*
X160020000Y-102870000D01*
X144772138Y-102488345D02*
X144772138Y-100992862D01*
X180330000Y-68570000D02*
X180340000Y-68580000D01*
X113085611Y-61642365D02*
X113085611Y-62839389D01*
X146050000Y-92527281D02*
X145996504Y-92473785D01*
X148907998Y-107502998D02*
X148885000Y-107480000D01*
X174442224Y-106350000D02*
X174441654Y-106349430D01*
X134061906Y-94077552D02*
X135476552Y-94077552D01*
X139457130Y-117082870D02*
X139453980Y-117086020D01*
X153478452Y-106836618D02*
X153421806Y-106893264D01*
X147426475Y-107528040D02*
X148836960Y-107528040D01*
X137732908Y-97092908D02*
X137732908Y-95833908D01*
X144085597Y-93031319D02*
X144047735Y-92993457D01*
X123860000Y-90170000D02*
X123860000Y-90162778D01*
X139606078Y-110628541D02*
X139985000Y-111007463D01*
X114896000Y-95295234D02*
X114896000Y-94034000D01*
X114896000Y-94034000D02*
X114950000Y-93980000D01*
D42*
X138430000Y-86360000D02*
X138430000Y-85157401D01*
D44*
X112551044Y-93961277D02*
X112551044Y-92851044D01*
X113085611Y-62839389D02*
X113030000Y-62895000D01*
X139606078Y-110628541D02*
X137536459Y-110628541D01*
X110455541Y-61628262D02*
X110455541Y-62860541D01*
X142324588Y-94358823D02*
X142324588Y-93027670D01*
X144085597Y-94367361D02*
X144085597Y-93031319D01*
X145560817Y-116881051D02*
X145625107Y-116816761D01*
X146050000Y-93980000D02*
X146050000Y-92527281D01*
D42*
X138430000Y-85157401D02*
X138327331Y-85054732D01*
D44*
X110455541Y-62860541D02*
X110490000Y-62895000D01*
D43*
X115077500Y-91170000D02*
X112634039Y-91170000D01*
D44*
X154803996Y-105261565D02*
X153411276Y-105261565D01*
X112551044Y-92851044D02*
X112410000Y-92710000D01*
X137732908Y-95833908D02*
X137690470Y-95791470D01*
X176370000Y-106350000D02*
X174442224Y-106350000D01*
D42*
X132606300Y-85360002D02*
X132612120Y-85354182D01*
D44*
X146401243Y-112363757D02*
X146385000Y-112380000D01*
X139457130Y-116726623D02*
X139457130Y-117082870D01*
D42*
X135132297Y-89530077D02*
X135132297Y-88007354D01*
D44*
X153444180Y-110009211D02*
X154696740Y-110009211D01*
X151940000Y-91066190D02*
X151914904Y-91041094D01*
X160813569Y-94033569D02*
X160845000Y-94065000D01*
X154696740Y-110009211D02*
X154731495Y-109974456D01*
X164835000Y-107630000D02*
X166046812Y-107630000D01*
X137485000Y-102680000D02*
X139052302Y-102680000D01*
X139052302Y-102680000D02*
X139070516Y-102661786D01*
X139453980Y-118076298D02*
X139453980Y-117086020D01*
X136807895Y-128270000D02*
X136860336Y-128322441D01*
X145560817Y-118077942D02*
X145560817Y-116881051D01*
D42*
X132612120Y-83884900D02*
X132532297Y-83805077D01*
D44*
X135476552Y-94077552D02*
X135490470Y-94091470D01*
X159982527Y-104545627D02*
X159982527Y-102907473D01*
X132354063Y-103191227D02*
X132388599Y-103156691D01*
D42*
X132612120Y-85354182D02*
X132612120Y-83884900D01*
D44*
X112425960Y-91378079D02*
X112425960Y-90215960D01*
X151940000Y-92130000D02*
X151940000Y-91066190D01*
X148836960Y-107528040D02*
X148885000Y-107480000D01*
X112425960Y-90215960D02*
X112410000Y-90200000D01*
X166046812Y-107630000D02*
X166059093Y-107642281D01*
X140488764Y-94349911D02*
X140488764Y-92997399D01*
X144772138Y-100992862D02*
X144785000Y-100980000D01*
X180330000Y-66040000D02*
X180330000Y-68570000D01*
X146401243Y-110943085D02*
X146401243Y-112363757D01*
X142324588Y-93027670D02*
X142335180Y-93017078D01*
X147332021Y-118053898D02*
X147332021Y-116813150D01*
X153411276Y-105261565D02*
X153407379Y-105257668D01*
X154758641Y-106836618D02*
X153478452Y-106836618D01*
X160813569Y-92820827D02*
X160813569Y-94033569D01*
D43*
%TO.N,XTAL1*%
X138680323Y-94091470D02*
X140488764Y-95899911D01*
X137690470Y-94091470D02*
X138680323Y-94091470D01*
X143106800Y-100901800D02*
X143185000Y-100980000D01*
X143106800Y-98517947D02*
X143106800Y-100901800D01*
X140488764Y-95899911D02*
X143106800Y-98517947D01*
%TO.N,XTAL2*%
X135490470Y-97390470D02*
X135894508Y-97794508D01*
D42*
X143510000Y-97790000D02*
X143510000Y-97094235D01*
X143510000Y-97094235D02*
X142324588Y-95908823D01*
D43*
X135490470Y-95791470D02*
X135490470Y-97390470D01*
D42*
X143510000Y-97790000D02*
X143985000Y-98265000D01*
D43*
X135894508Y-97794508D02*
X140965492Y-97794508D01*
D42*
X143985000Y-98265000D02*
X143985000Y-100980000D01*
D43*
X142324588Y-95908823D02*
X142240000Y-95993411D01*
X140965492Y-97794508D02*
X140970000Y-97790000D01*
D42*
%TO.N,/UCAP*%
X151658542Y-106680000D02*
X151871806Y-106893264D01*
X148885000Y-106680000D02*
X151658542Y-106680000D01*
D43*
%TO.N,/AREF*%
X145585000Y-115226654D02*
X145585000Y-112380000D01*
X145625107Y-115266761D02*
X145585000Y-115226654D01*
D42*
%TO.N,+3.3V*%
X121320000Y-95250000D02*
X121320000Y-97790000D01*
X121320000Y-99325030D02*
X121971334Y-99976364D01*
X121971334Y-99976364D02*
X126049554Y-99976364D01*
X121320000Y-97790000D02*
X121320000Y-99325030D01*
X114535757Y-97790000D02*
X121320000Y-97790000D01*
X127007793Y-97352793D02*
X127000000Y-97345000D01*
X127007793Y-99018125D02*
X127007793Y-97352793D01*
X110860000Y-94114243D02*
X114535757Y-97790000D01*
X126049554Y-99976364D02*
X127007793Y-99018125D01*
X110860000Y-92710000D02*
X110860000Y-94114243D01*
X121320000Y-92710000D02*
X119842500Y-92710000D01*
X121320000Y-92710000D02*
X121320000Y-95250000D01*
X119842500Y-92710000D02*
X117352500Y-90220000D01*
%TO.N,Net-(U5-BP)*%
X116500000Y-92972500D02*
X117352500Y-92120000D01*
X116500000Y-93980000D02*
X116500000Y-92972500D01*
%TO.N,Net-(D1-A)*%
X110490000Y-64770000D02*
X110490000Y-67667500D01*
%TO.N,Net-(D2-A)*%
X113030000Y-64770000D02*
X113030000Y-67667500D01*
%TO.N,Net-(D3-A)*%
X160845000Y-95940000D02*
X164108687Y-95940000D01*
X164108687Y-95940000D02*
X164196361Y-96027674D01*
%TO.N,Net-(J2-VBUS)*%
X172720000Y-111760000D02*
X172720000Y-110490000D01*
X170180000Y-114300000D02*
X172720000Y-111760000D01*
X172720000Y-110490000D02*
X173660000Y-109550000D01*
X173660000Y-109550000D02*
X176370000Y-109550000D01*
%TO.N,MISO*%
X148885000Y-102680000D02*
X150441613Y-102680000D01*
X150441613Y-102680000D02*
X150474062Y-102647551D01*
%TO.N,SCK*%
X150467665Y-104280000D02*
X150525396Y-104337731D01*
X148885000Y-104280000D02*
X150467665Y-104280000D01*
%TO.N,MOSI*%
X148885000Y-103480000D02*
X156061253Y-103480000D01*
X162560000Y-104244235D02*
X162560000Y-102870000D01*
X156061253Y-103480000D02*
X158377304Y-105796051D01*
X158377304Y-105796051D02*
X161008184Y-105796051D01*
X161008184Y-105796051D02*
X162560000Y-104244235D01*
%TO.N,RST*%
X150036135Y-95870623D02*
X151899377Y-95870623D01*
X151899377Y-95870623D02*
X151940000Y-95830000D01*
X146385000Y-100980000D02*
X146385000Y-99521758D01*
X146385000Y-99521758D02*
X150036135Y-95870623D01*
X158972315Y-99480000D02*
X155322315Y-95830000D01*
X155322315Y-95830000D02*
X151940000Y-95830000D01*
X160020000Y-100330000D02*
X159170000Y-99480000D01*
X159170000Y-99480000D02*
X158972315Y-99480000D01*
%TO.N,Net-(J2-D-)*%
X171485295Y-109009638D02*
X174200362Y-109009638D01*
X174460000Y-108750000D02*
X176370000Y-108750000D01*
X174200362Y-109009638D02*
X174460000Y-108750000D01*
%TO.N,Net-(J2-D+)*%
X172248508Y-107950000D02*
X176370000Y-107950000D01*
X171450000Y-107151492D02*
X172248508Y-107950000D01*
%TO.N,TX*%
X121320000Y-89062755D02*
X122028372Y-88354383D01*
X121320000Y-90170000D02*
X121320000Y-89062755D01*
X140785000Y-100980000D02*
X140785000Y-99980000D01*
X133876556Y-99094222D02*
X132094922Y-97312588D01*
X132094922Y-97312588D02*
X132094922Y-95496971D01*
X139899222Y-99094222D02*
X133876556Y-99094222D01*
X140785000Y-99980000D02*
X139899222Y-99094222D01*
%TO.N,Net-(J3-Pin_5)*%
X126555000Y-95250000D02*
X127000000Y-95695000D01*
X123860000Y-95250000D02*
X126555000Y-95250000D01*
%TO.N,RX*%
X139985000Y-99980000D02*
X139692277Y-99687277D01*
X132358583Y-99687277D02*
X131516368Y-98845062D01*
X139985000Y-100980000D02*
X139985000Y-99980000D01*
X139692277Y-99687277D02*
X132358583Y-99687277D01*
X123860000Y-97790000D02*
X124699560Y-97790000D01*
X124699560Y-97790000D02*
X125798445Y-98888885D01*
%TO.N,Buzzer*%
X145243616Y-105880000D02*
X145748884Y-105374732D01*
X137485000Y-105880000D02*
X145243616Y-105880000D01*
X156586426Y-76369596D02*
X166916022Y-66040000D01*
X166916022Y-66040000D02*
X172730000Y-66040000D01*
X156586426Y-77697870D02*
X156586426Y-76369596D01*
%TO.N,Button_1*%
X131280663Y-127839337D02*
X130810000Y-128310000D01*
X133667500Y-128310000D02*
X133707500Y-128270000D01*
X131280663Y-127092446D02*
X131280663Y-127839337D01*
X141585000Y-102491507D02*
X141305513Y-102770994D01*
X130810000Y-128310000D02*
X133667500Y-128310000D01*
X127800000Y-128310000D02*
X130810000Y-128310000D01*
X141585000Y-100980000D02*
X141585000Y-102491507D01*
%TO.N,Button_2*%
X142385000Y-102680424D02*
X142388298Y-102683722D01*
X142385000Y-100980000D02*
X142385000Y-102680424D01*
X135572500Y-133310000D02*
X138750316Y-133310000D01*
X135532500Y-133350000D02*
X135572500Y-133310000D01*
X138878652Y-133181664D02*
X138750316Y-133310000D01*
X138750316Y-133310000D02*
X141440000Y-133310000D01*
X138878652Y-131848995D02*
X138878652Y-133181664D01*
%TO.N,RED_LED*%
X109673452Y-95796661D02*
X109673452Y-83366548D01*
X137485000Y-109080000D02*
X130727801Y-109080000D01*
X130727801Y-109080000D02*
X130174788Y-108526987D01*
X109673452Y-83366548D02*
X110490000Y-82550000D01*
X122403778Y-108526987D02*
X109673452Y-95796661D01*
X110490000Y-82550000D02*
X110490000Y-69492500D01*
%TO.N,GREEN_LED*%
X113030000Y-69492500D02*
X113030000Y-80010000D01*
X132926103Y-104804153D02*
X133450256Y-104280000D01*
X133450256Y-104280000D02*
X137485000Y-104280000D01*
%TO.N,a*%
X136432297Y-89530077D02*
X136432297Y-90218618D01*
X136432297Y-90218618D02*
X137653679Y-91440000D01*
X137653679Y-91440000D02*
X139700000Y-91440000D01*
X139700000Y-91440000D02*
X140970000Y-90170000D01*
X146114167Y-84454501D02*
X142085187Y-88483481D01*
X146114167Y-80088318D02*
X146114167Y-84454501D01*
%TO.N,Net-(U1-a)*%
X148782627Y-78263318D02*
X151497323Y-75548622D01*
X146114167Y-78263318D02*
X148782627Y-78263318D01*
X151497323Y-71487323D02*
X151497323Y-75548622D01*
X138430000Y-58420000D02*
X151497323Y-71487323D01*
%TO.N,b*%
X142240000Y-80152485D02*
X142304167Y-80088318D01*
X140984923Y-83805077D02*
X142240000Y-82550000D01*
X142240000Y-82550000D02*
X142240000Y-80152485D01*
X137082297Y-83805077D02*
X140984923Y-83805077D01*
%TO.N,Net-(U1-b)*%
X153733496Y-76200000D02*
X152400000Y-76200000D01*
X143626038Y-76941447D02*
X148821954Y-76941447D01*
X155115864Y-74817632D02*
X153733496Y-76200000D01*
X148590000Y-58420000D02*
X148590000Y-62035407D01*
X148590000Y-62035407D02*
X155115864Y-68561271D01*
X155115864Y-68561271D02*
X155115864Y-74817632D01*
X142304167Y-78263318D02*
X143626038Y-76941447D01*
%TO.N,c*%
X138494167Y-80445818D02*
X138494167Y-80088318D01*
X138494167Y-80088318D02*
X136432297Y-82150188D01*
X136432297Y-82150188D02*
X136432297Y-83805077D01*
X138333000Y-80445818D02*
X138494167Y-80445818D01*
%TO.N,Net-(U1-c)*%
X138494167Y-78263318D02*
X138906682Y-78263318D01*
X138494167Y-77905818D02*
X138494167Y-78263318D01*
X138906682Y-78263318D02*
X143510000Y-73660000D01*
%TO.N,d*%
X135782297Y-83805077D02*
X135782297Y-81186448D01*
X135782297Y-81186448D02*
X134684167Y-80088318D01*
%TO.N,Net-(U1-d)*%
X134684167Y-78263318D02*
X135454182Y-78263318D01*
X135454182Y-78263318D02*
X138430000Y-75287500D01*
X138430000Y-73660000D02*
X138430000Y-75287500D01*
%TO.N,e*%
X132104079Y-80088318D02*
X130874167Y-80088318D01*
X135132297Y-83805077D02*
X135132297Y-83116536D01*
X135132297Y-83116536D02*
X132104079Y-80088318D01*
%TO.N,Net-(U1-e)*%
X130874167Y-77905818D02*
X130874167Y-78263318D01*
X135890000Y-73660000D02*
X131286682Y-78263318D01*
X131286682Y-78263318D02*
X130874167Y-78263318D01*
%TO.N,f*%
X128296188Y-81320339D02*
X127064167Y-80088318D01*
X134482297Y-83102932D02*
X132699704Y-81320339D01*
X134482297Y-83805077D02*
X134482297Y-83102932D01*
X132699704Y-81320339D02*
X128296188Y-81320339D01*
%TO.N,Net-(U1-f)*%
X127000000Y-78199151D02*
X127064167Y-78263318D01*
X127000000Y-74930000D02*
X127000000Y-78199151D01*
X139700000Y-62230000D02*
X127000000Y-74930000D01*
X142240000Y-60960000D02*
X142240000Y-59690000D01*
X142240000Y-59690000D02*
X140970000Y-58420000D01*
%TO.N,g*%
X133832297Y-83089328D02*
X132673516Y-81930547D01*
X125096396Y-81930547D02*
X123254167Y-80088318D01*
X132673516Y-81930547D02*
X125096396Y-81930547D01*
X133832297Y-83805077D02*
X133832297Y-83089328D01*
%TO.N,Net-(U1-g)*%
X143989169Y-71599169D02*
X131600831Y-71599169D01*
X128270000Y-74930000D02*
X128270000Y-76987125D01*
X131600831Y-71599169D02*
X128270000Y-74930000D01*
X128270000Y-76987125D02*
X128302274Y-77019399D01*
X146050000Y-73660000D02*
X143989169Y-71599169D01*
X124480975Y-77036510D02*
X125883861Y-77036510D01*
X123254167Y-78263318D02*
X124480975Y-77036510D01*
%TO.N,dp*%
X132656573Y-82550000D02*
X121905849Y-82550000D01*
X121905849Y-82550000D02*
X119444167Y-80088318D01*
X133182297Y-83805077D02*
X133182297Y-83075724D01*
X133182297Y-83075724D02*
X132656573Y-82550000D01*
%TO.N,Net-(U1-DPX)*%
X140970000Y-73660000D02*
X139700000Y-72390000D01*
X139700000Y-72390000D02*
X132080000Y-72390000D01*
X132080000Y-72390000D02*
X130412681Y-74057319D01*
X126454242Y-74091540D02*
X124385960Y-74091540D01*
X119444167Y-78263318D02*
X120214182Y-78263318D01*
X130412681Y-74057319D02*
X130412681Y-74256951D01*
X120214182Y-78263318D02*
X124385960Y-74091540D01*
D45*
%TO.N,USB_CONN_D+*%
X167413199Y-107404999D02*
X167846117Y-107837917D01*
X165769143Y-106942281D02*
X166349043Y-106942281D01*
X165681424Y-107030000D02*
X165769143Y-106942281D01*
X167846117Y-107837917D02*
X169113575Y-107837917D01*
X165185000Y-107030000D02*
X165681424Y-107030000D01*
X164835000Y-106680000D02*
X165185000Y-107030000D01*
X166349043Y-106942281D02*
X166811761Y-107404999D01*
X169113575Y-107837917D02*
X169800000Y-107151492D01*
X166811761Y-107404999D02*
X167413199Y-107404999D01*
%TO.N,USB_CONN_D-*%
X167226801Y-107855001D02*
X167659719Y-108287919D01*
X166836323Y-107855001D02*
X167226801Y-107855001D01*
X165185000Y-108230000D02*
X165656862Y-108230000D01*
X164835000Y-108580000D02*
X165185000Y-108230000D01*
X165656862Y-108230000D02*
X165769143Y-108342281D01*
X169113575Y-108287919D02*
X169835295Y-109009638D01*
X167659719Y-108287919D02*
X169113575Y-108287919D01*
X165769143Y-108342281D02*
X166349043Y-108342281D01*
X166349043Y-108342281D02*
X166836323Y-107855001D01*
D42*
%TO.N,Dig4*%
X148590000Y-71120000D02*
X148590000Y-73660000D01*
X137485000Y-108280000D02*
X144292240Y-108280000D01*
X144292240Y-108280000D02*
X146855280Y-105716960D01*
%TO.N,Dig3*%
X146050000Y-57687142D02*
X146050000Y-58420000D01*
X147185000Y-100039335D02*
X148572071Y-98652264D01*
X147185000Y-100980000D02*
X147185000Y-100039335D01*
X155017523Y-76943824D02*
X155017523Y-76263645D01*
X150462729Y-56739475D02*
X146997667Y-56739475D01*
X146997667Y-56739475D02*
X146050000Y-57687142D01*
X158136078Y-73145090D02*
X158136078Y-64412824D01*
X158136078Y-64412824D02*
X150462729Y-56739475D01*
X155017523Y-76263645D02*
X158136078Y-73145090D01*
%TO.N,Dig2*%
X143510000Y-58420000D02*
X143510000Y-60960000D01*
X137409500Y-105004500D02*
X137485000Y-105080000D01*
X135388968Y-105004500D02*
X137409500Y-105004500D01*
%TO.N,Dig1*%
X110855234Y-83454766D02*
X110855234Y-88068056D01*
X127952394Y-109887345D02*
X125127345Y-109887345D01*
X130236767Y-109870233D02*
X130246534Y-109880000D01*
X135890000Y-58420000D02*
X110855234Y-83454766D01*
X137485000Y-109880000D02*
X130246534Y-109880000D01*
X125127345Y-109887345D02*
X113030000Y-97790000D01*
%TO.N,SH_CP*%
X148885000Y-120268820D02*
X148885000Y-110680000D01*
X148055168Y-121098652D02*
X148885000Y-120268820D01*
X132701292Y-91440000D02*
X132080000Y-91440000D01*
X129042724Y-112571225D02*
X137570151Y-121098652D01*
X133832297Y-89530077D02*
X133832297Y-90308995D01*
X132080000Y-91440000D02*
X129042724Y-94477276D01*
X137570151Y-121098652D02*
X148055168Y-121098652D01*
X133832297Y-90308995D02*
X132701292Y-91440000D01*
X129042724Y-94477276D02*
X129042724Y-112571225D01*
%TO.N,ST_CP*%
X130422296Y-103752296D02*
X130422296Y-95637704D01*
X130422296Y-95612940D02*
X132979886Y-93105463D01*
X134441233Y-89571141D02*
X134482297Y-89530077D01*
X137485000Y-106680000D02*
X133350000Y-106680000D01*
X132979886Y-93105463D02*
X132853769Y-93181467D01*
X134441233Y-91576774D02*
X134441233Y-89571141D01*
X133350000Y-106680000D02*
X130422296Y-103752296D01*
X130422296Y-95637704D02*
X130422296Y-95612940D01*
%TO.N,DS*%
X132476414Y-92301274D02*
X129770481Y-95007207D01*
X129770481Y-103736877D02*
X133513604Y-107480000D01*
X135028726Y-92301274D02*
X132476414Y-92301274D01*
X135890000Y-89637780D02*
X135890000Y-91440000D01*
X135890000Y-91440000D02*
X135028726Y-92301274D01*
X129770481Y-95007207D02*
X129770481Y-103736877D01*
X135782297Y-89530077D02*
X135890000Y-89637780D01*
X133513604Y-107480000D02*
X137485000Y-107480000D01*
D45*
%TO.N,USB_D-*%
X150185001Y-108905000D02*
X158113200Y-108905000D01*
X161597500Y-107966396D02*
X161861104Y-108230000D01*
X148885000Y-109080000D02*
X150010001Y-109080000D01*
X150010001Y-109080000D02*
X150185001Y-108905000D01*
X162210000Y-108230000D02*
X162560000Y-108580000D01*
X159163200Y-107855000D02*
X161597500Y-107855000D01*
X161861104Y-108230000D02*
X162210000Y-108230000D01*
X158113200Y-108905000D02*
X159163200Y-107855000D01*
X161597500Y-107855000D02*
X161597500Y-107966396D01*
%TO.N,USB_D+*%
X157926800Y-108455000D02*
X158976800Y-107405000D01*
X162210000Y-107030000D02*
X162560000Y-106680000D01*
X158976800Y-107405000D02*
X161597500Y-107405000D01*
X150010001Y-108280000D02*
X150185001Y-108455000D01*
X148885000Y-108280000D02*
X150010001Y-108280000D01*
X161861104Y-107030000D02*
X162210000Y-107030000D01*
X161597500Y-107293604D02*
X161861104Y-107030000D01*
X161597500Y-107405000D02*
X161597500Y-107293604D01*
X150185001Y-108455000D02*
X157926800Y-108455000D01*
%TD*%
M02*
